NotoSerifTamil-CondensedBold.ufo
<glyph name="exclam" format="2">
  <advance width="349"/>
  <unicode hex="0021"/>
  <outline>
    <contour>
      <point x="148" y="235" type="line"/>
      <point x="201" y="235" type="line"/>
      <point x="265" y="714" type="line"/>
      <point x="84" y="714" type="line"/>
    </contour>
    <contour>
      <point x="176" y="-8" type="curve" smooth="yes"/>
      <point x="219" y="-8"/>
      <point x="256" y="12"/>
      <point x="256" y="74" type="curve" smooth="yes"/>
      <point x="256" y="136"/>
      <point x="219" y="156"/>
      <point x="176" y="156" type="curve" smooth="yes"/>
      <point x="131" y="156"/>
      <point x="96" y="136"/>
      <point x="96" y="74" type="curve" smooth="yes"/>
      <point x="96" y="12"/>
      <point x="131" y="-8"/>
    </contour>
  </outline>
</glyph>
<glyph name="quotedbl" format="2">
  <advance width="486"/>
  <unicode hex="0022"/>
  <outline>
    <contour>
      <point x="324" y="429" type="line"/>
      <point x="391" y="429" type="line"/>
      <point x="424" y="714" type="line"/>
      <point x="262" y="714" type="line"/>
    </contour>
    <contour>
      <point x="109" y="429" type="line"/>
      <point x="176" y="429" type="line"/>
      <point x="223" y="714" type="line"/>
      <point x="62" y="714" type="line"/>
    </contour>
  </outline>
</glyph>
<glyph name="numbersign" format="2">
  <advance width="466"/>
  <unicode hex="0023"/>
  <outline>
    <contour>
      <point x="52" y="0" type="line"/>
      <point x="131" y="0" type="line"/>
      <point x="169" y="198" type="line"/>
      <point x="237" y="198" type="line"/>
      <point x="201" y="0" type="line"/>
      <point x="280" y="0" type="line"/>
      <point x="316" y="198" type="line"/>
      <point x="421" y="198" type="line"/>
      <point x="421" y="274" type="line"/>
      <point x="332" y="274" type="line"/>
      <point x="364" y="444" type="line"/>
      <point x="453" y="444" type="line"/>
      <point x="453" y="522" type="line"/>
      <point x="378" y="522" type="line"/>
      <point x="415" y="714" type="line"/>
      <point x="336" y="714" type="line"/>
      <point x="299" y="522" type="line"/>
      <point x="231" y="522" type="line"/>
      <point x="266" y="714" type="line"/>
      <point x="186" y="714" type="line"/>
      <point x="152" y="522" type="line"/>
      <point x="46" y="522" type="line"/>
      <point x="46" y="444" type="line"/>
      <point x="137" y="444" type="line"/>
      <point x="104" y="274" type="line"/>
      <point x="14" y="274" type="line"/>
      <point x="14" y="198" type="line"/>
      <point x="90" y="198" type="line"/>
    </contour>
    <contour>
      <point x="183" y="274" type="line"/>
      <point x="217" y="444" type="line"/>
      <point x="286" y="444" type="line"/>
      <point x="253" y="274" type="line"/>
    </contour>
  </outline>
</glyph>
<glyph name="percent" format="2">
  <advance width="761"/>
  <unicode hex="0025"/>
  <outline>
    <contour>
      <point x="204" y="0" type="line"/>
      <point x="276" y="0" type="line"/>
      <point x="555" y="714" type="line"/>
      <point x="483" y="714" type="line"/>
    </contour>
    <contour>
      <point x="181" y="280" type="curve" smooth="yes"/>
      <point x="290" y="280"/>
      <point x="342" y="369"/>
      <point x="342" y="503" type="curve" smooth="yes"/>
      <point x="342" y="637"/>
      <point x="290" y="724"/>
      <point x="182" y="724" type="curve" smooth="yes"/>
      <point x="68" y="724"/>
      <point x="21" y="637"/>
      <point x="21" y="503" type="curve" smooth="yes"/>
      <point x="21" y="369"/>
      <point x="68" y="280"/>
    </contour>
    <contour>
      <point x="182" y="332" type="curve" smooth="yes"/>
      <point x="144" y="332"/>
      <point x="130" y="394"/>
      <point x="130" y="503" type="curve" smooth="yes"/>
      <point x="130" y="610"/>
      <point x="144" y="671"/>
      <point x="182" y="671" type="curve" smooth="yes"/>
      <point x="220" y="671"/>
      <point x="232" y="610"/>
      <point x="232" y="503" type="curve" smooth="yes"/>
      <point x="232" y="394"/>
      <point x="220" y="332"/>
    </contour>
    <contour>
      <point x="580" y="-10" type="curve" smooth="yes"/>
      <point x="688" y="-10"/>
      <point x="740" y="79"/>
      <point x="740" y="213" type="curve" smooth="yes"/>
      <point x="740" y="347"/>
      <point x="688" y="434"/>
      <point x="581" y="434" type="curve" smooth="yes"/>
      <point x="467" y="434"/>
      <point x="420" y="347"/>
      <point x="420" y="213" type="curve" smooth="yes"/>
      <point x="420" y="79"/>
      <point x="467" y="-10"/>
    </contour>
    <contour>
      <point x="580" y="42" type="curve" smooth="yes"/>
      <point x="543" y="42"/>
      <point x="529" y="104"/>
      <point x="529" y="213" type="curve" smooth="yes"/>
      <point x="529" y="320"/>
      <point x="543" y="381"/>
      <point x="581" y="381" type="curve" smooth="yes"/>
      <point x="618" y="381"/>
      <point x="631" y="320"/>
      <point x="631" y="213" type="curve" smooth="yes"/>
      <point x="631" y="104"/>
      <point x="618" y="42"/>
    </contour>
  </outline>
</glyph>
<glyph name="quotesingle" format="2">
  <advance width="286"/>
  <unicode hex="0027"/>
  <outline>
    <contour>
      <point x="109" y="429" type="line"/>
      <point x="176" y="429" type="line"/>
      <point x="223" y="714" type="line"/>
      <point x="62" y="714" type="line"/>
    </contour>
  </outline>
</glyph>
<glyph name="parenleft" format="2">
  <advance width="367"/>
  <unicode hex="0028"/>
  <outline>
    <contour>
      <point x="341" y="-142" type="curve"/>
      <point x="341" y="-73" type="line"/>
      <point x="245" y="8"/>
      <point x="217" y="159"/>
      <point x="217" y="318" type="curve" smooth="yes"/>
      <point x="217" y="476"/>
      <point x="245" y="625"/>
      <point x="341" y="708" type="curve"/>
      <point x="341" y="775" type="line"/>
      <point x="130" y="682"/>
      <point x="47" y="526"/>
      <point x="47" y="318" type="curve" smooth="yes"/>
      <point x="47" y="109"/>
      <point x="130" y="-48"/>
    </contour>
  </outline>
</glyph>
<glyph name="parenright" format="2">
  <advance width="367"/>
  <unicode hex="0029"/>
  <outline>
    <contour>
      <point x="26" y="-142" type="line"/>
      <point x="237" y="-48"/>
      <point x="320" y="109"/>
      <point x="320" y="318" type="curve" smooth="yes"/>
      <point x="320" y="526"/>
      <point x="237" y="682"/>
      <point x="26" y="775" type="curve"/>
      <point x="26" y="708" type="line"/>
      <point x="121" y="625"/>
      <point x="150" y="476"/>
      <point x="150" y="318" type="curve" smooth="yes"/>
      <point x="150" y="159"/>
      <point x="121" y="8"/>
      <point x="26" y="-73" type="curve"/>
    </contour>
  </outline>
</glyph>
<glyph name="plus" format="2">
  <advance width="425"/>
  <unicode hex="002B"/>
  <outline>
    <contour>
      <point x="174" y="143" type="line"/>
      <point x="251" y="143" type="line"/>
      <point x="251" y="321" type="line"/>
      <point x="391" y="321" type="line"/>
      <point x="391" y="394" type="line"/>
      <point x="251" y="394" type="line"/>
      <point x="251" y="572" type="line"/>
      <point x="174" y="572" type="line"/>
      <point x="174" y="394" type="line"/>
      <point x="34" y="394" type="line"/>
      <point x="34" y="321" type="line"/>
      <point x="174" y="321" type="line"/>
    </contour>
  </outline>
</glyph>
<glyph name="comma" format="2">
  <advance width="273"/>
  <unicode hex="002C"/>
  <outline>
    <contour>
      <point x="47" y="-154" type="line"/>
      <point x="162" y="-120"/>
      <point x="205" y="-45"/>
      <point x="205" y="38" type="curve" smooth="yes"/>
      <point x="205" y="110"/>
      <point x="180" y="156"/>
      <point x="125" y="156" type="curve" smooth="yes"/>
      <point x="87" y="156"/>
      <point x="55" y="131"/>
      <point x="55" y="86" type="curve" smooth="yes"/>
      <point x="55" y="2"/>
      <point x="116" y="11"/>
      <point x="116" y="-25" type="curve" smooth="yes"/>
      <point x="116" y="-61"/>
      <point x="91" y="-80"/>
      <point x="47" y="-100" type="curve"/>
    </contour>
  </outline>
</glyph>
<glyph name="slash" format="2">
  <advance width="240"/>
  <unicode hex="002F"/>
  <outline>
    <contour>
      <point x="0" y="-121" type="line"/>
      <point x="69" y="-121" type="line"/>
      <point x="240" y="760" type="line"/>
      <point x="174" y="760" type="line"/>
    </contour>
  </outline>
</glyph>
<glyph name="three" format="2">
  <advance width="466"/>
  <unicode hex="0033"/>
  <outline>
    <contour>
      <point x="202" y="-10" type="curve" smooth="yes"/>
      <point x="332" y="-10"/>
      <point x="443" y="43"/>
      <point x="443" y="204" type="curve" smooth="yes"/>
      <point x="443" y="313"/>
      <point x="370" y="363"/>
      <point x="299" y="380" type="curve"/>
      <point x="368" y="411"/>
      <point x="422" y="468"/>
      <point x="422" y="558" type="curve" smooth="yes"/>
      <point x="422" y="664"/>
      <point x="345" y="724"/>
      <point x="216" y="724" type="curve" smooth="yes"/>
      <point x="85" y="724"/>
      <point x="24" y="657"/>
      <point x="24" y="589" type="curve" smooth="yes"/>
      <point x="24" y="527"/>
      <point x="71" y="504"/>
      <point x="143" y="504" type="curve"/>
      <point x="143" y="583"/>
      <point x="161" y="660"/>
      <point x="209" y="660" type="curve" smooth="yes"/>
      <point x="241" y="660"/>
      <point x="264" y="616"/>
      <point x="264" y="546" type="curve" smooth="yes"/>
      <point x="264" y="460"/>
      <point x="247" y="402"/>
      <point x="176" y="402" type="curve"/>
      <point x="109" y="402" type="line"/>
      <point x="109" y="338" type="line"/>
      <point x="171" y="338" type="line" smooth="yes"/>
      <point x="246" y="338"/>
      <point x="284" y="282"/>
      <point x="284" y="205" type="curve" smooth="yes"/>
      <point x="284" y="94"/>
      <point x="243" y="64"/>
      <point x="197" y="64" type="curve" smooth="yes"/>
      <point x="142" y="64"/>
      <point x="98" y="113"/>
      <point x="98" y="202" type="curve"/>
      <point x="54" y="202"/>
      <point x="13" y="175"/>
      <point x="13" y="121" type="curve" smooth="yes"/>
      <point x="13" y="46"/>
      <point x="64" y="-10"/>
    </contour>
  </outline>
</glyph>
<glyph name="four" format="2">
  <advance width="466"/>
  <unicode hex="0034"/>
  <outline>
    <contour>
      <point x="128" y="0" type="line"/>
      <point x="452" y="0" type="line"/>
      <point x="452" y="56" type="line"/>
      <point x="441" y="56" type="line" smooth="yes"/>
      <point x="404" y="56"/>
      <point x="373" y="65"/>
      <point x="373" y="128" type="curve" smooth="yes"/>
      <point x="373" y="184" type="line"/>
      <point x="447" y="184" type="line"/>
      <point x="447" y="252" type="line"/>
      <point x="373" y="252" type="line"/>
      <point x="373" y="714" type="line"/>
      <point x="224" y="714" type="line"/>
      <point x="9" y="249" type="line"/>
      <point x="9" y="184" type="line"/>
      <point x="220" y="184" type="line"/>
      <point x="220" y="128" type="line" smooth="yes"/>
      <point x="220" y="65"/>
      <point x="189" y="56"/>
      <point x="152" y="56" type="curve" smooth="yes"/>
      <point x="128" y="56" type="line"/>
    </contour>
    <contour>
      <point x="78" y="252" type="line"/>
      <point x="167" y="450" type="line" smooth="yes"/>
      <point x="188" y="498"/>
      <point x="209" y="553"/>
      <point x="226" y="603" type="curve"/>
      <point x="221" y="541"/>
      <point x="220" y="493"/>
      <point x="220" y="435" type="curve" smooth="yes"/>
      <point x="220" y="252" type="line"/>
    </contour>
  </outline>
</glyph>
<glyph name="six" format="2">
  <advance width="466"/>
  <unicode hex="0036"/>
  <outline>
    <contour>
      <point x="244" y="-10" type="curve" smooth="yes"/>
      <point x="381" y="-10"/>
      <point x="447" y="88"/>
      <point x="447" y="231" type="curve" smooth="yes"/>
      <point x="447" y="362"/>
      <point x="381" y="439"/>
      <point x="280" y="439" type="curve" smooth="yes"/>
      <point x="222" y="439"/>
      <point x="195" y="420"/>
      <point x="174" y="404" type="curve"/>
      <point x="182" y="567"/>
      <point x="208" y="662"/>
      <point x="260" y="662" type="curve" smooth="yes"/>
      <point x="297" y="662"/>
      <point x="317" y="602"/>
      <point x="317" y="530" type="curve"/>
      <point x="401" y="530"/>
      <point x="430" y="566"/>
      <point x="430" y="612" type="curve" smooth="yes"/>
      <point x="430" y="671"/>
      <point x="384" y="724"/>
      <point x="265" y="724" type="curve" smooth="yes"/>
      <point x="107" y="724"/>
      <point x="27" y="584"/>
      <point x="27" y="332" type="curve" smooth="yes"/>
      <point x="27" y="97"/>
      <point x="112" y="-10"/>
    </contour>
    <contour>
      <point x="247" y="58" type="curve" smooth="yes"/>
      <point x="208" y="58"/>
      <point x="176" y="152"/>
      <point x="175" y="340" type="curve"/>
      <point x="189" y="353"/>
      <point x="209" y="372"/>
      <point x="239" y="372" type="curve" smooth="yes"/>
      <point x="274" y="372"/>
      <point x="299" y="328"/>
      <point x="299" y="221" type="curve" smooth="yes"/>
      <point x="299" y="108"/>
      <point x="277" y="58"/>
    </contour>
  </outline>
</glyph>
<glyph name="seven" format="2">
  <advance width="466"/>
  <unicode hex="0037"/>
  <outline>
    <contour>
      <point x="118" y="0" type="line"/>
      <point x="211" y="0" type="line"/>
      <point x="435" y="660" type="line"/>
      <point x="435" y="714" type="line"/>
      <point x="39" y="714" type="line"/>
      <point x="34" y="496" type="line"/>
      <point x="95" y="496" type="line"/>
      <point x="102" y="545" type="line" smooth="yes"/>
      <point x="107" y="580"/>
      <point x="120" y="597"/>
      <point x="150" y="597" type="curve" smooth="yes"/>
      <point x="349" y="597" type="line"/>
    </contour>
  </outline>
</glyph>
<glyph name="eight" format="2">
  <advance width="466"/>
  <unicode hex="0038"/>
  <outline>
    <contour>
      <point x="228" y="-10" type="curve" smooth="yes"/>
      <point x="371" y="-10"/>
      <point x="451" y="69"/>
      <point x="451" y="185" type="curve" smooth="yes"/>
      <point x="451" y="284"/>
      <point x="416" y="335"/>
      <point x="320" y="390" type="curve"/>
      <point x="389" y="426"/>
      <point x="430" y="472"/>
      <point x="430" y="560" type="curve" smooth="yes"/>
      <point x="430" y="651"/>
      <point x="367" y="724"/>
      <point x="239" y="724" type="curve" smooth="yes"/>
      <point x="91" y="724"/>
      <point x="34" y="642"/>
      <point x="34" y="542" type="curve" smooth="yes"/>
      <point x="34" y="452"/>
      <point x="76" y="403"/>
      <point x="142" y="361" type="curve"/>
      <point x="70" y="330"/>
      <point x="15" y="278"/>
      <point x="15" y="174" type="curve" smooth="yes"/>
      <point x="15" y="75"/>
      <point x="77" y="-10"/>
    </contour>
    <contour>
      <point x="232" y="52" type="curve" smooth="yes"/>
      <point x="188" y="52"/>
      <point x="151" y="94"/>
      <point x="151" y="183" type="curve" smooth="yes"/>
      <point x="151" y="248"/>
      <point x="168" y="293"/>
      <point x="196" y="324" type="curve"/>
      <point x="260" y="280"/>
      <point x="299" y="231"/>
      <point x="299" y="166" type="curve" smooth="yes"/>
      <point x="299" y="93"/>
      <point x="272" y="52"/>
    </contour>
    <contour>
      <point x="258" y="423" type="curve"/>
      <point x="212" y="452"/>
      <point x="181" y="491"/>
      <point x="181" y="561" type="curve" smooth="yes"/>
      <point x="181" y="624"/>
      <point x="200" y="662"/>
      <point x="236" y="662" type="curve" smooth="yes"/>
      <point x="274" y="662"/>
      <point x="297" y="616"/>
      <point x="297" y="556" type="curve" smooth="yes"/>
      <point x="297" y="486"/>
      <point x="279" y="447"/>
    </contour>
  </outline>
</glyph>
<glyph name="nine" format="2">
  <advance width="466"/>
  <unicode hex="0039"/>
  <outline>
    <contour>
      <point x="189" y="-10" type="curve"/>
      <point x="367" y="-10"/>
      <point x="439" y="159"/>
      <point x="439" y="388" type="curve"/>
      <point x="439" y="633"/>
      <point x="346" y="724"/>
      <point x="219" y="724" type="curve" smooth="yes"/>
      <point x="94" y="724"/>
      <point x="19" y="628"/>
      <point x="19" y="485" type="curve" smooth="yes"/>
      <point x="19" y="351"/>
      <point x="87" y="277"/>
      <point x="181" y="277" type="curve" smooth="yes"/>
      <point x="239" y="277"/>
      <point x="270" y="299"/>
      <point x="297" y="335" type="curve"/>
      <point x="291" y="153"/>
      <point x="257" y="56"/>
      <point x="196" y="56" type="curve" smooth="yes"/>
      <point x="137" y="56"/>
      <point x="117" y="110"/>
      <point x="100" y="175" type="curve"/>
      <point x="56" y="167"/>
      <point x="41" y="134"/>
      <point x="41" y="104" type="curve" smooth="yes"/>
      <point x="41" y="43"/>
      <point x="83" y="-10"/>
    </contour>
    <contour>
      <point x="231" y="350" type="curve" smooth="yes"/>
      <point x="189" y="350"/>
      <point x="166" y="403"/>
      <point x="166" y="488" type="curve" smooth="yes"/>
      <point x="166" y="599"/>
      <point x="189" y="655"/>
      <point x="228" y="655" type="curve" smooth="yes"/>
      <point x="271" y="655"/>
      <point x="296" y="590"/>
      <point x="297" y="400" type="curve"/>
      <point x="278" y="369"/>
      <point x="255" y="350"/>
    </contour>
  </outline>
</glyph>
<glyph name="colon" format="2">
  <advance width="265"/>
  <unicode hex="003A"/>
  <outline>
    <contour>
      <point x="132" y="380" type="curve" smooth="yes"/>
      <point x="174" y="380"/>
      <point x="212" y="400"/>
      <point x="212" y="462" type="curve" smooth="yes"/>
      <point x="212" y="524"/>
      <point x="174" y="544"/>
      <point x="132" y="544" type="curve" smooth="yes"/>
      <point x="87" y="544"/>
      <point x="52" y="524"/>
      <point x="52" y="462" type="curve" smooth="yes"/>
      <point x="52" y="400"/>
      <point x="87" y="380"/>
    </contour>
    <contour>
      <point x="132" y="-8" type="curve" smooth="yes"/>
      <point x="174" y="-8"/>
      <point x="212" y="12"/>
      <point x="212" y="74" type="curve" smooth="yes"/>
      <point x="212" y="136"/>
      <point x="174" y="156"/>
      <point x="132" y="156" type="curve" smooth="yes"/>
      <point x="87" y="156"/>
      <point x="52" y="136"/>
      <point x="52" y="74" type="curve" smooth="yes"/>
      <point x="52" y="12"/>
      <point x="87" y="-8"/>
    </contour>
  </outline>
</glyph>
<glyph name="semicolon" format="2">
  <advance width="265"/>
  <unicode hex="003B"/>
  <outline>
    <contour>
      <point x="48" y="-154" type="line"/>
      <point x="164" y="-120"/>
      <point x="207" y="-45"/>
      <point x="207" y="38" type="curve" smooth="yes"/>
      <point x="207" y="110"/>
      <point x="182" y="156"/>
      <point x="126" y="156" type="curve" smooth="yes"/>
      <point x="89" y="156"/>
      <point x="57" y="131"/>
      <point x="57" y="86" type="curve" smooth="yes"/>
      <point x="57" y="2"/>
      <point x="118" y="11"/>
      <point x="118" y="-25" type="curve" smooth="yes"/>
      <point x="118" y="-63"/>
      <point x="93" y="-80"/>
      <point x="48" y="-100" type="curve"/>
    </contour>
    <contour>
      <point x="132" y="380" type="curve" smooth="yes"/>
      <point x="175" y="380"/>
      <point x="212" y="400"/>
      <point x="212" y="462" type="curve" smooth="yes"/>
      <point x="212" y="524"/>
      <point x="175" y="544"/>
      <point x="132" y="544" type="curve" smooth="yes"/>
      <point x="87" y="544"/>
      <point x="52" y="524"/>
      <point x="52" y="462" type="curve" smooth="yes"/>
      <point x="52" y="400"/>
      <point x="87" y="380"/>
    </contour>
  </outline>
</glyph>
<glyph name="less" format="2">
  <advance width="425"/>
  <unicode hex="003C"/>
  <outline>
    <contour>
      <point x="391" y="103" type="line"/>
      <point x="391" y="186" type="line"/>
      <point x="131" y="357" type="line"/>
      <point x="391" y="530" type="line"/>
      <point x="391" y="613" type="line"/>
      <point x="34" y="379" type="line"/>
      <point x="34" y="336" type="line"/>
    </contour>
  </outline>
</glyph>
<glyph name="equal" format="2">
  <advance width="425"/>
  <unicode hex="003D"/>
  <outline>
    <contour>
      <point x="31" y="408" type="line"/>
      <point x="394" y="408" type="line"/>
      <point x="394" y="481" type="line"/>
      <point x="31" y="481" type="line"/>
    </contour>
    <contour>
      <point x="31" y="233" type="line"/>
      <point x="394" y="233" type="line"/>
      <point x="394" y="306" type="line"/>
      <point x="31" y="306" type="line"/>
    </contour>
  </outline>
</glyph>
<glyph name="greater" format="2">
  <advance width="425"/>
  <unicode hex="003E"/>
  <outline>
    <contour>
      <point x="34" y="103" type="line"/>
      <point x="391" y="336" type="line"/>
      <point x="391" y="379" type="line"/>
      <point x="34" y="613" type="line"/>
      <point x="34" y="530" type="line"/>
      <point x="293" y="357" type="line"/>
      <point x="34" y="186" type="line"/>
    </contour>
  </outline>
</glyph>
<glyph name="bracketright" format="2">
  <advance width="379"/>
  <unicode hex="005D"/>
  <outline>
    <contour>
      <point x="31" y="-128" type="line"/>
      <point x="296" y="-128" type="line"/>
      <point x="296" y="760" type="line"/>
      <point x="31" y="760" type="line"/>
      <point x="31" y="704" type="line"/>
      <point x="67" y="704" type="line" smooth="yes"/>
      <point x="105" y="704"/>
      <point x="135" y="695"/>
      <point x="135" y="632" type="curve" smooth="yes"/>
      <point x="135" y="0" type="line" smooth="yes"/>
      <point x="135" y="-63"/>
      <point x="105" y="-72"/>
      <point x="67" y="-72" type="curve" smooth="yes"/>
      <point x="31" y="-72" type="line"/>
    </contour>
  </outline>
</glyph>
<glyph name="asciicircum" format="2">
  <advance width="425"/>
  <unicode hex="005E"/>
  <outline>
    <contour>
      <point x="15" y="261" type="line"/>
      <point x="86" y="261" type="line"/>
      <point x="211" y="600" type="line"/>
      <point x="337" y="261" type="line"/>
      <point x="409" y="261" type="line"/>
      <point x="232" y="714" type="line"/>
      <point x="191" y="714" type="line"/>
    </contour>
  </outline>
</glyph>
<glyph name="braceleft" format="2">
  <advance width="376"/>
  <unicode hex="007B"/>
  <outline>
    <contour>
      <point x="267" y="-124" type="curve" smooth="yes"/>
      <point x="364" y="-124" type="line"/>
      <point x="364" y="-68" type="line"/>
      <point x="326" y="-68" type="line" smooth="yes"/>
      <point x="280" y="-68"/>
      <point x="273" y="-34"/>
      <point x="273" y="27" type="curve" smooth="yes"/>
      <point x="273" y="198" type="line" smooth="yes"/>
      <point x="273" y="257"/>
      <point x="246" y="294"/>
      <point x="183" y="315" type="curve"/>
      <point x="183" y="325" type="line"/>
      <point x="249" y="344"/>
      <point x="273" y="381"/>
      <point x="273" y="440" type="curve" smooth="yes"/>
      <point x="273" y="610" type="line" smooth="yes"/>
      <point x="273" y="671"/>
      <point x="280" y="705"/>
      <point x="326" y="705" type="curve" smooth="yes"/>
      <point x="364" y="705" type="line"/>
      <point x="364" y="760" type="line"/>
      <point x="267" y="760" type="line" smooth="yes"/>
      <point x="162" y="760"/>
      <point x="108" y="707"/>
      <point x="108" y="613" type="curve" smooth="yes"/>
      <point x="108" y="442" type="line" smooth="yes"/>
      <point x="108" y="369"/>
      <point x="66" y="354"/>
      <point x="12" y="352" type="curve"/>
      <point x="12" y="286" type="line"/>
      <point x="66" y="283"/>
      <point x="108" y="270"/>
      <point x="108" y="195" type="curve" smooth="yes"/>
      <point x="108" y="25" type="line" smooth="yes"/>
      <point x="108" y="-67"/>
      <point x="162" y="-124"/>
    </contour>
  </outline>
</glyph>
<glyph name="bar" format="2">
  <advance width="466"/>
  <unicode hex="007C"/>
  <outline>
    <contour>
      <point x="199" y="-240" type="line"/>
      <point x="267" y="-240" type="line"/>
      <point x="267" y="760" type="line"/>
      <point x="199" y="760" type="line"/>
    </contour>
  </outline>
</glyph>
<glyph name="braceright" format="2">
  <advance width="376"/>
  <unicode hex="007D"/>
  <outline>
    <contour>
      <point x="12" y="-124" type="line"/>
      <point x="109" y="-124" type="line" smooth="yes"/>
      <point x="215" y="-124"/>
      <point x="268" y="-67"/>
      <point x="268" y="25" type="curve" smooth="yes"/>
      <point x="268" y="195" type="line" smooth="yes"/>
      <point x="268" y="270"/>
      <point x="311" y="283"/>
      <point x="364" y="286" type="curve"/>
      <point x="364" y="352" type="line"/>
      <point x="311" y="354"/>
      <point x="268" y="369"/>
      <point x="268" y="442" type="curve" smooth="yes"/>
      <point x="268" y="613" type="line" smooth="yes"/>
      <point x="268" y="707"/>
      <point x="215" y="760"/>
      <point x="109" y="760" type="curve" smooth="yes"/>
      <point x="12" y="760" type="line"/>
      <point x="12" y="705" type="line"/>
      <point x="51" y="705" type="line" smooth="yes"/>
      <point x="96" y="705"/>
      <point x="103" y="671"/>
      <point x="103" y="610" type="curve" smooth="yes"/>
      <point x="103" y="440" type="line" smooth="yes"/>
      <point x="103" y="381"/>
      <point x="128" y="344"/>
      <point x="194" y="325" type="curve"/>
      <point x="194" y="315" type="line"/>
      <point x="130" y="294"/>
      <point x="103" y="257"/>
      <point x="103" y="198" type="curve" smooth="yes"/>
      <point x="103" y="27" type="line" smooth="yes"/>
      <point x="103" y="-34"/>
      <point x="96" y="-68"/>
      <point x="51" y="-68" type="curve" smooth="yes"/>
      <point x="12" y="-68" type="line"/>
    </contour>
  </outline>
</glyph>
<glyph name="asciitilde" format="2">
  <advance width="425"/>
  <unicode hex="007E"/>
  <outline>
    <contour>
      <point x="10" y="260" type="curve"/>
      <point x="83" y="260" type="line"/>
      <point x="83" y="344"/>
      <point x="99" y="376"/>
      <point x="129" y="376" type="curve" smooth="yes"/>
      <point x="147" y="376"/>
      <point x="158" y="365"/>
      <point x="193" y="325" type="curve" smooth="yes"/>
      <point x="242" y="270"/>
      <point x="268" y="260"/>
      <point x="299" y="260" type="curve" smooth="yes"/>
      <point x="389" y="260"/>
      <point x="416" y="347"/>
      <point x="416" y="453" type="curve"/>
      <point x="343" y="453" type="line"/>
      <point x="343" y="367"/>
      <point x="327" y="337"/>
      <point x="298" y="337" type="curve" smooth="yes"/>
      <point x="278" y="337"/>
      <point x="269" y="352"/>
      <point x="238" y="385" type="curve" smooth="yes"/>
      <point x="189" y="437"/>
      <point x="162" y="453"/>
      <point x="125" y="453" type="curve" smooth="yes"/>
      <point x="38" y="453"/>
      <point x="10" y="366"/>
    </contour>
  </outline>
</glyph>
<glyph name="threesuperior" format="2">
  <advance width="333"/>
  <unicode hex="00B3"/>
  <outline>
    <contour>
      <point x="147" y="380" type="curve" smooth="yes"/>
      <point x="262" y="380"/>
      <point x="316" y="431"/>
      <point x="316" y="510" type="curve" smooth="yes"/>
      <point x="316" y="577"/>
      <point x="267" y="603"/>
      <point x="217" y="612" type="curve"/>
      <point x="217" y="616" type="line"/>
      <point x="262" y="630"/>
      <point x="302" y="663"/>
      <point x="302" y="722" type="curve" smooth="yes"/>
      <point x="302" y="784"/>
      <point x="263" y="824"/>
      <point x="163" y="824" type="curve" smooth="yes"/>
      <point x="65" y="824"/>
      <point x="25" y="785"/>
      <point x="25" y="737" type="curve" smooth="yes"/>
      <point x="25" y="703"/>
      <point x="53" y="690"/>
      <point x="107" y="690" type="curve"/>
      <point x="107" y="738"/>
      <point x="110" y="775"/>
      <point x="146" y="775" type="curve" smooth="yes"/>
      <point x="170" y="775"/>
      <point x="184" y="753"/>
      <point x="184" y="715" type="curve" smooth="yes"/>
      <point x="184" y="665"/>
      <point x="166" y="635"/>
      <point x="124" y="635" type="curve" smooth="yes"/>
      <point x="93" y="635" type="line"/>
      <point x="93" y="582" type="line"/>
      <point x="124" y="582" type="line" smooth="yes"/>
      <point x="177" y="582"/>
      <point x="194" y="554"/>
      <point x="194" y="513" type="curve" smooth="yes"/>
      <point x="194" y="455"/>
      <point x="168" y="436"/>
      <point x="136" y="436" type="curve" smooth="yes"/>
      <point x="99" y="436"/>
      <point x="81" y="469"/>
      <point x="81" y="520" type="curve"/>
      <point x="35" y="520"/>
      <point x="12" y="502"/>
      <point x="12" y="469" type="curve" smooth="yes"/>
      <point x="12" y="420"/>
      <point x="52" y="380"/>
    </contour>
  </outline>
</glyph>
<glyph name="multiply" format="2">
  <advance width="425"/>
  <unicode hex="00D7"/>
  <outline>
    <contour>
      <point x="91" y="163" type="line"/>
      <point x="211" y="304" type="line"/>
      <point x="329" y="166" type="line"/>
      <point x="383" y="213" type="line"/>
      <point x="258" y="360" type="line"/>
      <point x="383" y="506" type="line"/>
      <point x="328" y="552" type="line"/>
      <point x="211" y="415" type="line"/>
      <point x="92" y="555" type="line"/>
      <point x="37" y="509" type="line"/>
      <point x="164" y="360" type="line"/>
      <point x="37" y="210" type="line"/>
    </contour>
  </outline>
</glyph>
<glyph name="divide" format="2">
  <advance width="425"/>
  <unicode hex="00F7"/>
  <outline>
    <contour>
      <point x="34" y="321" type="line"/>
      <point x="391" y="321" type="line"/>
      <point x="391" y="394" type="line"/>
      <point x="34" y="394" type="line"/>
    </contour>
    <contour>
      <point x="213" y="106" type="curve" smooth="yes"/>
      <point x="241" y="106"/>
      <point x="264" y="122"/>
      <point x="264" y="168" type="curve" smooth="yes"/>
      <point x="264" y="215"/>
      <point x="241" y="230"/>
      <point x="213" y="230" type="curve" smooth="yes"/>
      <point x="182" y="230"/>
      <point x="161" y="215"/>
      <point x="161" y="168" type="curve" smooth="yes"/>
      <point x="161" y="122"/>
      <point x="182" y="106"/>
    </contour>
    <contour>
      <point x="213" y="485" type="curve" smooth="yes"/>
      <point x="241" y="485"/>
      <point x="264" y="501"/>
      <point x="264" y="547" type="curve" smooth="yes"/>
      <point x="264" y="594"/>
      <point x="241" y="609"/>
      <point x="213" y="609" type="curve" smooth="yes"/>
      <point x="182" y="609"/>
      <point x="161" y="594"/>
      <point x="161" y="547" type="curve" smooth="yes"/>
      <point x="161" y="501"/>
      <point x="182" y="485"/>
    </contour>
  </outline>
</glyph>
<glyph name="dbldanda-deva" format="2">
  <advance width="547"/>
  <unicode hex="0965"/>
  <outline>
    <contour>
      <point x="312" y="0" type="line"/>
      <point x="489" y="0" type="line"/>
      <point x="489" y="576" type="line"/>
      <point x="312" y="576" type="line"/>
    </contour>
    <contour>
      <point x="59" y="0" type="line"/>
      <point x="236" y="0" type="line"/>
      <point x="236" y="576" type="line"/>
      <point x="59" y="576" type="line"/>
    </contour>
  </outline>
</glyph>
<glyph name="anusvara-tamil" format="2">
  <unicode hex="0B82"/>
  <note>
uni0B82
</note>
  <anchor x="0" y="576" name="_top"/>
  <outline>
    <contour>
      <point x="0" y="624" type="curve" smooth="yes"/>
      <point x="79" y="624"/>
      <point x="143" y="686"/>
      <point x="143" y="768" type="curve" smooth="yes"/>
      <point x="143" y="849"/>
      <point x="79" y="910"/>
      <point x="0" y="910" type="curve" smooth="yes"/>
      <point x="-79" y="910"/>
      <point x="-143" y="849"/>
      <point x="-143" y="768" type="curve" smooth="yes"/>
      <point x="-143" y="686"/>
      <point x="-79" y="624"/>
    </contour>
    <contour>
      <point x="0" y="709" type="curve" smooth="yes"/>
      <point x="-30" y="709"/>
      <point x="-57" y="735"/>
      <point x="-57" y="767" type="curve" smooth="yes"/>
      <point x="-57" y="799"/>
      <point x="-30" y="825"/>
      <point x="0" y="825" type="curve" smooth="yes"/>
      <point x="30" y="825"/>
      <point x="57" y="799"/>
      <point x="57" y="767" type="curve" smooth="yes"/>
      <point x="57" y="735"/>
      <point x="30" y="709"/>
    </contour>
  </outline>
</glyph>
<glyph name="visarga-tamil" format="2">
  <advance width="736"/>
  <unicode hex="0B83"/>
  <note>
uni0B83
</note>
  <outline>
    <contour>
      <point x="545" y="-5" type="curve" smooth="yes"/>
      <point x="636" y="-5"/>
      <point x="697" y="60"/>
      <point x="697" y="186" type="curve" smooth="yes"/>
      <point x="697" y="313"/>
      <point x="635" y="377"/>
      <point x="548" y="377" type="curve" smooth="yes"/>
      <point x="453" y="377"/>
      <point x="400" y="302"/>
      <point x="400" y="182" type="curve" smooth="yes"/>
      <point x="400" y="68"/>
      <point x="449" y="-5"/>
    </contour>
    <contour>
      <point x="184" y="-5" type="curve" smooth="yes"/>
      <point x="274" y="-5"/>
      <point x="335" y="60"/>
      <point x="335" y="186" type="curve" smooth="yes"/>
      <point x="335" y="313"/>
      <point x="273" y="377"/>
      <point x="187" y="377" type="curve" smooth="yes"/>
      <point x="91" y="377"/>
      <point x="39" y="302"/>
      <point x="39" y="182" type="curve" smooth="yes"/>
      <point x="39" y="68"/>
      <point x="87" y="-5"/>
    </contour>
    <contour>
      <point x="368" y="439" type="curve" smooth="yes"/>
      <point x="458" y="439"/>
      <point x="519" y="504"/>
      <point x="519" y="630" type="curve" smooth="yes"/>
      <point x="519" y="758"/>
      <point x="457" y="821"/>
      <point x="370" y="821" type="curve" smooth="yes"/>
      <point x="275" y="821"/>
      <point x="223" y="746"/>
      <point x="223" y="626" type="curve" smooth="yes"/>
      <point x="223" y="513"/>
      <point x="271" y="439"/>
    </contour>
    <contour>
      <point x="158" y="72" type="curve" smooth="yes"/>
      <point x="119" y="72"/>
      <point x="105" y="113"/>
      <point x="105" y="186" type="curve" smooth="yes"/>
      <point x="105" y="259"/>
      <point x="120" y="300"/>
      <point x="160" y="300" type="curve" smooth="yes"/>
      <point x="194" y="300"/>
      <point x="211" y="265"/>
      <point x="211" y="186" type="curve" smooth="yes"/>
      <point x="211" y="106"/>
      <point x="193" y="72"/>
    </contour>
    <contour>
      <point x="341" y="517" type="curve" smooth="yes"/>
      <point x="303" y="517"/>
      <point x="289" y="557"/>
      <point x="289" y="630" type="curve" smooth="yes"/>
      <point x="289" y="703"/>
      <point x="304" y="745"/>
      <point x="343" y="745" type="curve" smooth="yes"/>
      <point x="377" y="745"/>
      <point x="395" y="709"/>
      <point x="395" y="630" type="curve" smooth="yes"/>
      <point x="395" y="550"/>
      <point x="376" y="517"/>
    </contour>
    <contour>
      <point x="519" y="72" type="curve" smooth="yes"/>
      <point x="480" y="72"/>
      <point x="467" y="113"/>
      <point x="467" y="186" type="curve" smooth="yes"/>
      <point x="467" y="259"/>
      <point x="481" y="300"/>
      <point x="521" y="300" type="curve" smooth="yes"/>
      <point x="555" y="300"/>
      <point x="572" y="265"/>
      <point x="572" y="186" type="curve" smooth="yes"/>
      <point x="572" y="106"/>
      <point x="554" y="72"/>
    </contour>
  </outline>
</glyph>
<glyph name="aa-tamil" format="2">
  <advance width="1391"/>
  <unicode hex="0B86"/>
  <note>
uni0B86
</note>
  <anchor x="707" y="0" name="bottom"/>
  <anchor x="372" y="-156" name="nukta"/>
  <anchor x="704" y="576" name="top"/>
  <anchor x="705" y="576" name="vedic"/>
  <outline>
    <contour>
      <point x="921" y="-407" type="curve" smooth="yes"/>
      <point x="1162" y="-407"/>
      <point x="1378" y="-293"/>
      <point x="1378" y="-56" type="curve" smooth="yes"/>
      <point x="1378" y="56"/>
      <point x="1323" y="120"/>
      <point x="1236" y="120" type="curve" smooth="yes"/>
      <point x="1143" y="120"/>
      <point x="1086" y="52"/>
      <point x="1074" y="-81" type="curve"/>
      <point x="1103" y="-88" type="line"/>
      <point x="1101" y="-33"/>
      <point x="1125" y="-8"/>
      <point x="1158" y="-8" type="curve" smooth="yes"/>
      <point x="1189" y="-8"/>
      <point x="1208" y="-33"/>
      <point x="1208" y="-78" type="curve" smooth="yes"/>
      <point x="1208" y="-252"/>
      <point x="1090" y="-340"/>
      <point x="912" y="-340" type="curve" smooth="yes"/>
      <point x="828" y="-340"/>
      <point x="749" y="-317"/>
      <point x="749" y="-262" type="curve" smooth="yes"/>
      <point x="749" y="-220"/>
      <point x="776" y="-203"/>
      <point x="830" y="-191" type="curve"/>
      <point x="816" y="-128" type="line"/>
      <point x="724" y="-149"/>
      <point x="678" y="-188"/>
      <point x="678" y="-259" type="curve" smooth="yes"/>
      <point x="678" y="-354"/>
      <point x="778" y="-407"/>
    </contour>
    <component base="a-tamil"/>
  </outline>
</glyph>
<glyph name="i-tamil" format="2">
  <advance width="895"/>
  <unicode hex="0B87"/>
  <note>
uni0B87
</note>
  <anchor x="425" y="0" name="bottom"/>
  <anchor x="425" y="-291" name="nukta"/>
  <anchor x="438" y="846" name="top"/>
  <anchor x="431" y="576" name="vedic"/>
  <outline>
    <contour>
      <point x="199" y="-332" type="curve" smooth="yes"/>
      <point x="497" y="-332"/>
      <point x="717" y="-64"/>
      <point x="717" y="222" type="curve" smooth="yes"/>
      <point x="717" y="437"/>
      <point x="615" y="581"/>
      <point x="432" y="581" type="curve" smooth="yes"/>
      <point x="279" y="581"/>
      <point x="206" y="479"/>
      <point x="206" y="374" type="curve" smooth="yes"/>
      <point x="206" y="276"/>
      <point x="271" y="211"/>
      <point x="354" y="211" type="curve" smooth="yes"/>
      <point x="434" y="211"/>
      <point x="503" y="258"/>
      <point x="503" y="361" type="curve" smooth="yes"/>
      <point x="503" y="444"/>
      <point x="453" y="507"/>
      <point x="398" y="540" type="curve"/>
      <point x="332" y="527" type="line"/>
      <point x="385" y="495"/>
      <point x="409" y="440"/>
      <point x="409" y="380" type="curve" smooth="yes"/>
      <point x="409" y="336"/>
      <point x="389" y="296"/>
      <point x="343" y="296" type="curve" smooth="yes"/>
      <point x="308" y="296"/>
      <point x="280" y="322"/>
      <point x="280" y="384" type="curve" smooth="yes"/>
      <point x="280" y="443"/>
      <point x="318" y="510"/>
      <point x="409" y="510" type="curve" smooth="yes"/>
      <point x="529" y="510"/>
      <point x="558" y="402"/>
      <point x="558" y="243" type="curve" smooth="yes"/>
      <point x="558" y="13"/>
      <point x="479" y="-259"/>
      <point x="199" y="-259" type="curve" smooth="yes"/>
      <point x="135" y="-259"/>
      <point x="101" y="-228"/>
      <point x="101" y="-169" type="curve" smooth="yes"/>
      <point x="101" y="-54"/>
      <point x="254" y="42"/>
      <point x="418" y="42" type="curve" smooth="yes"/>
      <point x="599" y="42"/>
      <point x="769" y="-45"/>
      <point x="769" y="-173" type="curve" smooth="yes"/>
      <point x="769" y="-229"/>
      <point x="733" y="-259"/>
      <point x="672" y="-259" type="curve" smooth="yes"/>
      <point x="434" y="-259"/>
      <point x="112" y="46"/>
      <point x="112" y="351" type="curve" smooth="yes"/>
      <point x="112" y="587"/>
      <point x="241" y="705"/>
      <point x="438" y="705" type="curve" smooth="yes"/>
      <point x="635" y="705"/>
      <point x="789" y="594"/>
      <point x="789" y="330" type="curve" smooth="yes"/>
      <point x="789" y="104" type="line"/>
      <point x="860" y="104" type="line"/>
      <point x="860" y="339" type="line" smooth="yes"/>
      <point x="860" y="697"/>
      <point x="685" y="846"/>
      <point x="438" y="846" type="curve" smooth="yes"/>
      <point x="189" y="846"/>
      <point x="31" y="665"/>
      <point x="31" y="398" type="curve" smooth="yes"/>
      <point x="31" y="5"/>
      <point x="423" y="-332"/>
      <point x="677" y="-332" type="curve" smooth="yes"/>
      <point x="792" y="-332"/>
      <point x="851" y="-272"/>
      <point x="851" y="-186" type="curve" smooth="yes"/>
      <point x="851" y="7"/>
      <point x="646" y="104"/>
      <point x="417" y="104" type="curve" smooth="yes"/>
      <point x="214" y="104"/>
      <point x="24" y="-12"/>
      <point x="24" y="-172" type="curve" smooth="yes"/>
      <point x="24" y="-278"/>
      <point x="91" y="-332"/>
    </contour>
  </outline>
</glyph>
<glyph name="ii-tamil" format="2">
  <advance width="732"/>
  <unicode hex="0B88"/>
  <note>
uni0B88
</note>
  <anchor x="370" y="0" name="bottom"/>
  <anchor x="371" y="0" name="nukta"/>
  <anchor x="372" y="576" name="top"/>
  <anchor x="373" y="576" name="vedic"/>
  <outline>
    <contour>
      <point x="57" y="0" type="line"/>
      <point x="129" y="0" type="line"/>
      <point x="129" y="509" type="line"/>
      <point x="324" y="509" type="line"/>
      <point x="324" y="0" type="line"/>
      <point x="504" y="0" type="line"/>
      <point x="504" y="509" type="line"/>
      <point x="684" y="509" type="line"/>
      <point x="684" y="576" type="line"/>
      <point x="57" y="576" type="line"/>
    </contour>
    <contour>
      <point x="226" y="205" type="curve" smooth="yes"/>
      <point x="265" y="205"/>
      <point x="297" y="236"/>
      <point x="297" y="273" type="curve" smooth="yes"/>
      <point x="297" y="311"/>
      <point x="265" y="342"/>
      <point x="227" y="342" type="curve" smooth="yes"/>
      <point x="188" y="342"/>
      <point x="156" y="311"/>
      <point x="156" y="273" type="curve" smooth="yes"/>
      <point x="156" y="236"/>
      <point x="188" y="205"/>
    </contour>
    <contour>
      <point x="602" y="205" type="curve" smooth="yes"/>
      <point x="640" y="205"/>
      <point x="673" y="236"/>
      <point x="673" y="273" type="curve" smooth="yes"/>
      <point x="673" y="311"/>
      <point x="641" y="342"/>
      <point x="603" y="342" type="curve" smooth="yes"/>
      <point x="563" y="342"/>
      <point x="531" y="311"/>
      <point x="531" y="273" type="curve" smooth="yes"/>
      <point x="531" y="236"/>
      <point x="563" y="205"/>
    </contour>
  </outline>
</glyph>
<glyph name="u-tamil" format="2">
  <advance width="798"/>
  <unicode hex="0B89"/>
  <note>
uni0B89
</note>
  <anchor x="390" y="0" name="bottom"/>
  <anchor x="390" y="0" name="nukta"/>
  <anchor x="393" y="576" name="top"/>
  <anchor x="393" y="576" name="vedic"/>
  <outline>
    <contour>
      <point x="125" y="0" type="curve" smooth="yes"/>
      <point x="788" y="0" type="line"/>
      <point x="788" y="67" type="line"/>
      <point x="121" y="67" type="line" smooth="yes"/>
      <point x="103" y="67"/>
      <point x="91" y="80"/>
      <point x="91" y="100" type="curve" smooth="yes"/>
      <point x="91" y="119"/>
      <point x="103" y="131"/>
      <point x="121" y="131" type="curve" smooth="yes"/>
      <point x="327" y="131" type="line" smooth="yes"/>
      <point x="481" y="131"/>
      <point x="596" y="192"/>
      <point x="596" y="339" type="curve" smooth="yes"/>
      <point x="596" y="488"/>
      <point x="487" y="581"/>
      <point x="306" y="581" type="curve" smooth="yes"/>
      <point x="169" y="581"/>
      <point x="83" y="492"/>
      <point x="83" y="388" type="curve" smooth="yes"/>
      <point x="83" y="291"/>
      <point x="143" y="241"/>
      <point x="220" y="241" type="curve" smooth="yes"/>
      <point x="298" y="241"/>
      <point x="360" y="290"/>
      <point x="360" y="371" type="curve" smooth="yes"/>
      <point x="360" y="452"/>
      <point x="308" y="509"/>
      <point x="252" y="538" type="curve"/>
      <point x="181" y="532" type="line"/>
      <point x="242" y="495"/>
      <point x="266" y="452"/>
      <point x="266" y="392" type="curve" smooth="yes"/>
      <point x="266" y="347"/>
      <point x="244" y="317"/>
      <point x="207" y="317" type="curve" smooth="yes"/>
      <point x="175" y="317"/>
      <point x="156" y="347"/>
      <point x="156" y="392" type="curve" smooth="yes"/>
      <point x="156" y="458"/>
      <point x="215" y="514"/>
      <point x="280" y="514" type="curve" smooth="yes"/>
      <point x="380" y="514"/>
      <point x="434" y="457"/>
      <point x="434" y="348" type="curve" smooth="yes"/>
      <point x="434" y="248"/>
      <point x="382" y="194"/>
      <point x="303" y="194" type="curve" smooth="yes"/>
      <point x="125" y="194" type="line" smooth="yes"/>
      <point x="65" y="194"/>
      <point x="27" y="160"/>
      <point x="27" y="99" type="curve" smooth="yes"/>
      <point x="27" y="37"/>
      <point x="66" y="0"/>
    </contour>
  </outline>
</glyph>
<glyph name="uu-tamil" format="2">
  <advance width="1579"/>
  <unicode hex="0B8A"/>
  <note>
uni0B8A
</note>
  <anchor x="794" y="0" name="bottom"/>
  <anchor x="794" y="0" name="nukta"/>
  <anchor x="797" y="576" name="top"/>
  <anchor x="797" y="576" name="vedic"/>
  <outline>
    <contour>
      <point x="125" y="0" type="curve" smooth="yes"/>
      <point x="1520" y="0" type="line"/>
      <point x="1520" y="67" type="line"/>
      <point x="121" y="67" type="line" smooth="yes"/>
      <point x="103" y="67"/>
      <point x="91" y="80"/>
      <point x="91" y="100" type="curve" smooth="yes"/>
      <point x="91" y="119"/>
      <point x="103" y="131"/>
      <point x="121" y="131" type="curve" smooth="yes"/>
      <point x="327" y="131" type="line" smooth="yes"/>
      <point x="481" y="131"/>
      <point x="596" y="192"/>
      <point x="596" y="339" type="curve" smooth="yes"/>
      <point x="596" y="488"/>
      <point x="487" y="581"/>
      <point x="306" y="581" type="curve" smooth="yes"/>
      <point x="169" y="581"/>
      <point x="83" y="492"/>
      <point x="83" y="388" type="curve" smooth="yes"/>
      <point x="83" y="291"/>
      <point x="143" y="241"/>
      <point x="220" y="241" type="curve" smooth="yes"/>
      <point x="298" y="241"/>
      <point x="360" y="290"/>
      <point x="360" y="371" type="curve" smooth="yes"/>
      <point x="360" y="452"/>
      <point x="308" y="509"/>
      <point x="252" y="538" type="curve"/>
      <point x="181" y="532" type="line"/>
      <point x="242" y="495"/>
      <point x="266" y="452"/>
      <point x="266" y="392" type="curve" smooth="yes"/>
      <point x="266" y="347"/>
      <point x="244" y="317"/>
      <point x="207" y="317" type="curve" smooth="yes"/>
      <point x="175" y="317"/>
      <point x="156" y="347"/>
      <point x="156" y="392" type="curve" smooth="yes"/>
      <point x="156" y="458"/>
      <point x="215" y="514"/>
      <point x="280" y="514" type="curve" smooth="yes"/>
      <point x="380" y="514"/>
      <point x="434" y="457"/>
      <point x="434" y="348" type="curve" smooth="yes"/>
      <point x="434" y="248"/>
      <point x="382" y="194"/>
      <point x="303" y="194" type="curve" smooth="yes"/>
      <point x="125" y="194" type="line" smooth="yes"/>
      <point x="65" y="194"/>
      <point x="27" y="160"/>
      <point x="27" y="99" type="curve" smooth="yes"/>
      <point x="27" y="37"/>
      <point x="66" y="0"/>
    </contour>
    <contour>
      <point x="825" y="124" type="curve" smooth="yes"/>
      <point x="906" y="124"/>
      <point x="975" y="169"/>
      <point x="975" y="268" type="curve" smooth="yes"/>
      <point x="975" y="359"/>
      <point x="917" y="407"/>
      <point x="847" y="407" type="curve" smooth="yes"/>
      <point x="753" y="407"/>
      <point x="714" y="315"/>
      <point x="716" y="225" type="curve"/>
      <point x="751" y="204" type="line"/>
      <point x="750" y="275"/>
      <point x="774" y="334"/>
      <point x="816" y="334" type="curve" smooth="yes"/>
      <point x="849" y="334"/>
      <point x="870" y="308"/>
      <point x="870" y="268" type="curve" smooth="yes"/>
      <point x="870" y="222"/>
      <point x="847" y="192"/>
      <point x="810" y="192" type="curve" smooth="yes"/>
      <point x="763" y="192"/>
      <point x="707" y="239"/>
      <point x="707" y="342" type="curve" smooth="yes"/>
      <point x="707" y="449"/>
      <point x="766" y="515"/>
      <point x="866" y="515" type="curve" smooth="yes"/>
      <point x="974" y="515"/>
      <point x="1035" y="442"/>
      <point x="1035" y="338" type="curve"/>
      <point x="1098" y="338" type="line"/>
      <point x="1092" y="502"/>
      <point x="982" y="581"/>
      <point x="868" y="581" type="curve" smooth="yes"/>
      <point x="734" y="581"/>
      <point x="642" y="483"/>
      <point x="642" y="341" type="curve" smooth="yes"/>
      <point x="642" y="206"/>
      <point x="727" y="124"/>
    </contour>
    <contour>
      <point x="1035" y="125" type="line"/>
      <point x="1180" y="125" type="line"/>
      <point x="1180" y="515" type="line"/>
      <point x="1292" y="515" type="line"/>
      <point x="1292" y="125" type="line"/>
      <point x="1438" y="125" type="line"/>
      <point x="1438" y="515" type="line"/>
      <point x="1520" y="515" type="line"/>
      <point x="1520" y="576" type="line"/>
      <point x="1068" y="576" type="line"/>
      <point x="1074" y="401" type="line"/>
      <point x="1035" y="401" type="line"/>
    </contour>
  </outline>
</glyph>
<glyph name="ee-tamil" format="2">
  <advance width="819"/>
  <unicode hex="0B8F"/>
  <note>
uni0B8F
</note>
  <anchor x="428" y="0" name="bottom"/>
  <anchor x="428" y="-190" name="nukta"/>
  <anchor x="432" y="576" name="top"/>
  <anchor x="431" y="576" name="vedic"/>
  <outline>
    <contour>
      <point x="447" y="-235" type="line"/>
      <point x="709" y="61" type="line"/>
      <point x="709" y="509" type="line"/>
      <point x="804" y="509" type="line"/>
      <point x="804" y="576" type="line"/>
      <point x="366" y="576" type="line" smooth="yes"/>
      <point x="154" y="576"/>
      <point x="42" y="455"/>
      <point x="42" y="262" type="curve" smooth="yes"/>
      <point x="42" y="109"/>
      <point x="119" y="-5"/>
      <point x="244" y="-5" type="curve" smooth="yes"/>
      <point x="350" y="-5"/>
      <point x="424" y="62"/>
      <point x="424" y="175" type="curve" smooth="yes"/>
      <point x="424" y="267"/>
      <point x="372" y="342"/>
      <point x="278" y="342" type="curve" smooth="yes"/>
      <point x="172" y="342"/>
      <point x="117" y="241"/>
      <point x="113" y="117" type="curve"/>
      <point x="155" y="90" type="line"/>
      <point x="159" y="179"/>
      <point x="181" y="235"/>
      <point x="222" y="235" type="curve" smooth="yes"/>
      <point x="250" y="235"/>
      <point x="267" y="205"/>
      <point x="267" y="160" type="curve" smooth="yes"/>
      <point x="267" y="106"/>
      <point x="250" y="77"/>
      <point x="212" y="77" type="curve" smooth="yes"/>
      <point x="165" y="77"/>
      <point x="115" y="150"/>
      <point x="115" y="261" type="curve" smooth="yes"/>
      <point x="115" y="419"/>
      <point x="199" y="509"/>
      <point x="382" y="509" type="curve" smooth="yes"/>
      <point x="532" y="509" type="line"/>
      <point x="532" y="-29" type="line"/>
      <point x="394" y="-188" type="line"/>
    </contour>
  </outline>
</glyph>
<glyph name="ai-tamil" format="2">
  <advance width="852"/>
  <unicode hex="0B90"/>
  <note>
uni0B90
</note>
  <anchor x="422" y="0" name="bottom"/>
  <anchor x="422" y="-331" name="nukta"/>
  <anchor x="435" y="576" name="top"/>
  <anchor x="432" y="576" name="vedic"/>
  <outline>
    <contour>
      <point x="245" y="-331" type="curve" smooth="yes"/>
      <point x="351" y="-331"/>
      <point x="414" y="-279"/>
      <point x="439" y="-202" type="curve"/>
      <point x="461" y="-275"/>
      <point x="520" y="-331"/>
      <point x="611" y="-331" type="curve" smooth="yes"/>
      <point x="725" y="-331"/>
      <point x="810" y="-266"/>
      <point x="810" y="-122" type="curve" smooth="yes"/>
      <point x="810" y="-51"/>
      <point x="785" y="9"/>
      <point x="752" y="65" type="curve"/>
      <point x="690" y="30" type="line"/>
      <point x="719" y="-21"/>
      <point x="738" y="-67"/>
      <point x="738" y="-117" type="curve" smooth="yes"/>
      <point x="738" y="-216"/>
      <point x="687" y="-258"/>
      <point x="615" y="-258" type="curve" smooth="yes"/>
      <point x="548" y="-258"/>
      <point x="500" y="-208"/>
      <point x="500" y="-114" type="curve" smooth="yes"/>
      <point x="500" y="-23" type="line"/>
      <point x="372" y="-23" type="line"/>
      <point x="372" y="-126" type="line" smooth="yes"/>
      <point x="372" y="-211"/>
      <point x="342" y="-257"/>
      <point x="283" y="-257" type="curve" smooth="yes"/>
      <point x="223" y="-257"/>
      <point x="200" y="-208"/>
      <point x="200" y="-125" type="curve" smooth="yes"/>
      <point x="200" y="4"/>
      <point x="231" y="47"/>
      <point x="452" y="76" type="curve" smooth="yes"/>
      <point x="685" y="107"/>
      <point x="810" y="161"/>
      <point x="810" y="356" type="curve" smooth="yes"/>
      <point x="810" y="499"/>
      <point x="730" y="582"/>
      <point x="608" y="582" type="curve" smooth="yes"/>
      <point x="536" y="582"/>
      <point x="461" y="550"/>
      <point x="437" y="471" type="curve"/>
      <point x="408" y="546"/>
      <point x="349" y="582"/>
      <point x="259" y="582" type="curve" smooth="yes"/>
      <point x="132" y="582"/>
      <point x="48" y="487"/>
      <point x="48" y="346" type="curve" smooth="yes"/>
      <point x="48" y="232"/>
      <point x="110" y="153"/>
      <point x="199" y="153" type="curve" smooth="yes"/>
      <point x="269" y="153"/>
      <point x="324" y="198"/>
      <point x="324" y="286" type="curve" smooth="yes"/>
      <point x="324" y="363"/>
      <point x="281" y="410"/>
      <point x="220" y="410" type="curve" smooth="yes"/>
      <point x="152" y="410"/>
      <point x="104" y="359"/>
      <point x="98" y="229" type="curve"/>
      <point x="131" y="215" type="line"/>
      <point x="135" y="310"/>
      <point x="159" y="337"/>
      <point x="183" y="337" type="curve" smooth="yes"/>
      <point x="207" y="337"/>
      <point x="219" y="315"/>
      <point x="219" y="283" type="curve" smooth="yes"/>
      <point x="219" y="248"/>
      <point x="206" y="226"/>
      <point x="179" y="226" type="curve" smooth="yes"/>
      <point x="142" y="226"/>
      <point x="117" y="271"/>
      <point x="117" y="346" type="curve" smooth="yes"/>
      <point x="117" y="449"/>
      <point x="177" y="509"/>
      <point x="256" y="509" type="curve" smooth="yes"/>
      <point x="331" y="509"/>
      <point x="372" y="473"/>
      <point x="372" y="391" type="curve" smooth="yes"/>
      <point x="372" y="208" type="line"/>
      <point x="500" y="208" type="line"/>
      <point x="500" y="403" type="line" smooth="yes"/>
      <point x="500" y="473"/>
      <point x="528" y="507"/>
      <point x="576" y="507" type="curve" smooth="yes"/>
      <point x="624" y="507"/>
      <point x="652" y="461"/>
      <point x="652" y="369" type="curve" smooth="yes"/>
      <point x="652" y="210"/>
      <point x="616" y="156"/>
      <point x="363" y="121" type="curve" smooth="yes"/>
      <point x="217" y="101"/>
      <point x="42" y="57"/>
      <point x="42" y="-123" type="curve" smooth="yes"/>
      <point x="42" y="-259"/>
      <point x="116" y="-331"/>
    </contour>
  </outline>
</glyph>
<glyph name="o-tamil" format="2">
  <advance width="927"/>
  <unicode hex="0B92"/>
  <note>
uni0B92
</note>
  <anchor x="465" y="0" name="bottom"/>
  <anchor x="463" y="-335" name="nukta"/>
  <anchor x="458" y="576" name="top"/>
  <anchor x="458" y="576" name="vedic"/>
  <outline>
    <contour>
      <point x="329" y="-325" type="curve" smooth="yes"/>
      <point x="526" y="-325"/>
      <point x="572" y="-129"/>
      <point x="704" y="-129" type="curve" smooth="yes"/>
      <point x="759" y="-129" type="line"/>
      <point x="759" y="-63" type="line"/>
      <point x="682" y="-63" type="line" smooth="yes"/>
      <point x="581" y="-63"/>
      <point x="516" y="-10"/>
      <point x="516" y="87" type="curve" smooth="yes"/>
      <point x="516" y="125"/>
      <point x="526" y="170"/>
      <point x="548" y="221" type="curve"/>
      <point x="554" y="218" type="line"/>
      <point x="551" y="198"/>
      <point x="549" y="179"/>
      <point x="549" y="160" type="curve" smooth="yes"/>
      <point x="549" y="66"/>
      <point x="594" y="-3"/>
      <point x="706" y="-3" type="curve" smooth="yes"/>
      <point x="805" y="-3"/>
      <point x="885" y="64"/>
      <point x="885" y="200" type="curve" smooth="yes"/>
      <point x="885" y="449"/>
      <point x="683" y="582"/>
      <point x="434" y="582" type="curve" smooth="yes"/>
      <point x="189" y="582"/>
      <point x="42" y="419"/>
      <point x="42" y="249" type="curve" smooth="yes"/>
      <point x="42" y="104"/>
      <point x="119" y="-5"/>
      <point x="244" y="-5" type="curve" smooth="yes"/>
      <point x="350" y="-5"/>
      <point x="424" y="62"/>
      <point x="424" y="175" type="curve" smooth="yes"/>
      <point x="424" y="267"/>
      <point x="372" y="342"/>
      <point x="278" y="342" type="curve" smooth="yes"/>
      <point x="172" y="342"/>
      <point x="117" y="241"/>
      <point x="113" y="117" type="curve"/>
      <point x="155" y="90" type="line"/>
      <point x="159" y="179"/>
      <point x="179" y="235"/>
      <point x="220" y="235" type="curve" smooth="yes"/>
      <point x="248" y="235"/>
      <point x="267" y="205"/>
      <point x="267" y="160" type="curve" smooth="yes"/>
      <point x="267" y="106"/>
      <point x="249" y="77"/>
      <point x="211" y="77" type="curve" smooth="yes"/>
      <point x="161" y="77"/>
      <point x="114" y="146"/>
      <point x="114" y="248" type="curve" smooth="yes"/>
      <point x="114" y="394"/>
      <point x="253" y="511"/>
      <point x="413" y="511" type="curve" smooth="yes"/>
      <point x="595" y="511"/>
      <point x="722" y="411"/>
      <point x="722" y="219" type="curve" smooth="yes"/>
      <point x="722" y="122"/>
      <point x="692" y="86"/>
      <point x="653" y="86" type="curve" smooth="yes"/>
      <point x="622" y="86"/>
      <point x="602" y="115"/>
      <point x="602" y="168" type="curve" smooth="yes"/>
      <point x="602" y="195"/>
      <point x="608" y="229"/>
      <point x="620" y="269" type="curve"/>
      <point x="535" y="309" type="line"/>
      <point x="482" y="216"/>
      <point x="459" y="140"/>
      <point x="459" y="78" type="curve" smooth="yes"/>
      <point x="459" y="-3"/>
      <point x="501" y="-58"/>
      <point x="572" y="-89" type="curve"/>
      <point x="572" y="-94" type="line"/>
      <point x="445" y="-124"/>
      <point x="401" y="-249"/>
      <point x="300" y="-249" type="curve" smooth="yes"/>
      <point x="254" y="-249"/>
      <point x="222" y="-223"/>
      <point x="222" y="-177" type="curve" smooth="yes"/>
      <point x="222" y="-144"/>
      <point x="239" y="-120"/>
      <point x="266" y="-93" type="curve"/>
      <point x="223" y="-49" type="line"/>
      <point x="185" y="-88"/>
      <point x="157" y="-126"/>
      <point x="157" y="-176" type="curve" smooth="yes"/>
      <point x="157" y="-263"/>
      <point x="219" y="-325"/>
    </contour>
  </outline>
</glyph>
<glyph name="oo-tamil" format="2">
  <advance width="927"/>
  <unicode hex="0B93"/>
  <note>
uni0B93
</note>
  <anchor x="465" y="0" name="bottom"/>
  <anchor x="463" y="-304" name="nukta"/>
  <anchor x="458" y="576" name="top"/>
  <anchor x="458" y="576" name="vedic"/>
  <outline>
    <contour>
      <point x="310" y="-336" type="curve" smooth="yes"/>
      <point x="527" y="-336"/>
      <point x="572" y="-129"/>
      <point x="704" y="-129" type="curve" smooth="yes"/>
      <point x="759" y="-129" type="line"/>
      <point x="759" y="-63" type="line"/>
      <point x="682" y="-63" type="line" smooth="yes"/>
      <point x="581" y="-63"/>
      <point x="516" y="-10"/>
      <point x="516" y="87" type="curve" smooth="yes"/>
      <point x="516" y="125"/>
      <point x="526" y="170"/>
      <point x="548" y="221" type="curve"/>
      <point x="554" y="218" type="line"/>
      <point x="551" y="198"/>
      <point x="549" y="179"/>
      <point x="549" y="160" type="curve" smooth="yes"/>
      <point x="549" y="66"/>
      <point x="594" y="-3"/>
      <point x="706" y="-3" type="curve" smooth="yes"/>
      <point x="805" y="-3"/>
      <point x="885" y="64"/>
      <point x="885" y="200" type="curve" smooth="yes"/>
      <point x="885" y="449"/>
      <point x="683" y="582"/>
      <point x="434" y="582" type="curve" smooth="yes"/>
      <point x="189" y="582"/>
      <point x="42" y="419"/>
      <point x="42" y="249" type="curve" smooth="yes"/>
      <point x="42" y="104"/>
      <point x="119" y="-5"/>
      <point x="244" y="-5" type="curve" smooth="yes"/>
      <point x="350" y="-5"/>
      <point x="424" y="62"/>
      <point x="424" y="175" type="curve" smooth="yes"/>
      <point x="424" y="267"/>
      <point x="372" y="342"/>
      <point x="278" y="342" type="curve" smooth="yes"/>
      <point x="172" y="342"/>
      <point x="117" y="241"/>
      <point x="113" y="117" type="curve"/>
      <point x="155" y="90" type="line"/>
      <point x="159" y="179"/>
      <point x="179" y="235"/>
      <point x="220" y="235" type="curve" smooth="yes"/>
      <point x="248" y="235"/>
      <point x="267" y="205"/>
      <point x="267" y="160" type="curve" smooth="yes"/>
      <point x="267" y="106"/>
      <point x="249" y="77"/>
      <point x="211" y="77" type="curve" smooth="yes"/>
      <point x="161" y="77"/>
      <point x="114" y="146"/>
      <point x="114" y="248" type="curve" smooth="yes"/>
      <point x="114" y="394"/>
      <point x="253" y="511"/>
      <point x="413" y="511" type="curve" smooth="yes"/>
      <point x="595" y="511"/>
      <point x="722" y="411"/>
      <point x="722" y="219" type="curve" smooth="yes"/>
      <point x="722" y="122"/>
      <point x="692" y="86"/>
      <point x="653" y="86" type="curve" smooth="yes"/>
      <point x="622" y="86"/>
      <point x="602" y="115"/>
      <point x="602" y="168" type="curve" smooth="yes"/>
      <point x="602" y="195"/>
      <point x="608" y="229"/>
      <point x="620" y="269" type="curve"/>
      <point x="535" y="309" type="line"/>
      <point x="482" y="216"/>
      <point x="459" y="140"/>
      <point x="459" y="78" type="curve" smooth="yes"/>
      <point x="459" y="-3"/>
      <point x="501" y="-58"/>
      <point x="572" y="-89" type="curve"/>
      <point x="572" y="-94" type="line"/>
      <point x="445" y="-124"/>
      <point x="378" y="-262"/>
      <point x="276" y="-262" type="curve" smooth="yes"/>
      <point x="222" y="-262"/>
      <point x="187" y="-234"/>
      <point x="187" y="-189" type="curve" smooth="yes"/>
      <point x="187" y="-153"/>
      <point x="213" y="-125"/>
      <point x="245" y="-125" type="curve" smooth="yes"/>
      <point x="280" y="-125"/>
      <point x="303" y="-144"/>
      <point x="315" y="-190" type="curve"/>
      <point x="347" y="-177"/>
      <point x="369" y="-155"/>
      <point x="369" y="-121" type="curve" smooth="yes"/>
      <point x="369" y="-76"/>
      <point x="323" y="-47"/>
      <point x="265" y="-47" type="curve" smooth="yes"/>
      <point x="178" y="-47"/>
      <point x="125" y="-114"/>
      <point x="125" y="-187" type="curve" smooth="yes"/>
      <point x="125" y="-279"/>
      <point x="202" y="-336"/>
    </contour>
  </outline>
</glyph>
<glyph name="au-tamil" format="2">
  <advance width="2035"/>
  <unicode hex="0B94"/>
  <note>
uni0B94
</note>
  <anchor x="1085" y="0" name="bottom"/>
  <anchor x="1190" y="0" name="nukta"/>
  <anchor x="1079" y="576" name="top"/>
  <anchor x="1079" y="576" name="vedic"/>
  <outline>
    <contour>
      <point x="1147" y="-5" type="curve" smooth="yes"/>
      <point x="1252" y="-5"/>
      <point x="1327" y="62"/>
      <point x="1327" y="175" type="curve" smooth="yes"/>
      <point x="1327" y="267"/>
      <point x="1275" y="342"/>
      <point x="1181" y="342" type="curve" smooth="yes"/>
      <point x="1075" y="342"/>
      <point x="1020" y="241"/>
      <point x="1016" y="117" type="curve"/>
      <point x="1058" y="90" type="line"/>
      <point x="1062" y="179"/>
      <point x="1082" y="235"/>
      <point x="1123" y="235" type="curve" smooth="yes"/>
      <point x="1150" y="235"/>
      <point x="1170" y="205"/>
      <point x="1170" y="160" type="curve" smooth="yes"/>
      <point x="1170" y="106"/>
      <point x="1151" y="77"/>
      <point x="1114" y="77" type="curve" smooth="yes"/>
      <point x="1063" y="77"/>
      <point x="1017" y="150"/>
      <point x="1017" y="261" type="curve" smooth="yes"/>
      <point x="1017" y="415"/>
      <point x="1110" y="501"/>
      <point x="1226" y="501" type="curve" smooth="yes"/>
      <point x="1356" y="501"/>
      <point x="1434" y="416"/>
      <point x="1434" y="287" type="curve"/>
      <point x="1501" y="303" type="line"/>
      <point x="1490" y="500"/>
      <point x="1356" y="581"/>
      <point x="1224" y="581" type="curve" smooth="yes"/>
      <point x="1055" y="581"/>
      <point x="945" y="447"/>
      <point x="945" y="262" type="curve" smooth="yes"/>
      <point x="945" y="109"/>
      <point x="1022" y="-5"/>
    </contour>
    <contour>
      <point x="1434" y="0" type="line"/>
      <point x="1611" y="0" type="line"/>
      <point x="1611" y="509" type="line"/>
      <point x="1749" y="509" type="line"/>
      <point x="1749" y="0" type="line"/>
      <point x="1926" y="0" type="line"/>
      <point x="1926" y="509" type="line"/>
      <point x="2020" y="509" type="line"/>
      <point x="2020" y="576" type="line"/>
      <point x="1478" y="576" type="line"/>
      <point x="1478" y="333" type="line"/>
      <point x="1434" y="353" type="line"/>
    </contour>
    <component base="o-tamil"/>
  </outline>
</glyph>
<glyph name="nga-tamil" format="2">
  <advance width="884"/>
  <unicode hex="0B99"/>
  <note>
uni0B99
</note>
  <anchor x="433" y="0" name="bottom"/>
  <anchor x="483" y="576" name="imatra"/>
  <anchor x="437" y="0" name="nukta"/>
  <anchor x="468" y="576" name="top"/>
  <anchor x="439" y="576" name="vedic"/>
  <outline>
    <contour>
      <point x="57" y="0" type="line"/>
      <point x="129" y="0" type="line"/>
      <point x="129" y="509" type="line"/>
      <point x="215" y="509" type="line"/>
      <point x="215" y="175" type="line"/>
      <point x="376" y="175" type="line"/>
      <point x="376" y="249" type="line" smooth="yes"/>
      <point x="376" y="271"/>
      <point x="384" y="288"/>
      <point x="403" y="288" type="curve" smooth="yes"/>
      <point x="425" y="288"/>
      <point x="436" y="268"/>
      <point x="436" y="221" type="curve" smooth="yes"/>
      <point x="436" y="136"/>
      <point x="390" y="67"/>
      <point x="316" y="67" type="curve" smooth="yes"/>
      <point x="215" y="67" type="line"/>
      <point x="215" y="0" type="line"/>
      <point x="827" y="0" type="line"/>
      <point x="827" y="576" type="line"/>
      <point x="649" y="576" type="line"/>
      <point x="649" y="67" type="line"/>
      <point x="459" y="67" type="line"/>
      <point x="545" y="94"/>
      <point x="598" y="161"/>
      <point x="598" y="252" type="curve" smooth="yes"/>
      <point x="598" y="346"/>
      <point x="556" y="398"/>
      <point x="482" y="398" type="curve" smooth="yes"/>
      <point x="431" y="398"/>
      <point x="402" y="369"/>
      <point x="382" y="336" type="curve"/>
      <point x="382" y="509" type="line"/>
      <point x="509" y="509" type="line"/>
      <point x="509" y="576" type="line"/>
      <point x="57" y="576" type="line"/>
    </contour>
  </outline>
</glyph>
<glyph name="ta-tamil" format="2">
  <advance width="776"/>
  <unicode hex="0BA4"/>
  <note>
uni0BA4
</note>
  <anchor x="373" y="0" name="bottom"/>
  <anchor x="490" y="576" name="imatra"/>
  <anchor x="461" y="-134" name="nukta"/>
  <anchor x="391" y="576" name="top"/>
  <anchor x="406" y="576" name="vedic"/>
  <outline>
    <contour>
      <point x="186" y="-295" type="curve"/>
      <point x="186" y="-192"/>
      <point x="208" y="-129"/>
      <point x="314" y="-129" type="curve" smooth="yes"/>
      <point x="459" y="-129" type="line" smooth="yes"/>
      <point x="583" y="-129"/>
      <point x="735" y="-81"/>
      <point x="735" y="115" type="curve" smooth="yes"/>
      <point x="735" y="291"/>
      <point x="627" y="340"/>
      <point x="501" y="340" type="curve" smooth="yes"/>
      <point x="477" y="340" type="line"/>
      <point x="477" y="509" type="line"/>
      <point x="597" y="509" type="line"/>
      <point x="597" y="576" type="line"/>
      <point x="128" y="576" type="line"/>
      <point x="128" y="303" type="line"/>
      <point x="198" y="303" type="line"/>
      <point x="198" y="509" type="line"/>
      <point x="296" y="509" type="line"/>
      <point x="296" y="340" type="line"/>
      <point x="192" y="340" type="line" smooth="yes"/>
      <point x="117" y="340"/>
      <point x="41" y="274"/>
      <point x="41" y="178" type="curve" smooth="yes"/>
      <point x="41" y="72"/>
      <point x="106" y="-4"/>
      <point x="244" y="-4" type="curve" smooth="yes"/>
      <point x="383" y="-4"/>
      <point x="477" y="65"/>
      <point x="477" y="203" type="curve" smooth="yes"/>
      <point x="477" y="273" type="line"/>
      <point x="487" y="273" type="line" smooth="yes"/>
      <point x="528" y="273"/>
      <point x="575" y="232"/>
      <point x="575" y="109" type="curve" smooth="yes"/>
      <point x="575" y="-30"/>
      <point x="481" y="-71"/>
      <point x="384" y="-71" type="curve" smooth="yes"/>
      <point x="257" y="-71" type="line" smooth="yes"/>
      <point x="149" y="-71"/>
      <point x="55" y="-92"/>
      <point x="55" y="-191" type="curve" smooth="yes"/>
      <point x="55" y="-262"/>
      <point x="108" y="-295"/>
    </contour>
    <contour>
      <point x="198" y="78" type="curve" smooth="yes"/>
      <point x="152" y="78"/>
      <point x="111" y="113"/>
      <point x="111" y="176" type="curve" smooth="yes"/>
      <point x="111" y="231"/>
      <point x="137" y="273"/>
      <point x="194" y="273" type="curve" smooth="yes"/>
      <point x="296" y="273" type="line"/>
      <point x="296" y="191" type="line" smooth="yes"/>
      <point x="296" y="111"/>
      <point x="258" y="78"/>
    </contour>
  </outline>
</glyph>
<glyph name="na-tamil" format="2">
  <advance width="730"/>
  <unicode hex="0BA8"/>
  <note>
uni0BA8
</note>
  <anchor x="343" y="0" name="bottom"/>
  <anchor x="461" y="576" name="imatra"/>
  <anchor x="388" y="-221" name="nukta"/>
  <anchor x="342" y="576" name="top"/>
  <anchor x="367" y="576" name="vedic"/>
  <outline>
    <contour>
      <point x="179" y="-295" type="curve"/>
      <point x="179" y="-192"/>
      <point x="201" y="-129"/>
      <point x="307" y="-129" type="curve" smooth="yes"/>
      <point x="436" y="-129" type="line" smooth="yes"/>
      <point x="572" y="-129"/>
      <point x="689" y="-53"/>
      <point x="689" y="143" type="curve" smooth="yes"/>
      <point x="689" y="283"/>
      <point x="620" y="355"/>
      <point x="530" y="355" type="curve" smooth="yes"/>
      <point x="467" y="355"/>
      <point x="430" y="320"/>
      <point x="402" y="275" type="curve"/>
      <point x="402" y="509" type="line"/>
      <point x="525" y="509" type="line"/>
      <point x="525" y="576" type="line"/>
      <point x="57" y="576" type="line"/>
      <point x="57" y="0" type="line"/>
      <point x="128" y="0" type="line"/>
      <point x="128" y="509" type="line"/>
      <point x="224" y="509" type="line"/>
      <point x="224" y="0" type="line"/>
      <point x="402" y="0" type="line"/>
      <point x="402" y="169" type="line" smooth="yes"/>
      <point x="402" y="220"/>
      <point x="425" y="245"/>
      <point x="460" y="245" type="curve" smooth="yes"/>
      <point x="506" y="245"/>
      <point x="529" y="203"/>
      <point x="529" y="131" type="curve" smooth="yes"/>
      <point x="529" y="-8"/>
      <point x="470" y="-71"/>
      <point x="361" y="-71" type="curve" smooth="yes"/>
      <point x="250" y="-71" type="line" smooth="yes"/>
      <point x="142" y="-71"/>
      <point x="48" y="-92"/>
      <point x="48" y="-191" type="curve" smooth="yes"/>
      <point x="48" y="-262"/>
      <point x="101" y="-295"/>
    </contour>
  </outline>
</glyph>
<glyph name="pa-tamil" format="2">
  <advance width="777"/>
  <unicode hex="0BAA"/>
  <note>
uni0BAA
</note>
  <anchor x="393" y="0" name="bottom"/>
  <anchor x="712" y="576" name="imatra"/>
  <anchor x="393" y="0" name="nukta"/>
  <anchor x="396" y="576" name="top"/>
  <anchor x="387" y="576" name="vedic"/>
  <outline>
    <contour>
      <point x="57" y="0" type="line"/>
      <point x="720" y="0" type="line"/>
      <point x="720" y="576" type="line"/>
      <point x="545" y="576" type="line"/>
      <point x="545" y="67" type="line"/>
      <point x="234" y="67" type="line"/>
      <point x="234" y="576" type="line"/>
      <point x="57" y="576" type="line"/>
    </contour>
  </outline>
</glyph>
<glyph name="ra-tamil" format="2">
  <advance width="545"/>
  <unicode hex="0BB0"/>
  <note>
uni0BB0
</note>
  <anchor x="262" y="0" name="bottom"/>
  <anchor x="475" y="576" name="imatra"/>
  <anchor x="262" y="-251" name="nukta"/>
  <anchor x="281" y="576" name="top"/>
  <anchor x="291" y="576" name="vedic"/>
  <outline>
    <contour>
      <point x="174" y="-235" type="line"/>
      <point x="435" y="59" type="line"/>
      <point x="435" y="509" type="line"/>
      <point x="530" y="509" type="line"/>
      <point x="530" y="576" type="line"/>
      <point x="57" y="576" type="line"/>
      <point x="57" y="0" type="line"/>
      <point x="129" y="0" type="line"/>
      <point x="129" y="509" type="line"/>
      <point x="258" y="509" type="line"/>
      <point x="258" y="-32" type="line"/>
      <point x="121" y="-188" type="line"/>
    </contour>
  </outline>
</glyph>
<glyph name="la-tamil" format="2">
  <advance width="933"/>
  <unicode hex="0BB2"/>
  <note>
uni0BB2
</note>
  <anchor x="458" y="0" name="bottom"/>
  <anchor x="455" y="0" name="nukta"/>
  <anchor x="463" y="576" name="top"/>
  <anchor x="461" y="576" name="vedic"/>
  <outline>
    <contour>
      <point x="244" y="-5" type="curve" smooth="yes"/>
      <point x="350" y="-5"/>
      <point x="424" y="62"/>
      <point x="424" y="175" type="curve" smooth="yes"/>
      <point x="424" y="267"/>
      <point x="372" y="342"/>
      <point x="278" y="342" type="curve" smooth="yes"/>
      <point x="172" y="342"/>
      <point x="117" y="241"/>
      <point x="113" y="117" type="curve"/>
      <point x="155" y="90" type="line"/>
      <point x="159" y="179"/>
      <point x="179" y="235"/>
      <point x="220" y="235" type="curve" smooth="yes"/>
      <point x="248" y="235"/>
      <point x="267" y="205"/>
      <point x="267" y="160" type="curve" smooth="yes"/>
      <point x="267" y="106"/>
      <point x="249" y="77"/>
      <point x="211" y="77" type="curve" smooth="yes"/>
      <point x="161" y="77"/>
      <point x="114" y="150"/>
      <point x="114" y="261" type="curve" smooth="yes"/>
      <point x="114" y="415"/>
      <point x="195" y="504"/>
      <point x="308" y="504" type="curve" smooth="yes"/>
      <point x="443" y="504"/>
      <point x="490" y="409"/>
      <point x="490" y="282" type="curve" smooth="yes"/>
      <point x="490" y="172" type="line" smooth="yes"/>
      <point x="490" y="63"/>
      <point x="535" y="-5"/>
      <point x="659" y="-5" type="curve" smooth="yes"/>
      <point x="790" y="-5"/>
      <point x="886" y="98"/>
      <point x="886" y="304" type="curve" smooth="yes"/>
      <point x="886" y="407"/>
      <point x="855" y="488"/>
      <point x="799" y="581" type="curve"/>
      <point x="737" y="545" type="line"/>
      <point x="786" y="462"/>
      <point x="815" y="389"/>
      <point x="815" y="295" type="curve" smooth="yes"/>
      <point x="815" y="152"/>
      <point x="757" y="83"/>
      <point x="710" y="83" type="curve" smooth="yes"/>
      <point x="681" y="83"/>
      <point x="669" y="104"/>
      <point x="669" y="161" type="curve" smooth="yes"/>
      <point x="669" y="295" type="line" smooth="yes"/>
      <point x="669" y="478"/>
      <point x="564" y="581"/>
      <point x="359" y="581" type="curve" smooth="yes"/>
      <point x="145" y="581"/>
      <point x="42" y="447"/>
      <point x="42" y="262" type="curve" smooth="yes"/>
      <point x="42" y="109"/>
      <point x="119" y="-5"/>
    </contour>
  </outline>
</glyph>
<glyph name="ssa-tamil" format="2">
  <advance width="1362"/>
  <unicode hex="0BB7"/>
  <note>
uni0BB7
</note>
  <anchor x="681" y="0" name="bottom"/>
  <anchor x="540" y="0" name="nukta"/>
  <anchor x="704" y="576" name="top"/>
  <anchor x="681" y="576" name="vedic"/>
  <outline>
    <contour>
      <point x="244" y="-5" type="curve" smooth="yes"/>
      <point x="350" y="-5"/>
      <point x="424" y="62"/>
      <point x="424" y="175" type="curve" smooth="yes"/>
      <point x="424" y="267"/>
      <point x="372" y="342"/>
      <point x="278" y="342" type="curve" smooth="yes"/>
      <point x="172" y="342"/>
      <point x="117" y="241"/>
      <point x="113" y="117" type="curve"/>
      <point x="155" y="90" type="line"/>
      <point x="159" y="179"/>
      <point x="179" y="235"/>
      <point x="220" y="235" type="curve" smooth="yes"/>
      <point x="248" y="235"/>
      <point x="267" y="205"/>
      <point x="267" y="160" type="curve" smooth="yes"/>
      <point x="267" y="106"/>
      <point x="249" y="77"/>
      <point x="211" y="77" type="curve" smooth="yes"/>
      <point x="161" y="77"/>
      <point x="114" y="150"/>
      <point x="114" y="261" type="curve" smooth="yes"/>
      <point x="114" y="415"/>
      <point x="198" y="504"/>
      <point x="308" y="504" type="curve" smooth="yes"/>
      <point x="439" y="504"/>
      <point x="509" y="414"/>
      <point x="509" y="262" type="curve" smooth="yes"/>
      <point x="509" y="176"/>
      <point x="493" y="106"/>
      <point x="470" y="48" type="curve"/>
      <point x="493" y="0" type="line"/>
      <point x="1315" y="0" type="line"/>
      <point x="1315" y="342" type="line"/>
      <point x="1141" y="292" type="line"/>
      <point x="1141" y="67" type="line"/>
      <point x="583" y="67" type="line"/>
      <point x="640" y="129"/>
      <point x="680" y="198"/>
      <point x="680" y="291" type="curve" smooth="yes"/>
      <point x="680" y="493"/>
      <point x="536" y="581"/>
      <point x="360" y="581" type="curve" smooth="yes"/>
      <point x="153" y="581"/>
      <point x="42" y="447"/>
      <point x="42" y="262" type="curve" smooth="yes"/>
      <point x="42" y="109"/>
      <point x="119" y="-5"/>
    </contour>
    <contour>
      <point x="887" y="-275" type="line"/>
      <point x="1058" y="-275" type="line"/>
      <point x="1058" y="411" type="line" smooth="yes"/>
      <point x="1058" y="522"/>
      <point x="1000" y="582"/>
      <point x="897" y="582" type="curve" smooth="yes"/>
      <point x="791" y="582"/>
      <point x="737" y="504"/>
      <point x="737" y="413" type="curve" smooth="yes"/>
      <point x="737" y="288"/>
      <point x="813" y="202"/>
      <point x="961" y="202" type="curve" smooth="yes"/>
      <point x="1097" y="202"/>
      <point x="1196" y="247"/>
      <point x="1315" y="335" type="curve"/>
      <point x="1315" y="347" type="line"/>
      <point x="1278" y="394" type="line"/>
      <point x="1166" y="312"/>
      <point x="1070" y="267"/>
      <point x="954" y="267" type="curve" smooth="yes"/>
      <point x="853" y="267"/>
      <point x="803" y="319"/>
      <point x="803" y="416" type="curve" smooth="yes"/>
      <point x="803" y="455"/>
      <point x="824" y="475"/>
      <point x="845" y="475" type="curve" smooth="yes"/>
      <point x="871" y="475"/>
      <point x="887" y="459"/>
      <point x="887" y="420" type="curve" smooth="yes"/>
    </contour>
  </outline>
</glyph>
<glyph name="ha-tamil" format="2">
  <advance width="1502"/>
  <unicode hex="0BB9"/>
  <note>
uni0BB9
</note>
  <anchor x="754" y="0" name="bottom"/>
  <anchor x="757" y="-120" name="nukta"/>
  <anchor x="780" y="576" name="top"/>
  <anchor x="776" y="576" name="vedic"/>
  <outline>
    <contour>
      <point x="228" y="-304" type="curve"/>
      <point x="228" y="-210"/>
      <point x="244" y="-139"/>
      <point x="356" y="-139" type="curve" smooth="yes"/>
      <point x="1020" y="-139" type="line" smooth="yes"/>
      <point x="1288" y="-139"/>
      <point x="1473" y="-23"/>
      <point x="1473" y="248" type="curve" smooth="yes"/>
      <point x="1473" y="479"/>
      <point x="1374" y="582"/>
      <point x="1216" y="582" type="curve" smooth="yes"/>
      <point x="1132" y="582"/>
      <point x="1067" y="548"/>
      <point x="1043" y="474" type="curve"/>
      <point x="1023" y="548"/>
      <point x="972" y="581"/>
      <point x="901" y="581" type="curve" smooth="yes"/>
      <point x="816" y="581"/>
      <point x="760" y="524"/>
      <point x="760" y="428" type="curve" smooth="yes"/>
      <point x="760" y="67" type="line"/>
      <point x="583" y="67" type="line"/>
      <point x="640" y="129"/>
      <point x="680" y="198"/>
      <point x="680" y="291" type="curve" smooth="yes"/>
      <point x="680" y="493"/>
      <point x="536" y="581"/>
      <point x="360" y="581" type="curve" smooth="yes"/>
      <point x="153" y="581"/>
      <point x="42" y="447"/>
      <point x="42" y="262" type="curve" smooth="yes"/>
      <point x="42" y="109"/>
      <point x="119" y="-5"/>
      <point x="244" y="-5" type="curve" smooth="yes"/>
      <point x="350" y="-5"/>
      <point x="424" y="62"/>
      <point x="424" y="175" type="curve" smooth="yes"/>
      <point x="424" y="267"/>
      <point x="372" y="342"/>
      <point x="278" y="342" type="curve" smooth="yes"/>
      <point x="172" y="342"/>
      <point x="117" y="241"/>
      <point x="113" y="117" type="curve"/>
      <point x="155" y="90" type="line"/>
      <point x="159" y="179"/>
      <point x="179" y="235"/>
      <point x="220" y="235" type="curve" smooth="yes"/>
      <point x="248" y="235"/>
      <point x="267" y="205"/>
      <point x="267" y="160" type="curve" smooth="yes"/>
      <point x="267" y="106"/>
      <point x="249" y="77"/>
      <point x="211" y="77" type="curve" smooth="yes"/>
      <point x="161" y="77"/>
      <point x="114" y="150"/>
      <point x="114" y="261" type="curve" smooth="yes"/>
      <point x="114" y="415"/>
      <point x="198" y="504"/>
      <point x="308" y="504" type="curve" smooth="yes"/>
      <point x="439" y="504"/>
      <point x="509" y="414"/>
      <point x="509" y="262" type="curve" smooth="yes"/>
      <point x="509" y="176"/>
      <point x="493" y="106"/>
      <point x="470" y="48" type="curve"/>
      <point x="493" y="0" type="line"/>
      <point x="832" y="0" type="line"/>
      <point x="832" y="419" type="line" smooth="yes"/>
      <point x="832" y="479"/>
      <point x="851" y="505"/>
      <point x="889" y="505" type="curve" smooth="yes"/>
      <point x="933" y="505"/>
      <point x="949" y="474"/>
      <point x="949" y="418" type="curve" smooth="yes"/>
      <point x="949" y="0" type="line"/>
      <point x="1133" y="0" type="line"/>
      <point x="1133" y="406" type="line" smooth="yes"/>
      <point x="1133" y="477"/>
      <point x="1152" y="506"/>
      <point x="1198" y="506" type="curve" smooth="yes"/>
      <point x="1259" y="506"/>
      <point x="1286" y="444"/>
      <point x="1286" y="266" type="curve" smooth="yes"/>
      <point x="1286" y="27"/>
      <point x="1228" y="-81"/>
      <point x="967" y="-81" type="curve" smooth="yes"/>
      <point x="299" y="-81" type="line" smooth="yes"/>
      <point x="189" y="-81"/>
      <point x="96" y="-103"/>
      <point x="96" y="-203" type="curve" smooth="yes"/>
      <point x="96" y="-271"/>
      <point x="148" y="-304"/>
    </contour>
  </outline>
</glyph>
<glyph name="aaMatra-tamil" format="2">
  <advance width="545"/>
  <unicode hex="0BBE"/>
  <note>
uni0BBE
</note>
  <anchor x="285" y="0" name="bottom"/>
  <anchor x="284" y="0" name="nukta"/>
  <anchor x="278" y="576" name="top"/>
  <anchor x="278" y="576" name="vedic"/>
  <outline>
    <contour>
      <point x="57" y="0" type="line"/>
      <point x="129" y="0" type="line"/>
      <point x="129" y="509" type="line"/>
      <point x="258" y="509" type="line"/>
      <point x="258" y="0" type="line"/>
      <point x="435" y="0" type="line"/>
      <point x="435" y="509" type="line"/>
      <point x="530" y="509" type="line"/>
      <point x="530" y="576" type="line"/>
      <point x="57" y="576" type="line"/>
    </contour>
  </outline>
</glyph>
<glyph name="iMatra-tamil" format="2">
  <advance width="216"/>
  <unicode hex="0BBF"/>
  <note>
uni0BBF
</note>
  <outline>
    <contour>
      <point x="85" y="0" type="line"/>
      <point x="158" y="0" type="line"/>
      <point x="158" y="563" type="line" smooth="yes"/>
      <point x="158" y="766"/>
      <point x="29" y="846"/>
      <point x="-116" y="846" type="curve" smooth="yes"/>
      <point x="-245" y="846"/>
      <point x="-323" y="775"/>
      <point x="-323" y="668" type="curve" smooth="yes"/>
      <point x="-323" y="570"/>
      <point x="-255" y="515"/>
      <point x="-134" y="515" type="curve" smooth="yes"/>
      <point x="-133" y="515" type="line"/>
      <point x="-133" y="576" type="line"/>
      <point x="-134" y="576" type="line" smooth="yes"/>
      <point x="-184" y="576"/>
      <point x="-225" y="591"/>
      <point x="-225" y="635" type="curve" smooth="yes"/>
      <point x="-225" y="673"/>
      <point x="-189" y="705"/>
      <point x="-108" y="705" type="curve" smooth="yes"/>
      <point x="-15" y="705"/>
      <point x="85" y="657"/>
      <point x="85" y="522" type="curve" smooth="yes"/>
    </contour>
  </outline>
</glyph>
<glyph name="iiMatra-tamil" format="2">
  <unicode hex="0BC0"/>
  <note>
uni0BC0
</note>
  <anchor x="0" y="576" name="_imatra"/>
  <anchor x="-3" y="929" name="top"/>
  <outline>
    <contour>
      <point x="-29" y="509" type="curve" smooth="yes"/>
      <point x="-1" y="509" type="line"/>
      <point x="-1" y="576" type="line"/>
      <point x="-25" y="576" type="line" smooth="yes"/>
      <point x="-88" y="576"/>
      <point x="-141" y="619"/>
      <point x="-141" y="708" type="curve" smooth="yes"/>
      <point x="-141" y="797"/>
      <point x="-95" y="858"/>
      <point x="-23" y="858" type="curve" smooth="yes"/>
      <point x="31" y="858"/>
      <point x="55" y="817"/>
      <point x="55" y="765" type="curve" smooth="yes"/>
      <point x="55" y="729"/>
      <point x="38" y="704"/>
      <point x="10" y="704" type="curve" smooth="yes"/>
      <point x="-38" y="704"/>
      <point x="-51" y="794"/>
      <point x="-17" y="880" type="curve"/>
      <point x="-63" y="885" type="line"/>
      <point x="-120" y="761"/>
      <point x="-89" y="612"/>
      <point x="50" y="612" type="curve" smooth="yes"/>
      <point x="126" y="612"/>
      <point x="188" y="662"/>
      <point x="188" y="756" type="curve" smooth="yes"/>
      <point x="188" y="856"/>
      <point x="115" y="929"/>
      <point x="-3" y="929" type="curve" smooth="yes"/>
      <point x="-132" y="929"/>
      <point x="-209" y="829"/>
      <point x="-209" y="712" type="curve" smooth="yes"/>
      <point x="-209" y="584"/>
      <point x="-143" y="509"/>
    </contour>
  </outline>
</glyph>
<glyph name="uuMatra-tamil" format="2">
  <advance width="765"/>
  <unicode hex="0BC2"/>
  <note>
uni0BC2
</note>
  <outline>
    <contour>
      <point x="310" y="9" type="curve" smooth="yes"/>
      <point x="521" y="9"/>
      <point x="701" y="132"/>
      <point x="701" y="404" type="curve" smooth="yes"/>
      <point x="701" y="659"/>
      <point x="553" y="792"/>
      <point x="347" y="792" type="curve" smooth="yes"/>
      <point x="145" y="792"/>
      <point x="61" y="660"/>
      <point x="61" y="528" type="curve" smooth="yes"/>
      <point x="61" y="417" type="line" smooth="yes"/>
      <point x="61" y="293"/>
      <point x="116" y="230"/>
      <point x="227" y="230" type="curve" smooth="yes"/>
      <point x="337" y="230"/>
      <point x="411" y="291"/>
      <point x="411" y="414" type="curve" smooth="yes"/>
      <point x="411" y="576" type="line"/>
      <point x="-264" y="576" type="line"/>
      <point x="-210" y="509" type="line"/>
      <point x="232" y="509" type="line"/>
      <point x="232" y="390" type="line" smooth="yes"/>
      <point x="232" y="342"/>
      <point x="212" y="319"/>
      <point x="178" y="319" type="curve" smooth="yes"/>
      <point x="145" y="319"/>
      <point x="130" y="346"/>
      <point x="130" y="404" type="curve" smooth="yes"/>
      <point x="130" y="528" type="line" smooth="yes"/>
      <point x="130" y="618"/>
      <point x="179" y="711"/>
      <point x="304" y="711" type="curve" smooth="yes"/>
      <point x="443" y="711"/>
      <point x="508" y="600"/>
      <point x="508" y="411" type="curve" smooth="yes"/>
      <point x="508" y="195"/>
      <point x="413" y="90"/>
      <point x="274" y="90" type="curve" smooth="yes"/>
      <point x="186" y="90"/>
      <point x="137" y="121"/>
      <point x="79" y="183" type="curve"/>
      <point x="25" y="130" type="line"/>
      <point x="92" y="61"/>
      <point x="156" y="9"/>
    </contour>
  </outline>
</glyph>
<glyph name="eMatra-tamil" format="2">
  <advance width="701"/>
  <unicode hex="0BC6"/>
  <note>
uni0BC6
</note>
  <outline>
    <contour>
      <point x="285" y="-5" type="curve" smooth="yes"/>
      <point x="391" y="-5"/>
      <point x="465" y="62"/>
      <point x="465" y="175" type="curve" smooth="yes"/>
      <point x="465" y="267"/>
      <point x="413" y="342"/>
      <point x="319" y="342" type="curve" smooth="yes"/>
      <point x="213" y="342"/>
      <point x="158" y="241"/>
      <point x="154" y="117" type="curve"/>
      <point x="196" y="90" type="line"/>
      <point x="200" y="179"/>
      <point x="220" y="235"/>
      <point x="261" y="235" type="curve" smooth="yes"/>
      <point x="289" y="235"/>
      <point x="308" y="205"/>
      <point x="308" y="160" type="curve" smooth="yes"/>
      <point x="308" y="106"/>
      <point x="290" y="77"/>
      <point x="252" y="77" type="curve" smooth="yes"/>
      <point x="202" y="77"/>
      <point x="120" y="168"/>
      <point x="120" y="378" type="curve" smooth="yes"/>
      <point x="120" y="593"/>
      <point x="230" y="698"/>
      <point x="368" y="698" type="curve" smooth="yes"/>
      <point x="474" y="698"/>
      <point x="572" y="640"/>
      <point x="572" y="478" type="curve" smooth="yes"/>
      <point x="572" y="0" type="line"/>
      <point x="643" y="0" type="line"/>
      <point x="643" y="519" type="line" smooth="yes"/>
      <point x="643" y="732"/>
      <point x="538" y="846"/>
      <point x="374" y="846" type="curve" smooth="yes"/>
      <point x="149" y="846"/>
      <point x="49" y="648"/>
      <point x="49" y="379" type="curve" smooth="yes"/>
      <point x="49" y="126"/>
      <point x="160" y="-5"/>
    </contour>
  </outline>
</glyph>
<glyph name="eeMatra-tamil" format="2">
  <advance width="546"/>
  <unicode hex="0BC7"/>
  <note>
uni0BC7
</note>
  <outline>
    <contour>
      <point x="337" y="-5" type="curve" smooth="yes"/>
      <point x="442" y="-5"/>
      <point x="514" y="62"/>
      <point x="514" y="175" type="curve" smooth="yes"/>
      <point x="514" y="267"/>
      <point x="460" y="342"/>
      <point x="366" y="342" type="curve" smooth="yes"/>
      <point x="258" y="342"/>
      <point x="205" y="241"/>
      <point x="201" y="117" type="curve"/>
      <point x="246" y="90" type="line"/>
      <point x="250" y="179"/>
      <point x="270" y="235"/>
      <point x="310" y="235" type="curve" smooth="yes"/>
      <point x="338" y="235"/>
      <point x="357" y="205"/>
      <point x="357" y="160" type="curve" smooth="yes"/>
      <point x="357" y="106"/>
      <point x="339" y="77"/>
      <point x="301" y="77" type="curve" smooth="yes"/>
      <point x="231" y="77"/>
      <point x="122" y="210"/>
      <point x="122" y="421" type="curve" smooth="yes"/>
      <point x="122" y="631"/>
      <point x="231" y="764"/>
      <point x="301" y="764" type="curve" smooth="yes"/>
      <point x="339" y="764"/>
      <point x="357" y="734"/>
      <point x="357" y="681" type="curve" smooth="yes"/>
      <point x="357" y="636"/>
      <point x="338" y="605"/>
      <point x="310" y="605" type="curve" smooth="yes"/>
      <point x="270" y="605"/>
      <point x="250" y="662"/>
      <point x="246" y="751" type="curve"/>
      <point x="201" y="724" type="line"/>
      <point x="205" y="600"/>
      <point x="258" y="499"/>
      <point x="366" y="499" type="curve" smooth="yes"/>
      <point x="460" y="499"/>
      <point x="514" y="574"/>
      <point x="514" y="666" type="curve" smooth="yes"/>
      <point x="514" y="779"/>
      <point x="442" y="846"/>
      <point x="337" y="846" type="curve" smooth="yes"/>
      <point x="183" y="846"/>
      <point x="51" y="674"/>
      <point x="51" y="421" type="curve" smooth="yes"/>
      <point x="51" y="168"/>
      <point x="183" y="-5"/>
    </contour>
  </outline>
</glyph>
<glyph name="aiMatra-tamil" format="2">
  <advance width="1145"/>
  <unicode hex="0BC8"/>
  <note>
uni0BC8
</note>
  <outline>
    <contour>
      <point x="898" y="-14" type="line"/>
      <point x="1005" y="32"/>
      <point x="1103" y="122"/>
      <point x="1103" y="280" type="curve" smooth="yes"/>
      <point x="1103" y="473"/>
      <point x="967" y="582"/>
      <point x="787" y="582" type="curve" smooth="yes"/>
      <point x="582" y="582"/>
      <point x="474" y="386"/>
      <point x="474" y="193" type="curve" smooth="yes"/>
      <point x="474" y="76"/>
      <point x="520" y="-4"/>
      <point x="631" y="-4" type="curve" smooth="yes"/>
      <point x="740" y="-4"/>
      <point x="805" y="74"/>
      <point x="805" y="197" type="curve" smooth="yes"/>
      <point x="805" y="417"/>
      <point x="643" y="582"/>
      <point x="385" y="582" type="curve" smooth="yes"/>
      <point x="173" y="582"/>
      <point x="42" y="440"/>
      <point x="42" y="262" type="curve" smooth="yes"/>
      <point x="42" y="109"/>
      <point x="119" y="-5"/>
      <point x="244" y="-5" type="curve" smooth="yes"/>
      <point x="350" y="-5"/>
      <point x="424" y="62"/>
      <point x="424" y="175" type="curve" smooth="yes"/>
      <point x="424" y="267"/>
      <point x="372" y="342"/>
      <point x="278" y="342" type="curve" smooth="yes"/>
      <point x="172" y="342"/>
      <point x="117" y="241"/>
      <point x="113" y="117" type="curve"/>
      <point x="155" y="90" type="line"/>
      <point x="159" y="179"/>
      <point x="179" y="235"/>
      <point x="220" y="235" type="curve" smooth="yes"/>
      <point x="248" y="235"/>
      <point x="267" y="205"/>
      <point x="267" y="160" type="curve" smooth="yes"/>
      <point x="267" y="106"/>
      <point x="249" y="77"/>
      <point x="211" y="77" type="curve" smooth="yes"/>
      <point x="161" y="77"/>
      <point x="114" y="150"/>
      <point x="114" y="261" type="curve" smooth="yes"/>
      <point x="114" y="415"/>
      <point x="237" y="509"/>
      <point x="364" y="509" type="curve" smooth="yes"/>
      <point x="555" y="509"/>
      <point x="652" y="362"/>
      <point x="652" y="180" type="curve" smooth="yes"/>
      <point x="652" y="113"/>
      <point x="635" y="79"/>
      <point x="598" y="79" type="curve" smooth="yes"/>
      <point x="565" y="79"/>
      <point x="543" y="115"/>
      <point x="543" y="185" type="curve" smooth="yes"/>
      <point x="543" y="363"/>
      <point x="619" y="509"/>
      <point x="765" y="509" type="curve" smooth="yes"/>
      <point x="875" y="509"/>
      <point x="950" y="434"/>
      <point x="950" y="275" type="curve" smooth="yes"/>
      <point x="950" y="164"/>
      <point x="923" y="95"/>
      <point x="866" y="36" type="curve"/>
    </contour>
  </outline>
</glyph>
<glyph name="halant-tamil" format="2">
  <unicode hex="0BCD"/>
  <note>
uni0BCD
</note>
  <anchor x="0" y="576" name="_top"/>
  <anchor x="0" y="772" name="top"/>
  <outline>
    <contour>
      <point x="0" y="636" type="curve" smooth="yes"/>
      <point x="49" y="636"/>
      <point x="90" y="676"/>
      <point x="90" y="723" type="curve" smooth="yes"/>
      <point x="90" y="771"/>
      <point x="49" y="811"/>
      <point x="1" y="811" type="curve" smooth="yes"/>
      <point x="-49" y="811"/>
      <point x="-89" y="771"/>
      <point x="-89" y="723" type="curve" smooth="yes"/>
      <point x="-89" y="676"/>
      <point x="-49" y="636"/>
    </contour>
  </outline>
</glyph>
<glyph name="om-tamil" format="2">
  <advance width="927"/>
  <unicode hex="0BD0"/>
  <note>
uni0BD0
</note>
  <outline>
    <contour>
      <point x="316" y="-392" type="curve" smooth="yes"/>
      <point x="575" y="-392"/>
      <point x="583" y="-158"/>
      <point x="715" y="-158" type="curve" smooth="yes"/>
      <point x="766" y="-158" type="line"/>
      <point x="766" y="-92" type="line"/>
      <point x="693" y="-92" type="line" smooth="yes"/>
      <point x="589" y="-92"/>
      <point x="518" y="-21"/>
      <point x="518" y="89" type="curve" smooth="yes"/>
      <point x="518" y="128"/>
      <point x="528" y="173"/>
      <point x="548" y="221" type="curve"/>
      <point x="554" y="218" type="line"/>
      <point x="551" y="198"/>
      <point x="549" y="179"/>
      <point x="549" y="160" type="curve" smooth="yes"/>
      <point x="549" y="66"/>
      <point x="594" y="-3"/>
      <point x="706" y="-3" type="curve" smooth="yes"/>
      <point x="805" y="-3"/>
      <point x="885" y="64"/>
      <point x="885" y="200" type="curve" smooth="yes"/>
      <point x="885" y="449"/>
      <point x="683" y="582"/>
      <point x="434" y="582" type="curve" smooth="yes"/>
      <point x="189" y="582"/>
      <point x="42" y="423"/>
      <point x="42" y="252" type="curve" smooth="yes"/>
      <point x="42" y="107"/>
      <point x="119" y="5"/>
      <point x="244" y="5" type="curve" smooth="yes"/>
      <point x="350" y="5"/>
      <point x="424" y="72"/>
      <point x="424" y="185" type="curve" smooth="yes"/>
      <point x="424" y="276"/>
      <point x="372" y="352"/>
      <point x="278" y="352" type="curve" smooth="yes"/>
      <point x="172" y="352"/>
      <point x="117" y="251"/>
      <point x="113" y="126" type="curve"/>
      <point x="155" y="90" type="line"/>
      <point x="159" y="188"/>
      <point x="179" y="245"/>
      <point x="220" y="245" type="curve" smooth="yes"/>
      <point x="248" y="245"/>
      <point x="267" y="214"/>
      <point x="267" y="170" type="curve" smooth="yes"/>
      <point x="267" y="116"/>
      <point x="249" y="86"/>
      <point x="211" y="86" type="curve" smooth="yes"/>
      <point x="161" y="86"/>
      <point x="114" y="149"/>
      <point x="114" y="251" type="curve" smooth="yes"/>
      <point x="114" y="399"/>
      <point x="253" y="511"/>
      <point x="413" y="511" type="curve" smooth="yes"/>
      <point x="595" y="511"/>
      <point x="722" y="411"/>
      <point x="722" y="219" type="curve" smooth="yes"/>
      <point x="722" y="122"/>
      <point x="692" y="86"/>
      <point x="653" y="86" type="curve" smooth="yes"/>
      <point x="622" y="86"/>
      <point x="602" y="115"/>
      <point x="602" y="168" type="curve" smooth="yes"/>
      <point x="602" y="195"/>
      <point x="608" y="229"/>
      <point x="620" y="269" type="curve"/>
      <point x="535" y="309" type="line"/>
      <point x="483" y="217"/>
      <point x="460" y="138"/>
      <point x="460" y="74" type="curve" smooth="yes"/>
      <point x="460" y="-21"/>
      <point x="509" y="-86"/>
      <point x="583" y="-119" type="curve"/>
      <point x="583" y="-124" type="line"/>
      <point x="478" y="-136"/>
      <point x="481" y="-319"/>
      <point x="286" y="-319" type="curve" smooth="yes"/>
      <point x="193" y="-319"/>
      <point x="136" y="-276"/>
      <point x="136" y="-203" type="curve" smooth="yes"/>
      <point x="136" y="-196"/>
      <point x="137" y="-188"/>
      <point x="138" y="-180" type="curve"/>
      <point x="78" y="-170" type="line"/>
      <point x="76" y="-182"/>
      <point x="75" y="-193"/>
      <point x="75" y="-205" type="curve" smooth="yes"/>
      <point x="75" y="-315"/>
      <point x="155" y="-392"/>
    </contour>
    <contour>
      <point x="191" y="-257" type="line"/>
      <point x="244" y="-257" type="line"/>
      <point x="244" y="-100" type="line"/>
      <point x="191" y="-100" type="line"/>
    </contour>
    <contour>
      <point x="208" y="-257" type="line"/>
      <point x="380" y="-257" type="line"/>
      <point x="380" y="-208" type="line"/>
      <point x="208" y="-208" type="line"/>
    </contour>
    <contour>
      <point x="272" y="-257" type="line"/>
      <point x="324" y="-257" type="line"/>
      <point x="324" y="-161" type="line" smooth="yes"/>
      <point x="324" y="-150"/>
      <point x="329" y="-144"/>
      <point x="336" y="-144" type="curve" smooth="yes"/>
      <point x="346" y="-144"/>
      <point x="350" y="-150"/>
      <point x="350" y="-161" type="curve" smooth="yes"/>
      <point x="350" y="-257" type="line"/>
      <point x="402" y="-257" type="line"/>
      <point x="402" y="-168" type="line" smooth="yes"/>
      <point x="402" y="-118"/>
      <point x="373" y="-98"/>
      <point x="336" y="-98" type="curve" smooth="yes"/>
      <point x="299" y="-98"/>
      <point x="272" y="-118"/>
      <point x="272" y="-168" type="curve" smooth="yes"/>
    </contour>
    <contour>
      <point x="301" y="-79" type="curve" smooth="yes"/>
      <point x="318" y="-79"/>
      <point x="333" y="-64"/>
      <point x="333" y="-48" type="curve" smooth="yes"/>
      <point x="333" y="-31"/>
      <point x="318" y="-17"/>
      <point x="301" y="-17" type="curve" smooth="yes"/>
      <point x="283" y="-17"/>
      <point x="270" y="-31"/>
      <point x="270" y="-48" type="curve" smooth="yes"/>
      <point x="270" y="-64"/>
      <point x="283" y="-79"/>
    </contour>
  </outline>
</glyph>
<glyph name="zero-tamil" format="2">
  <advance width="540"/>
  <unicode hex="0BE6"/>
  <note>
uni0BE6
</note>
  <outline>
    <contour>
      <point x="259" y="-5" type="curve" smooth="yes"/>
      <point x="404" y="-5"/>
      <point x="498" y="97"/>
      <point x="498" y="288" type="curve" smooth="yes"/>
      <point x="498" y="484"/>
      <point x="408" y="582"/>
      <point x="269" y="582" type="curve" smooth="yes"/>
      <point x="125" y="582"/>
      <point x="42" y="466"/>
      <point x="42" y="282" type="curve" smooth="yes"/>
      <point x="42" y="107"/>
      <point x="116" y="-5"/>
    </contour>
    <contour>
      <point x="231" y="79" type="curve" smooth="yes"/>
      <point x="144" y="79"/>
      <point x="112" y="168"/>
      <point x="112" y="288" type="curve" smooth="yes"/>
      <point x="112" y="414"/>
      <point x="149" y="497"/>
      <point x="231" y="497" type="curve" smooth="yes"/>
      <point x="310" y="497"/>
      <point x="349" y="428"/>
      <point x="349" y="288" type="curve" smooth="yes"/>
      <point x="349" y="153"/>
      <point x="308" y="79"/>
    </contour>
  </outline>
</glyph>
<glyph name="one-tamil" format="2">
  <advance width="761"/>
  <unicode hex="0BE7"/>
  <note>
uni0BE7
</note>
  <outline>
    <contour>
      <point x="244" y="-4" type="curve" smooth="yes"/>
      <point x="383" y="-4"/>
      <point x="477" y="65"/>
      <point x="477" y="203" type="curve" smooth="yes"/>
      <point x="477" y="273" type="line"/>
      <point x="492" y="273" type="line" smooth="yes"/>
      <point x="531" y="273"/>
      <point x="551" y="238"/>
      <point x="551" y="167" type="curve" smooth="yes"/>
      <point x="551" y="97"/>
      <point x="524" y="74"/>
      <point x="494" y="74" type="curve" smooth="yes"/>
      <point x="466" y="74"/>
      <point x="449" y="95"/>
      <point x="431" y="131" type="curve"/>
      <point x="382" y="94" type="line"/>
      <point x="415" y="37"/>
      <point x="453" y="-5"/>
      <point x="535" y="-5" type="curve" smooth="yes"/>
      <point x="630" y="-5"/>
      <point x="720" y="42"/>
      <point x="720" y="170" type="curve" smooth="yes"/>
      <point x="720" y="297"/>
      <point x="633" y="340"/>
      <point x="506" y="340" type="curve" smooth="yes"/>
      <point x="477" y="340" type="line"/>
      <point x="477" y="509" type="line"/>
      <point x="597" y="509" type="line"/>
      <point x="597" y="576" type="line"/>
      <point x="128" y="576" type="line"/>
      <point x="128" y="303" type="line"/>
      <point x="198" y="303" type="line"/>
      <point x="198" y="509" type="line"/>
      <point x="296" y="509" type="line"/>
      <point x="296" y="340" type="line"/>
      <point x="192" y="340" type="line" smooth="yes"/>
      <point x="117" y="340"/>
      <point x="41" y="274"/>
      <point x="41" y="178" type="curve" smooth="yes"/>
      <point x="41" y="72"/>
      <point x="106" y="-4"/>
    </contour>
    <contour>
      <point x="198" y="78" type="curve" smooth="yes"/>
      <point x="152" y="78"/>
      <point x="111" y="113"/>
      <point x="111" y="176" type="curve" smooth="yes"/>
      <point x="111" y="231"/>
      <point x="137" y="273"/>
      <point x="194" y="273" type="curve" smooth="yes"/>
      <point x="296" y="273" type="line"/>
      <point x="296" y="191" type="line" smooth="yes"/>
      <point x="296" y="111"/>
      <point x="258" y="78"/>
    </contour>
  </outline>
</glyph>
<glyph name="two-tamil" format="2">
  <advance width="849"/>
  <unicode hex="0BE8"/>
  <note>
uni0BE8
</note>
  <outline>
    <contour>
      <point x="138" y="0" type="curve" smooth="yes"/>
      <point x="832" y="0" type="line"/>
      <point x="832" y="67" type="line"/>
      <point x="134" y="67" type="line" smooth="yes"/>
      <point x="121" y="67"/>
      <point x="108" y="81"/>
      <point x="108" y="100" type="curve" smooth="yes"/>
      <point x="108" y="119"/>
      <point x="121" y="131"/>
      <point x="134" y="131" type="curve" smooth="yes"/>
      <point x="333" y="131" type="line" smooth="yes"/>
      <point x="518" y="131"/>
      <point x="609" y="214"/>
      <point x="609" y="355" type="curve" smooth="yes"/>
      <point x="609" y="505"/>
      <point x="507" y="581"/>
      <point x="356" y="581" type="curve" smooth="yes"/>
      <point x="201" y="581"/>
      <point x="123" y="485"/>
      <point x="123" y="358" type="curve" smooth="yes"/>
      <point x="123" y="228"/>
      <point x="172" y="152"/>
      <point x="311" y="152" type="curve"/>
      <point x="312" y="194" type="line"/>
      <point x="213" y="194"/>
      <point x="190" y="260"/>
      <point x="190" y="356" type="curve" smooth="yes"/>
      <point x="190" y="453"/>
      <point x="236" y="513"/>
      <point x="314" y="513" type="curve" smooth="yes"/>
      <point x="391" y="513"/>
      <point x="446" y="465"/>
      <point x="446" y="356" type="curve" smooth="yes"/>
      <point x="446" y="250"/>
      <point x="396" y="194"/>
      <point x="312" y="194" type="curve" smooth="yes"/>
      <point x="138" y="194" type="line" smooth="yes"/>
      <point x="81" y="194"/>
      <point x="44" y="157"/>
      <point x="44" y="100" type="curve" smooth="yes"/>
      <point x="44" y="42"/>
      <point x="81" y="0"/>
    </contour>
  </outline>
</glyph>
<glyph name="three-tamil" format="2">
  <advance width="739"/>
  <unicode hex="0BE9"/>
  <note>
uni0BE9
</note>
  <outline>
    <contour>
      <point x="57" y="0" type="line"/>
      <point x="129" y="0" type="line"/>
      <point x="129" y="509" type="line"/>
      <point x="215" y="509" type="line"/>
      <point x="215" y="175" type="line"/>
      <point x="376" y="175" type="line"/>
      <point x="376" y="249" type="line" smooth="yes"/>
      <point x="376" y="271"/>
      <point x="384" y="288"/>
      <point x="403" y="288" type="curve" smooth="yes"/>
      <point x="425" y="288"/>
      <point x="436" y="268"/>
      <point x="436" y="221" type="curve" smooth="yes"/>
      <point x="436" y="136"/>
      <point x="390" y="67"/>
      <point x="316" y="67" type="curve" smooth="yes"/>
      <point x="215" y="67" type="line"/>
      <point x="215" y="0" type="line"/>
      <point x="724" y="0" type="line"/>
      <point x="724" y="67" type="line"/>
      <point x="459" y="67" type="line"/>
      <point x="545" y="94"/>
      <point x="598" y="161"/>
      <point x="598" y="252" type="curve" smooth="yes"/>
      <point x="598" y="346"/>
      <point x="556" y="398"/>
      <point x="482" y="398" type="curve" smooth="yes"/>
      <point x="431" y="398"/>
      <point x="402" y="369"/>
      <point x="382" y="336" type="curve"/>
      <point x="382" y="509" type="line"/>
      <point x="509" y="509" type="line"/>
      <point x="509" y="576" type="line"/>
      <point x="57" y="576" type="line"/>
    </contour>
  </outline>
</glyph>
<glyph name="four-tamil" format="2">
  <advance width="759"/>
  <unicode hex="0BEA"/>
  <note>
uni0BEA
</note>
  <outline>
    <contour>
      <point x="244" y="-4" type="curve" smooth="yes"/>
      <point x="383" y="-4"/>
      <point x="476" y="65"/>
      <point x="476" y="203" type="curve" smooth="yes"/>
      <point x="476" y="273" type="line"/>
      <point x="734" y="273" type="line"/>
      <point x="734" y="576" type="line"/>
      <point x="659" y="576" type="line"/>
      <point x="659" y="340" type="line"/>
      <point x="476" y="340" type="line"/>
      <point x="476" y="509" type="line"/>
      <point x="597" y="509" type="line"/>
      <point x="597" y="576" type="line"/>
      <point x="128" y="576" type="line"/>
      <point x="128" y="303" type="line"/>
      <point x="198" y="303" type="line"/>
      <point x="198" y="509" type="line"/>
      <point x="298" y="509" type="line"/>
      <point x="298" y="340" type="line"/>
      <point x="192" y="340" type="line" smooth="yes"/>
      <point x="117" y="340"/>
      <point x="41" y="274"/>
      <point x="41" y="178" type="curve" smooth="yes"/>
      <point x="41" y="72"/>
      <point x="106" y="-4"/>
    </contour>
    <contour>
      <point x="198" y="78" type="curve" smooth="yes"/>
      <point x="152" y="78"/>
      <point x="111" y="113"/>
      <point x="111" y="176" type="curve" smooth="yes"/>
      <point x="111" y="231"/>
      <point x="137" y="273"/>
      <point x="194" y="273" type="curve" smooth="yes"/>
      <point x="298" y="273" type="line"/>
      <point x="298" y="191" type="line" smooth="yes"/>
      <point x="298" y="111"/>
      <point x="258" y="78"/>
    </contour>
  </outline>
</glyph>
<glyph name="five-tamil" format="2">
  <advance width="1018"/>
  <unicode hex="0BEB"/>
  <note>
uni0BEB
</note>
  <outline>
    <contour>
      <point x="485" y="-275" type="curve" smooth="yes"/>
      <point x="694" y="-275"/>
      <point x="911" y="-152"/>
      <point x="911" y="109" type="curve" smooth="yes"/>
      <point x="911" y="266"/>
      <point x="840" y="355"/>
      <point x="738" y="355" type="curve" smooth="yes"/>
      <point x="643" y="355"/>
      <point x="595" y="276"/>
      <point x="595" y="170" type="curve" smooth="yes"/>
      <point x="595" y="139" type="line"/>
      <point x="611" y="139" type="line"/>
      <point x="611" y="166" type="line" smooth="yes"/>
      <point x="611" y="213"/>
      <point x="636" y="245"/>
      <point x="674" y="245" type="curve" smooth="yes"/>
      <point x="719" y="245"/>
      <point x="753" y="206"/>
      <point x="753" y="106" type="curve" smooth="yes"/>
      <point x="753" y="-114"/>
      <point x="624" y="-203"/>
      <point x="473" y="-203" type="curve" smooth="yes"/>
      <point x="265" y="-203"/>
      <point x="125" y="-53"/>
      <point x="125" y="252" type="curve" smooth="yes"/>
      <point x="125" y="553"/>
      <point x="272" y="705"/>
      <point x="503" y="705" type="curve" smooth="yes"/>
      <point x="674" y="705"/>
      <point x="848" y="652"/>
      <point x="894" y="399" type="curve"/>
      <point x="964" y="399" type="line"/>
      <point x="929" y="703"/>
      <point x="762" y="846"/>
      <point x="509" y="846" type="curve" smooth="yes"/>
      <point x="208" y="846"/>
      <point x="49" y="608"/>
      <point x="49" y="252" type="curve" smooth="yes"/>
      <point x="49" y="-84"/>
      <point x="215" y="-275"/>
    </contour>
    <contour>
      <point x="267" y="0" type="line"/>
      <point x="339" y="0" type="line"/>
      <point x="339" y="509" type="line"/>
      <point x="434" y="509" type="line"/>
      <point x="434" y="0" type="line"/>
      <point x="611" y="0" type="line"/>
      <point x="611" y="509" type="line"/>
      <point x="736" y="509" type="line"/>
      <point x="736" y="576" type="line"/>
      <point x="267" y="576" type="line"/>
    </contour>
  </outline>
</glyph>
<glyph name="eight-tamil" format="2">
  <advance width="1162"/>
  <unicode hex="0BEE"/>
  <note>
uni0BEE
</note>
  <outline>
    <contour>
      <point x="928" y="-221" type="line"/>
      <point x="1105" y="-221" type="line"/>
      <point x="1105" y="576" type="line"/>
      <point x="928" y="576" type="line"/>
      <point x="928" y="157" type="line"/>
      <point x="105" y="157" type="line" smooth="yes"/>
      <point x="58" y="157"/>
      <point x="22" y="125"/>
      <point x="22" y="74" type="curve" smooth="yes"/>
      <point x="22" y="-58"/>
      <point x="175" y="-156"/>
      <point x="372" y="-156" type="curve" smooth="yes"/>
      <point x="634" y="-156"/>
      <point x="843" y="-22"/>
      <point x="843" y="231" type="curve" smooth="yes"/>
      <point x="843" y="456"/>
      <point x="708" y="581"/>
      <point x="531" y="581" type="curve" smooth="yes"/>
      <point x="357" y="581"/>
      <point x="294" y="452"/>
      <point x="294" y="323" type="curve" smooth="yes"/>
      <point x="294" y="258"/>
      <point x="316" y="188"/>
      <point x="351" y="124" type="curve"/>
      <point x="420" y="124" type="line"/>
      <point x="381" y="197"/>
      <point x="368" y="261"/>
      <point x="368" y="318" type="curve" smooth="yes"/>
      <point x="368" y="420"/>
      <point x="410" y="509"/>
      <point x="509" y="509" type="curve" smooth="yes"/>
      <point x="613" y="509"/>
      <point x="680" y="420"/>
      <point x="680" y="252" type="curve" smooth="yes"/>
      <point x="680" y="7"/>
      <point x="530" y="-86"/>
      <point x="343" y="-86" type="curve" smooth="yes"/>
      <point x="209" y="-86"/>
      <point x="102" y="-11"/>
      <point x="102" y="60" type="curve" smooth="yes"/>
      <point x="102" y="79"/>
      <point x="113" y="88"/>
      <point x="132" y="88" type="curve" smooth="yes"/>
      <point x="928" y="88" type="line"/>
    </contour>
  </outline>
</glyph>
<glyph name="nine-tamil" format="2">
  <advance width="1086"/>
  <unicode hex="0BEF"/>
  <note>
uni0BEF
</note>
  <outline>
    <contour>
      <point x="895" y="-15" type="line"/>
      <point x="994" y="29"/>
      <point x="1051" y="98"/>
      <point x="1051" y="205" type="curve" smooth="yes"/>
      <point x="1051" y="355"/>
      <point x="935" y="439"/>
      <point x="786" y="439" type="curve" smooth="yes"/>
      <point x="620" y="439"/>
      <point x="527" y="333"/>
      <point x="527" y="183" type="curve" smooth="yes"/>
      <point x="527" y="68"/>
      <point x="577" y="-5"/>
      <point x="676" y="-5" type="curve" smooth="yes"/>
      <point x="757" y="-5"/>
      <point x="827" y="47"/>
      <point x="827" y="153" type="curve" smooth="yes"/>
      <point x="827" y="271"/>
      <point x="736" y="340"/>
      <point x="619" y="340" type="curve" smooth="yes"/>
      <point x="476" y="340" type="line"/>
      <point x="476" y="509" type="line"/>
      <point x="597" y="509" type="line"/>
      <point x="597" y="576" type="line"/>
      <point x="128" y="576" type="line"/>
      <point x="128" y="303" type="line"/>
      <point x="198" y="303" type="line"/>
      <point x="198" y="509" type="line"/>
      <point x="298" y="509" type="line"/>
      <point x="298" y="340" type="line"/>
      <point x="192" y="340" type="line" smooth="yes"/>
      <point x="117" y="340"/>
      <point x="41" y="274"/>
      <point x="41" y="178" type="curve" smooth="yes"/>
      <point x="41" y="72"/>
      <point x="106" y="-4"/>
      <point x="244" y="-4" type="curve" smooth="yes"/>
      <point x="383" y="-4"/>
      <point x="476" y="65"/>
      <point x="476" y="203" type="curve" smooth="yes"/>
      <point x="476" y="273" type="line"/>
      <point x="592" y="273" type="line" smooth="yes"/>
      <point x="649" y="273"/>
      <point x="678" y="221"/>
      <point x="678" y="149" type="curve" smooth="yes"/>
      <point x="678" y="97"/>
      <point x="661" y="76"/>
      <point x="639" y="76" type="curve" smooth="yes"/>
      <point x="610" y="76"/>
      <point x="588" y="117"/>
      <point x="588" y="181" type="curve" smooth="yes"/>
      <point x="588" y="298"/>
      <point x="655" y="365"/>
      <point x="745" y="365" type="curve" smooth="yes"/>
      <point x="834" y="365"/>
      <point x="903" y="299"/>
      <point x="903" y="193" type="curve" smooth="yes"/>
      <point x="903" y="128"/>
      <point x="888" y="82"/>
      <point x="861" y="35" type="curve"/>
    </contour>
    <contour>
      <point x="198" y="78" type="curve" smooth="yes"/>
      <point x="152" y="78"/>
      <point x="111" y="113"/>
      <point x="111" y="176" type="curve" smooth="yes"/>
      <point x="111" y="231"/>
      <point x="137" y="273"/>
      <point x="194" y="273" type="curve" smooth="yes"/>
      <point x="298" y="273" type="line"/>
      <point x="298" y="191" type="line" smooth="yes"/>
      <point x="298" y="111"/>
      <point x="258" y="78"/>
    </contour>
  </outline>
</glyph>
<glyph name="onehundred-tamil" format="2">
  <advance width="747"/>
  <unicode hex="0BF1"/>
  <note>
uni0BF1
</note>
  <outline>
    <contour>
      <point x="224" y="0" type="line"/>
      <point x="294" y="0" type="line"/>
      <point x="294" y="509" type="line"/>
      <point x="429" y="509" type="line"/>
      <point x="429" y="0" type="line"/>
      <point x="607" y="0" type="line"/>
      <point x="607" y="509" type="line"/>
      <point x="701" y="509" type="line"/>
      <point x="701" y="576" type="line"/>
      <point x="224" y="576" type="line"/>
    </contour>
    <contour>
      <point x="47" y="0" type="line"/>
      <point x="119" y="0" type="line"/>
      <point x="119" y="450" type="line" smooth="yes"/>
      <point x="119" y="498"/>
      <point x="142" y="519"/>
      <point x="171" y="519" type="curve" smooth="yes"/>
      <point x="201" y="519"/>
      <point x="224" y="497"/>
      <point x="224" y="451" type="curve"/>
      <point x="250" y="451" type="line"/>
      <point x="250" y="542"/>
      <point x="206" y="584"/>
      <point x="148" y="584" type="curve" smooth="yes"/>
      <point x="70" y="584"/>
      <point x="47" y="519"/>
      <point x="47" y="438" type="curve" smooth="yes"/>
    </contour>
  </outline>
</glyph>
<glyph name="onethousand-tamil" format="2">
  <advance width="1058"/>
  <unicode hex="0BF2"/>
  <note>
uni0BF2
</note>
  <outline>
    <contour>
      <point x="251" y="-4" type="curve" smooth="yes"/>
      <point x="391" y="-4"/>
      <point x="483" y="65"/>
      <point x="483" y="203" type="curve" smooth="yes"/>
      <point x="483" y="509" type="line"/>
      <point x="604" y="509" type="line"/>
      <point x="604" y="576" type="line"/>
      <point x="136" y="576" type="line"/>
      <point x="136" y="303" type="line"/>
      <point x="206" y="303" type="line"/>
      <point x="206" y="509" type="line"/>
      <point x="306" y="509" type="line"/>
      <point x="306" y="191" type="line" smooth="yes"/>
      <point x="306" y="111"/>
      <point x="266" y="78"/>
      <point x="206" y="78" type="curve" smooth="yes"/>
      <point x="160" y="78"/>
      <point x="119" y="113"/>
      <point x="119" y="176" type="curve" smooth="yes"/>
      <point x="119" y="231"/>
      <point x="145" y="273"/>
      <point x="202" y="273" type="curve" smooth="yes"/>
      <point x="924" y="273" type="line"/>
      <point x="924" y="340" type="line"/>
      <point x="200" y="340" type="line" smooth="yes"/>
      <point x="125" y="340"/>
      <point x="49" y="274"/>
      <point x="49" y="178" type="curve" smooth="yes"/>
      <point x="49" y="72"/>
      <point x="114" y="-4"/>
    </contour>
    <contour>
      <point x="443" y="-323" type="curve"/>
      <point x="443" y="-208"/>
      <point x="471" y="-157"/>
      <point x="580" y="-157" type="curve" smooth="yes"/>
      <point x="708" y="-157" type="line" smooth="yes"/>
      <point x="930" y="-157"/>
      <point x="1004" y="-76"/>
      <point x="1004" y="37" type="curve" smooth="yes"/>
      <point x="1004" y="167"/>
      <point x="915" y="209"/>
      <point x="784" y="209" type="curve" smooth="yes"/>
      <point x="616" y="209" type="line" smooth="yes"/>
      <point x="559" y="209"/>
      <point x="510" y="167"/>
      <point x="510" y="96" type="curve" smooth="yes"/>
      <point x="510" y="26"/>
      <point x="550" y="-23"/>
      <point x="651" y="-23" type="curve" smooth="yes"/>
      <point x="754" y="-23"/>
      <point x="808" y="24"/>
      <point x="808" y="109" type="curve" smooth="yes"/>
      <point x="808" y="297" type="line"/>
      <point x="662" y="297" type="line"/>
      <point x="662" y="102" type="line" smooth="yes"/>
      <point x="662" y="64"/>
      <point x="646" y="43"/>
      <point x="614" y="43" type="curve" smooth="yes"/>
      <point x="588" y="43"/>
      <point x="572" y="64"/>
      <point x="572" y="95" type="curve" smooth="yes"/>
      <point x="572" y="124"/>
      <point x="588" y="148"/>
      <point x="617" y="148" type="curve" smooth="yes"/>
      <point x="788" y="148" type="line" smooth="yes"/>
      <point x="831" y="148"/>
      <point x="856" y="116"/>
      <point x="856" y="41" type="curve" smooth="yes"/>
      <point x="856" y="-64"/>
      <point x="803" y="-99"/>
      <point x="711" y="-99" type="curve" smooth="yes"/>
      <point x="522" y="-99" type="line" smooth="yes"/>
      <point x="411" y="-99"/>
      <point x="312" y="-118"/>
      <point x="312" y="-218" type="curve" smooth="yes"/>
      <point x="312" y="-291"/>
      <point x="364" y="-323"/>
    </contour>
  </outline>
</glyph>
<glyph name="day-tamil" format="2">
  <advance width="745"/>
  <unicode hex="0BF3"/>
  <note>
uni0BF3
</note>
  <outline>
    <contour>
      <point x="217" y="-5" type="curve" smooth="yes"/>
      <point x="311" y="-5"/>
      <point x="372" y="60"/>
      <point x="372" y="173" type="curve" smooth="yes"/>
      <point x="372" y="271"/>
      <point x="324" y="342"/>
      <point x="237" y="342" type="curve" smooth="yes"/>
      <point x="139" y="342"/>
      <point x="104" y="261"/>
      <point x="95" y="144" type="curve"/>
      <point x="127" y="115" type="line"/>
      <point x="134" y="204"/>
      <point x="151" y="235"/>
      <point x="182" y="235" type="curve" smooth="yes"/>
      <point x="209" y="235"/>
      <point x="223" y="204"/>
      <point x="223" y="157" type="curve" smooth="yes"/>
      <point x="223" y="103"/>
      <point x="208" y="78"/>
      <point x="180" y="78" type="curve" smooth="yes"/>
      <point x="143" y="78"/>
      <point x="114" y="150"/>
      <point x="114" y="261" type="curve" smooth="yes"/>
      <point x="114" y="415"/>
      <point x="187" y="504"/>
      <point x="285" y="504" type="curve" smooth="yes"/>
      <point x="397" y="504"/>
      <point x="456" y="414"/>
      <point x="456" y="262" type="curve" smooth="yes"/>
      <point x="456" y="176"/>
      <point x="441" y="106"/>
      <point x="419" y="48" type="curve"/>
      <point x="442" y="0" type="line"/>
      <point x="729" y="0" type="line"/>
      <point x="729" y="67" type="line"/>
      <point x="528" y="67" type="line"/>
      <point x="580" y="128"/>
      <point x="620" y="208"/>
      <point x="620" y="296" type="curve" smooth="yes"/>
      <point x="620" y="480"/>
      <point x="498" y="581"/>
      <point x="326" y="581" type="curve" smooth="yes"/>
      <point x="132" y="581"/>
      <point x="42" y="443"/>
      <point x="42" y="262" type="curve" smooth="yes"/>
      <point x="42" y="109"/>
      <point x="95" y="-5"/>
    </contour>
  </outline>
</glyph>
<glyph name="year-tamil" format="2">
  <advance width="2001"/>
  <unicode hex="0BF5"/>
  <note>
uni0BF5
</note>
  <anchor x="747" y="0" name="bottom"/>
  <anchor x="1181" y="576" name="imatra"/>
  <anchor x="749" y="0" name="nukta"/>
  <anchor x="761" y="576" name="top"/>
  <anchor x="764" y="576" name="vedic"/>
  <outline>
    <contour>
      <point x="797" y="-275" type="curve" smooth="yes"/>
      <point x="1208" y="-275"/>
      <point x="1488" y="-132"/>
      <point x="1488" y="130" type="curve" smooth="yes"/>
      <point x="1488" y="278"/>
      <point x="1421" y="354"/>
      <point x="1324" y="354" type="curve" smooth="yes"/>
      <point x="1221" y="354"/>
      <point x="1183" y="269"/>
      <point x="1183" y="168" type="curve" smooth="yes"/>
      <point x="1183" y="141" type="line"/>
      <point x="1204" y="141" type="line"/>
      <point x="1204" y="168" type="line" smooth="yes"/>
      <point x="1204" y="214"/>
      <point x="1214" y="245"/>
      <point x="1259" y="245" type="curve" smooth="yes"/>
      <point x="1309" y="245"/>
      <point x="1330" y="209"/>
      <point x="1330" y="137" type="curve" smooth="yes"/>
      <point x="1330" y="-100"/>
      <point x="1129" y="-203"/>
      <point x="791" y="-203" type="curve" smooth="yes"/>
      <point x="376" y="-203"/>
      <point x="118" y="-38"/>
      <point x="118" y="284" type="curve" smooth="yes"/>
      <point x="118" y="605"/>
      <point x="371" y="773"/>
      <point x="869" y="773" type="curve" smooth="yes"/>
      <point x="1312" y="773"/>
      <point x="1560" y="612"/>
      <point x="1560" y="332" type="curve" smooth="yes"/>
      <point x="1560" y="172" type="line" smooth="yes"/>
      <point x="1560" y="63"/>
      <point x="1605" y="-5"/>
      <point x="1729" y="-5" type="curve" smooth="yes"/>
      <point x="1860" y="-5"/>
      <point x="1957" y="98"/>
      <point x="1957" y="304" type="curve" smooth="yes"/>
      <point x="1957" y="407"/>
      <point x="1925" y="488"/>
      <point x="1870" y="581" type="curve"/>
      <point x="1808" y="545" type="line"/>
      <point x="1856" y="462"/>
      <point x="1885" y="389"/>
      <point x="1885" y="295" type="curve" smooth="yes"/>
      <point x="1885" y="152"/>
      <point x="1828" y="83"/>
      <point x="1780" y="83" type="curve" smooth="yes"/>
      <point x="1751" y="83"/>
      <point x="1740" y="104"/>
      <point x="1740" y="161" type="curve" smooth="yes"/>
      <point x="1740" y="344" type="line" smooth="yes"/>
      <point x="1740" y="671"/>
      <point x="1394" y="846"/>
      <point x="875" y="846" type="curve" smooth="yes"/>
      <point x="307" y="846"/>
      <point x="45" y="633"/>
      <point x="45" y="278" type="curve" smooth="yes"/>
      <point x="45" y="-71"/>
      <point x="330" y="-275"/>
    </contour>
    <component base="lla-tamil" xOffset="182"/>
  </outline>
</glyph>
<glyph name="debit-tamil" format="2">
  <advance width="1077"/>
  <unicode hex="0BF6"/>
  <note>
uni0BF6
</note>
  <outline>
    <contour>
      <point x="321" y="-336" type="curve" smooth="yes"/>
      <point x="548" y="-336"/>
      <point x="711" y="-220"/>
      <point x="711" y="-10" type="curve" smooth="yes"/>
      <point x="711" y="576" type="line"/>
      <point x="537" y="576" type="line"/>
      <point x="537" y="-12" type="line" smooth="yes"/>
      <point x="537" y="-187"/>
      <point x="454" y="-270"/>
      <point x="298" y="-270" type="curve" smooth="yes"/>
      <point x="183" y="-270"/>
      <point x="107" y="-206"/>
      <point x="107" y="-150" type="curve" smooth="yes"/>
      <point x="107" y="-131"/>
      <point x="119" y="-120"/>
      <point x="139" y="-120" type="curve" smooth="yes"/>
      <point x="1020" y="-120" type="line"/>
      <point x="1020" y="576" type="line"/>
      <point x="843" y="576" type="line"/>
      <point x="843" y="-52" type="line"/>
      <point x="107" y="-52" type="line" smooth="yes"/>
      <point x="60" y="-52"/>
      <point x="26" y="-85"/>
      <point x="26" y="-132" type="curve" smooth="yes"/>
      <point x="26" y="-251"/>
      <point x="157" y="-336"/>
    </contour>
    <contour>
      <point x="57" y="13" type="line"/>
      <point x="627" y="13" type="line"/>
      <point x="627" y="83" type="line"/>
      <point x="234" y="83" type="line"/>
      <point x="234" y="576" type="line"/>
      <point x="57" y="576" type="line"/>
    </contour>
  </outline>
</glyph>
<glyph name="credit-tamil" format="2">
  <advance width="1366"/>
  <unicode hex="0BF7"/>
  <note>
uni0BF7
</note>
  <anchor x="428" y="0" name="bottom"/>
  <anchor x="428" y="0" name="nukta"/>
  <anchor x="430" y="576" name="top"/>
  <anchor x="431" y="576" name="vedic"/>
  <outline>
    <contour>
      <point x="913" y="-5" type="curve" smooth="yes"/>
      <point x="985" y="-5"/>
      <point x="1052" y="42"/>
      <point x="1052" y="148" type="curve" smooth="yes"/>
      <point x="1052" y="262"/>
      <point x="974" y="340"/>
      <point x="849" y="340" type="curve" smooth="yes"/>
      <point x="760" y="340"/>
      <point x="701" y="298"/>
      <point x="656" y="255" type="curve"/>
      <point x="656" y="182" type="line"/>
      <point x="723" y="242"/>
      <point x="775" y="273"/>
      <point x="822" y="273" type="curve" smooth="yes"/>
      <point x="881" y="273"/>
      <point x="913" y="212"/>
      <point x="913" y="145" type="curve" smooth="yes"/>
      <point x="913" y="92"/>
      <point x="896" y="76"/>
      <point x="877" y="76" type="curve" smooth="yes"/>
      <point x="852" y="76"/>
      <point x="833" y="114"/>
      <point x="833" y="181" type="curve" smooth="yes"/>
      <point x="833" y="294"/>
      <point x="901" y="365"/>
      <point x="991" y="365" type="curve" smooth="yes"/>
      <point x="1083" y="365"/>
      <point x="1150" y="305"/>
      <point x="1150" y="204" type="curve" smooth="yes"/>
      <point x="1150" y="141"/>
      <point x="1127" y="94"/>
      <point x="1085" y="46" type="curve"/>
      <point x="1108" y="0" type="line"/>
      <point x="1353" y="0" type="line"/>
      <point x="1353" y="67" type="line"/>
      <point x="1144" y="67" type="line"/>
      <point x="1147" y="42" type="line"/>
      <point x="1223" y="81"/>
      <point x="1275" y="141"/>
      <point x="1275" y="228" type="curve" smooth="yes"/>
      <point x="1275" y="363"/>
      <point x="1165" y="439"/>
      <point x="1025" y="439" type="curve" smooth="yes"/>
      <point x="861" y="439"/>
      <point x="771" y="329"/>
      <point x="771" y="183" type="curve" smooth="yes"/>
      <point x="771" y="68"/>
      <point x="817" y="-5"/>
    </contour>
    <component base="e-tamil"/>
  </outline>
</glyph>
<glyph name="asabove-tamil" format="2">
  <advance width="1660"/>
  <unicode hex="0BF8"/>
  <note>
uni0BF8
</note>
  <outline>
    <contour>
      <point x="646" y="-4" type="curve" smooth="yes"/>
      <point x="755" y="-4"/>
      <point x="822" y="80"/>
      <point x="822" y="232" type="curve" smooth="yes"/>
      <point x="822" y="453"/>
      <point x="661" y="660"/>
      <point x="389" y="660" type="curve" smooth="yes"/>
      <point x="163" y="660"/>
      <point x="42" y="476"/>
      <point x="42" y="282" type="curve" smooth="yes"/>
      <point x="42" y="114"/>
      <point x="119" y="-5"/>
      <point x="244" y="-5" type="curve" smooth="yes"/>
      <point x="350" y="-5"/>
      <point x="424" y="62"/>
      <point x="424" y="175" type="curve" smooth="yes"/>
      <point x="424" y="267"/>
      <point x="372" y="342"/>
      <point x="278" y="342" type="curve" smooth="yes"/>
      <point x="172" y="342"/>
      <point x="117" y="241"/>
      <point x="113" y="117" type="curve"/>
      <point x="155" y="90" type="line"/>
      <point x="159" y="179"/>
      <point x="179" y="235"/>
      <point x="220" y="235" type="curve" smooth="yes"/>
      <point x="248" y="235"/>
      <point x="267" y="205"/>
      <point x="267" y="160" type="curve" smooth="yes"/>
      <point x="267" y="106"/>
      <point x="249" y="77"/>
      <point x="211" y="77" type="curve" smooth="yes"/>
      <point x="161" y="77"/>
      <point x="114" y="155"/>
      <point x="114" y="281" type="curve" smooth="yes"/>
      <point x="114" y="454"/>
      <point x="227" y="587"/>
      <point x="368" y="587" type="curve" smooth="yes"/>
      <point x="586" y="587"/>
      <point x="669" y="397"/>
      <point x="669" y="215" type="curve" smooth="yes"/>
      <point x="669" y="118"/>
      <point x="649" y="79"/>
      <point x="612" y="79" type="curve" smooth="yes"/>
      <point x="579" y="79"/>
      <point x="553" y="114"/>
      <point x="553" y="204" type="curve" smooth="yes"/>
      <point x="553" y="389"/>
      <point x="620" y="509"/>
      <point x="756" y="509" type="curve" smooth="yes"/>
      <point x="869" y="509"/>
      <point x="936" y="405"/>
      <point x="936" y="260" type="curve" smooth="yes"/>
      <point x="936" y="178"/>
      <point x="925" y="119"/>
      <point x="894" y="46" type="curve"/>
      <point x="916" y="0" type="line"/>
      <point x="1642" y="0" type="line"/>
      <point x="1642" y="67" type="line"/>
      <point x="937" y="67" type="line"/>
      <point x="991" y="41" type="line"/>
      <point x="1048" y="101"/>
      <point x="1088" y="185"/>
      <point x="1088" y="276" type="curve" smooth="yes"/>
      <point x="1088" y="478"/>
      <point x="954" y="582"/>
      <point x="778" y="582" type="curve" smooth="yes"/>
      <point x="581" y="582"/>
      <point x="483" y="422"/>
      <point x="483" y="211" type="curve" smooth="yes"/>
      <point x="483" y="76"/>
      <point x="535" y="-4"/>
    </contour>
    <contour>
      <point x="1353" y="-275" type="line"/>
      <point x="1528" y="-275" type="line"/>
      <point x="1528" y="412" type="line" smooth="yes"/>
      <point x="1528" y="525"/>
      <point x="1464" y="582"/>
      <point x="1368" y="582" type="curve" smooth="yes"/>
      <point x="1223" y="582"/>
      <point x="1163" y="453"/>
      <point x="1163" y="296" type="curve" smooth="yes"/>
      <point x="1163" y="134"/>
      <point x="1224" y="15"/>
      <point x="1352" y="15" type="curve"/>
      <point x="1352" y="67" type="line"/>
      <point x="1264" y="67"/>
      <point x="1234" y="173"/>
      <point x="1234" y="299" type="curve" smooth="yes"/>
      <point x="1234" y="413"/>
      <point x="1272" y="473"/>
      <point x="1311" y="473" type="curve" smooth="yes"/>
      <point x="1337" y="473"/>
      <point x="1353" y="456"/>
      <point x="1353" y="417" type="curve" smooth="yes"/>
    </contour>
  </outline>
</glyph>
<glyph name="rupee-tamil" format="2">
  <advance width="904"/>
  <unicode hex="0BF9"/>
  <note>
uni0BF9
</note>
  <outline>
    <contour>
      <point x="462" y="-275" type="curve" smooth="yes"/>
      <point x="664" y="-275"/>
      <point x="865" y="-152"/>
      <point x="865" y="107" type="curve" smooth="yes"/>
      <point x="865" y="264"/>
      <point x="813" y="355"/>
      <point x="710" y="355" type="curve" smooth="yes"/>
      <point x="626" y="355"/>
      <point x="575" y="276"/>
      <point x="575" y="170" type="curve" smooth="yes"/>
      <point x="575" y="139" type="line"/>
      <point x="592" y="139" type="line"/>
      <point x="592" y="166" type="line" smooth="yes"/>
      <point x="592" y="213"/>
      <point x="610" y="245"/>
      <point x="644" y="245" type="curve" smooth="yes"/>
      <point x="681" y="245"/>
      <point x="708" y="206"/>
      <point x="708" y="106" type="curve" smooth="yes"/>
      <point x="708" y="-116"/>
      <point x="594" y="-203"/>
      <point x="450" y="-203" type="curve" smooth="yes"/>
      <point x="242" y="-203"/>
      <point x="120" y="-39"/>
      <point x="120" y="302" type="curve" smooth="yes"/>
      <point x="120" y="642"/>
      <point x="197" y="846"/>
      <point x="320" y="846" type="curve" smooth="yes"/>
      <point x="378" y="846"/>
      <point x="413" y="808"/>
      <point x="413" y="750" type="curve" smooth="yes"/>
      <point x="413" y="708"/>
      <point x="391" y="690"/>
      <point x="364" y="690" type="curve" smooth="yes"/>
      <point x="328" y="690"/>
      <point x="304" y="727"/>
      <point x="304" y="786" type="curve" smooth="yes"/>
      <point x="304" y="870"/>
      <point x="355" y="931"/>
      <point x="441" y="931" type="curve" smooth="yes"/>
      <point x="521" y="931"/>
      <point x="576" y="878"/>
      <point x="576" y="793" type="curve" smooth="yes"/>
      <point x="576" y="748"/>
      <point x="560" y="704"/>
      <point x="541" y="673" type="curve"/>
      <point x="557" y="625" type="line"/>
      <point x="720" y="625" type="line"/>
      <point x="720" y="691" type="line"/>
      <point x="588" y="691" type="line"/>
      <point x="564" y="656" type="line"/>
      <point x="627" y="688"/>
      <point x="661" y="749"/>
      <point x="661" y="813" type="curve" smooth="yes"/>
      <point x="661" y="931"/>
      <point x="571" y="998"/>
      <point x="452" y="998" type="curve" smooth="yes"/>
      <point x="334" y="998"/>
      <point x="246" y="907"/>
      <point x="246" y="781" type="curve" smooth="yes"/>
      <point x="246" y="686"/>
      <point x="293" y="621"/>
      <point x="378" y="621" type="curve" smooth="yes"/>
      <point x="445" y="621"/>
      <point x="498" y="666"/>
      <point x="498" y="748" type="curve" smooth="yes"/>
      <point x="498" y="850"/>
      <point x="420" y="908"/>
      <point x="325" y="908" type="curve" smooth="yes"/>
      <point x="146" y="908"/>
      <point x="44" y="668"/>
      <point x="44" y="302" type="curve" smooth="yes"/>
      <point x="44" y="-70"/>
      <point x="190" y="-275"/>
    </contour>
    <contour>
      <point x="244" y="0" type="line"/>
      <point x="316" y="0" type="line"/>
      <point x="316" y="509" type="line"/>
      <point x="415" y="509" type="line"/>
      <point x="415" y="0" type="line"/>
      <point x="592" y="0" type="line"/>
      <point x="592" y="509" type="line"/>
      <point x="721" y="509" type="line"/>
      <point x="721" y="576" type="line"/>
      <point x="244" y="576" type="line"/>
    </contour>
  </outline>
</glyph>
<glyph name="number-tamil" format="2">
  <advance width="885"/>
  <unicode hex="0BFA"/>
  <note>
uni0BFA
</note>
  <anchor x="343" y="0" name="bottom"/>
  <anchor x="461" y="576" name="imatra"/>
  <anchor x="388" y="-221" name="nukta"/>
  <anchor x="342" y="576" name="top"/>
  <anchor x="367" y="576" name="vedic"/>
  <outline>
    <contour>
      <point x="672" y="509" type="line"/>
      <point x="885" y="509" type="line"/>
      <point x="885" y="576" type="line"/>
      <point x="704" y="576" type="line"/>
      <point x="708" y="544" type="line"/>
      <point x="800" y="595"/>
      <point x="864" y="664"/>
      <point x="864" y="789" type="curve" smooth="yes"/>
      <point x="864" y="922"/>
      <point x="771" y="1007"/>
      <point x="650" y="1007" type="curve" smooth="yes"/>
      <point x="529" y="1007"/>
      <point x="445" y="904"/>
      <point x="445" y="786" type="curve" smooth="yes"/>
      <point x="445" y="692"/>
      <point x="487" y="620"/>
      <point x="575" y="620" type="curve" smooth="yes"/>
      <point x="644" y="620"/>
      <point x="693" y="667"/>
      <point x="693" y="744" type="curve" smooth="yes"/>
      <point x="693" y="842"/>
      <point x="622" y="913"/>
      <point x="509" y="913" type="curve" smooth="yes"/>
      <point x="408" y="913"/>
      <point x="332" y="829"/>
      <point x="332" y="717" type="curve" smooth="yes"/>
      <point x="332" y="614"/>
      <point x="391" y="534"/>
      <point x="485" y="532" type="curve"/>
      <point x="500" y="576" type="line"/>
      <point x="422" y="576"/>
      <point x="392" y="646"/>
      <point x="392" y="712" type="curve" smooth="yes"/>
      <point x="392" y="796"/>
      <point x="438" y="847"/>
      <point x="509" y="847" type="curve" smooth="yes"/>
      <point x="569" y="847"/>
      <point x="608" y="803"/>
      <point x="608" y="746" type="curve" smooth="yes"/>
      <point x="608" y="708"/>
      <point x="587" y="689"/>
      <point x="562" y="689" type="curve" smooth="yes"/>
      <point x="523" y="689"/>
      <point x="501" y="731"/>
      <point x="501" y="786" type="curve" smooth="yes"/>
      <point x="501" y="871"/>
      <point x="554" y="942"/>
      <point x="637" y="942" type="curve" smooth="yes"/>
      <point x="721" y="942"/>
      <point x="776" y="872"/>
      <point x="776" y="773" type="curve" smooth="yes"/>
      <point x="776" y="665"/>
      <point x="727" y="605"/>
      <point x="652" y="561" type="curve"/>
    </contour>
    <component base="na-tamil"/>
  </outline>
</glyph>
<glyph name="doubleSvarita-vedic" format="2">
  <unicode hex="1CDA"/>
  <note>
uni1CDA
</note>
  <anchor x="0" y="576" name="_vedic"/>
  <outline>
    <contour>
      <point x="-92" y="956" type="line"/>
      <point x="-25" y="956" type="line"/>
      <point x="-25" y="1163" type="line"/>
      <point x="-92" y="1163" type="line"/>
    </contour>
    <contour>
      <point x="25" y="956" type="line"/>
      <point x="92" y="956" type="line"/>
      <point x="92" y="1163" type="line"/>
      <point x="25" y="1163" type="line"/>
    </contour>
  </outline>
</glyph>
<glyph name="quoteleft" format="2">
  <advance width="252"/>
  <unicode hex="2018"/>
  <outline>
    <contour>
      <point x="132" y="401" type="curve" smooth="yes"/>
      <point x="169" y="401"/>
      <point x="197" y="427"/>
      <point x="197" y="474" type="curve" smooth="yes"/>
      <point x="197" y="559"/>
      <point x="136" y="547"/>
      <point x="136" y="584" type="curve"/>
      <point x="136" y="623"/>
      <point x="161" y="638"/>
      <point x="205" y="659" type="curve"/>
      <point x="205" y="714" type="line"/>
      <point x="90" y="679"/>
      <point x="46" y="603"/>
      <point x="46" y="518" type="curve" smooth="yes"/>
      <point x="46" y="446"/>
      <point x="76" y="401"/>
    </contour>
  </outline>
</glyph>
<glyph name="quoteright" format="2">
  <advance width="252"/>
  <unicode hex="2019"/>
  <outline>
    <contour>
      <point x="47" y="402" type="line"/>
      <point x="162" y="437"/>
      <point x="205" y="513"/>
      <point x="205" y="598" type="curve" smooth="yes"/>
      <point x="205" y="669"/>
      <point x="175" y="714"/>
      <point x="119" y="714" type="curve" smooth="yes"/>
      <point x="83" y="714"/>
      <point x="55" y="689"/>
      <point x="55" y="643" type="curve" smooth="yes"/>
      <point x="55" y="557"/>
      <point x="116" y="569"/>
      <point x="116" y="532" type="curve"/>
      <point x="116" y="493"/>
      <point x="91" y="477"/>
      <point x="47" y="456" type="curve"/>
    </contour>
  </outline>
</glyph>
<glyph name="quotedblleft" format="2">
  <advance width="432"/>
  <unicode hex="201C"/>
  <outline>
    <contour>
      <point x="314" y="401" type="curve" smooth="yes"/>
      <point x="351" y="401"/>
      <point x="378" y="427"/>
      <point x="378" y="474" type="curve" smooth="yes"/>
      <point x="378" y="559"/>
      <point x="317" y="547"/>
      <point x="317" y="584" type="curve"/>
      <point x="317" y="623"/>
      <point x="342" y="638"/>
      <point x="387" y="659" type="curve"/>
      <point x="387" y="714" type="line"/>
      <point x="271" y="679"/>
      <point x="228" y="603"/>
      <point x="228" y="518" type="curve" smooth="yes"/>
      <point x="228" y="446"/>
      <point x="258" y="401"/>
    </contour>
    <contour>
      <point x="132" y="401" type="curve" smooth="yes"/>
      <point x="169" y="401"/>
      <point x="197" y="427"/>
      <point x="197" y="474" type="curve" smooth="yes"/>
      <point x="197" y="559"/>
      <point x="136" y="547"/>
      <point x="136" y="584" type="curve"/>
      <point x="136" y="623"/>
      <point x="161" y="638"/>
      <point x="205" y="659" type="curve"/>
      <point x="205" y="714" type="line"/>
      <point x="90" y="679"/>
      <point x="46" y="603"/>
      <point x="46" y="518" type="curve" smooth="yes"/>
      <point x="46" y="446"/>
      <point x="76" y="401"/>
    </contour>
  </outline>
</glyph>
<glyph name="quotedblright" format="2">
  <advance width="432"/>
  <unicode hex="201D"/>
  <outline>
    <contour>
      <point x="228" y="402" type="line"/>
      <point x="343" y="437"/>
      <point x="387" y="513"/>
      <point x="387" y="598" type="curve" smooth="yes"/>
      <point x="387" y="669"/>
      <point x="356" y="714"/>
      <point x="301" y="714" type="curve" smooth="yes"/>
      <point x="264" y="714"/>
      <point x="236" y="689"/>
      <point x="236" y="643" type="curve" smooth="yes"/>
      <point x="236" y="557"/>
      <point x="297" y="569"/>
      <point x="297" y="532" type="curve"/>
      <point x="297" y="493"/>
      <point x="272" y="477"/>
      <point x="228" y="456" type="curve"/>
    </contour>
    <contour>
      <point x="46" y="402" type="line"/>
      <point x="162" y="437"/>
      <point x="205" y="513"/>
      <point x="205" y="598" type="curve" smooth="yes"/>
      <point x="205" y="669"/>
      <point x="175" y="714"/>
      <point x="119" y="714" type="curve" smooth="yes"/>
      <point x="82" y="714"/>
      <point x="55" y="689"/>
      <point x="55" y="643" type="curve" smooth="yes"/>
      <point x="55" y="557"/>
      <point x="116" y="569"/>
      <point x="116" y="532" type="curve"/>
      <point x="116" y="493"/>
      <point x="91" y="477"/>
      <point x="46" y="456" type="curve"/>
    </contour>
  </outline>
</glyph>
<glyph name="foursuperior" format="2">
  <advance width="334"/>
  <unicode hex="2074"/>
  <outline>
    <contour>
      <point x="91" y="387" type="line"/>
      <point x="319" y="387" type="line"/>
      <point x="319" y="437" type="line"/>
      <point x="297" y="437" type="line"/>
      <point x="279" y="437"/>
      <point x="262" y="441"/>
      <point x="262" y="471" type="curve"/>
      <point x="262" y="508" type="line"/>
      <point x="321" y="508" type="line"/>
      <point x="321" y="567" type="line"/>
      <point x="262" y="567" type="line"/>
      <point x="262" y="819" type="line"/>
      <point x="159" y="819" type="line"/>
      <point x="3" y="554" type="line"/>
      <point x="3" y="508" type="line"/>
      <point x="158" y="508" type="line"/>
      <point x="158" y="471" type="line"/>
      <point x="158" y="441"/>
      <point x="141" y="437"/>
      <point x="123" y="437" type="curve"/>
      <point x="91" y="437" type="line"/>
    </contour>
    <contour>
      <point x="63" y="567" type="line"/>
      <point x="141" y="708" type="line"/>
      <point x="148" y="717"/>
      <point x="154" y="733"/>
      <point x="160" y="750" type="curve"/>
      <point x="157" y="725"/>
      <point x="157" y="702"/>
      <point x="157" y="681" type="curve"/>
      <point x="157" y="567" type="line"/>
    </contour>
  </outline>
</glyph>
<glyph name="rupeeIndian" format="2">
  <advance width="425"/>
  <unicode hex="20B9"/>
  <outline>
    <contour>
      <point x="341" y="0" type="curve" smooth="yes"/>
      <point x="438" y="0" type="line"/>
      <point x="438" y="61" type="line"/>
      <point x="424" y="61" type="line" smooth="yes"/>
      <point x="405" y="61"/>
      <point x="368" y="90"/>
      <point x="324" y="148" type="curve" smooth="yes"/>
      <point x="190" y="326" type="line"/>
      <point x="227" y="336"/>
      <point x="298" y="381"/>
      <point x="321" y="469" type="curve"/>
      <point x="375" y="469" type="line"/>
      <point x="375" y="537" type="line"/>
      <point x="328" y="537" type="line"/>
      <point x="326" y="581"/>
      <point x="318" y="618"/>
      <point x="298" y="646" type="curve"/>
      <point x="375" y="646" type="line"/>
      <point x="375" y="714" type="line"/>
      <point x="19" y="714" type="line"/>
      <point x="19" y="646" type="line"/>
      <point x="21" y="646" type="line" smooth="yes"/>
      <point x="65" y="646"/>
      <point x="123" y="615"/>
      <point x="129" y="537" type="curve"/>
      <point x="24" y="537" type="line"/>
      <point x="24" y="469" type="line"/>
      <point x="125" y="469" type="line"/>
      <point x="115" y="396"/>
      <point x="110" y="360"/>
      <point x="46" y="360" type="curve" smooth="yes"/>
      <point x="19" y="360" type="line"/>
      <point x="19" y="298" type="line"/>
      <point x="155" y="100" type="line" smooth="yes"/>
      <point x="200" y="35"/>
      <point x="242" y="0"/>
    </contour>
  </outline>
</glyph>
<glyph name="minus" format="2">
  <advance width="425"/>
  <unicode hex="2212"/>
  <outline>
    <contour>
      <point x="34" y="321" type="line"/>
      <point x="391" y="321" type="line"/>
      <point x="391" y="394" type="line"/>
      <point x="34" y="394" type="line"/>
    </contour>
  </outline>
</glyph>
<glyph name="dottedCircle" format="2">
  <advance width="594"/>
  <unicode hex="25CC"/>
  <anchor x="297" y="300" name="bottom"/>
  <anchor x="297" y="554" name="imatra"/>
  <anchor x="297" y="0" name="nukta"/>
  <anchor x="297" y="554" name="top"/>
  <anchor x="297" y="304" name="vedic"/>
  <outline>
    <contour>
      <point x="383" y="469" type="curve" smooth="yes"/>
      <point x="402" y="469"/>
      <point x="412" y="478"/>
      <point x="412" y="496" type="curve" smooth="yes"/>
      <point x="412" y="515"/>
      <point x="402" y="524"/>
      <point x="383" y="524" type="curve" smooth="yes"/>
      <point x="362" y="524"/>
      <point x="352" y="515"/>
      <point x="352" y="496" type="curve" smooth="yes"/>
      <point x="352" y="478"/>
      <point x="362" y="469"/>
    </contour>
    <contour>
      <point x="140" y="105" type="curve" smooth="yes"/>
      <point x="160" y="105"/>
      <point x="170" y="115"/>
      <point x="170" y="133" type="curve" smooth="yes"/>
      <point x="170" y="152"/>
      <point x="160" y="162"/>
      <point x="140" y="162" type="curve" smooth="yes"/>
      <point x="121" y="162"/>
      <point x="110" y="152"/>
      <point x="110" y="133" type="curve" smooth="yes"/>
      <point x="110" y="115"/>
      <point x="121" y="105"/>
    </contour>
    <contour>
      <point x="92" y="179" type="curve" smooth="yes"/>
      <point x="111" y="179"/>
      <point x="122" y="188"/>
      <point x="122" y="206" type="curve" smooth="yes"/>
      <point x="122" y="225"/>
      <point x="111" y="234"/>
      <point x="92" y="234" type="curve" smooth="yes"/>
      <point x="72" y="234"/>
      <point x="62" y="225"/>
      <point x="62" y="206" type="curve" smooth="yes"/>
      <point x="62" y="188"/>
      <point x="72" y="179"/>
    </contour>
    <contour>
      <point x="212" y="59" type="curve" smooth="yes"/>
      <point x="232" y="59"/>
      <point x="242" y="68"/>
      <point x="242" y="87" type="curve" smooth="yes"/>
      <point x="242" y="105"/>
      <point x="232" y="113"/>
      <point x="212" y="113" type="curve" smooth="yes"/>
      <point x="193" y="113"/>
      <point x="183" y="104"/>
      <point x="183" y="85" type="curve" smooth="yes"/>
      <point x="183" y="67"/>
      <point x="193" y="59"/>
    </contour>
    <contour>
      <point x="75" y="264" type="curve" smooth="yes"/>
      <point x="94" y="264"/>
      <point x="104" y="273"/>
      <point x="104" y="291" type="curve" smooth="yes"/>
      <point x="104" y="309"/>
      <point x="94" y="318"/>
      <point x="75" y="318" type="curve" smooth="yes"/>
      <point x="55" y="318"/>
      <point x="44" y="309"/>
      <point x="44" y="291" type="curve" smooth="yes"/>
      <point x="44" y="273"/>
      <point x="55" y="264"/>
    </contour>
    <contour>
      <point x="297" y="41" type="curve" smooth="yes"/>
      <point x="316" y="41"/>
      <point x="327" y="50"/>
      <point x="327" y="69" type="curve" smooth="yes"/>
      <point x="327" y="87"/>
      <point x="316" y="97"/>
      <point x="297" y="97" type="curve" smooth="yes"/>
      <point x="278" y="97"/>
      <point x="268" y="87"/>
      <point x="268" y="69" type="curve" smooth="yes"/>
      <point x="268" y="50"/>
      <point x="278" y="41"/>
    </contour>
    <contour>
      <point x="93" y="348" type="curve" smooth="yes"/>
      <point x="112" y="348"/>
      <point x="122" y="357"/>
      <point x="122" y="376" type="curve" smooth="yes"/>
      <point x="122" y="394"/>
      <point x="111" y="403"/>
      <point x="92" y="403" type="curve" smooth="yes"/>
      <point x="72" y="403"/>
      <point x="62" y="394"/>
      <point x="62" y="376" type="curve" smooth="yes"/>
      <point x="62" y="357"/>
      <point x="72" y="348"/>
    </contour>
    <contour>
      <point x="383" y="59" type="curve" smooth="yes"/>
      <point x="402" y="59"/>
      <point x="412" y="67"/>
      <point x="412" y="85" type="curve" smooth="yes"/>
      <point x="412" y="104"/>
      <point x="402" y="113"/>
      <point x="383" y="113" type="curve" smooth="yes"/>
      <point x="362" y="113"/>
      <point x="352" y="104"/>
      <point x="352" y="85" type="curve" smooth="yes"/>
      <point x="352" y="67"/>
      <point x="362" y="59"/>
    </contour>
    <contour>
      <point x="455" y="105" type="curve" smooth="yes"/>
      <point x="474" y="105"/>
      <point x="483" y="115"/>
      <point x="483" y="133" type="curve" smooth="yes"/>
      <point x="483" y="152"/>
      <point x="474" y="162"/>
      <point x="455" y="162" type="curve" smooth="yes"/>
      <point x="435" y="162"/>
      <point x="425" y="152"/>
      <point x="425" y="133" type="curve" smooth="yes"/>
      <point x="425" y="115"/>
      <point x="435" y="105"/>
    </contour>
    <contour>
      <point x="140" y="420" type="curve" smooth="yes"/>
      <point x="160" y="420"/>
      <point x="170" y="430"/>
      <point x="170" y="448" type="curve" smooth="yes"/>
      <point x="170" y="467"/>
      <point x="160" y="477"/>
      <point x="140" y="477" type="curve" smooth="yes"/>
      <point x="121" y="477"/>
      <point x="110" y="467"/>
      <point x="110" y="447" type="curve" smooth="yes"/>
      <point x="110" y="429"/>
      <point x="121" y="420"/>
    </contour>
    <contour>
      <point x="212" y="469" type="curve" smooth="yes"/>
      <point x="232" y="469"/>
      <point x="242" y="478"/>
      <point x="242" y="496" type="curve" smooth="yes"/>
      <point x="242" y="515"/>
      <point x="232" y="524"/>
      <point x="212" y="524" type="curve" smooth="yes"/>
      <point x="193" y="524"/>
      <point x="183" y="515"/>
      <point x="183" y="496" type="curve" smooth="yes"/>
      <point x="183" y="478"/>
      <point x="193" y="469"/>
    </contour>
    <contour>
      <point x="502" y="179" type="curve" smooth="yes"/>
      <point x="522" y="179"/>
      <point x="532" y="188"/>
      <point x="532" y="206" type="curve" smooth="yes"/>
      <point x="532" y="225"/>
      <point x="522" y="234"/>
      <point x="502" y="234" type="curve" smooth="yes"/>
      <point x="483" y="234"/>
      <point x="473" y="225"/>
      <point x="473" y="206" type="curve" smooth="yes"/>
      <point x="473" y="188"/>
      <point x="483" y="179"/>
    </contour>
    <contour>
      <point x="297" y="485" type="curve" smooth="yes"/>
      <point x="316" y="485"/>
      <point x="327" y="495"/>
      <point x="327" y="514" type="curve" smooth="yes"/>
      <point x="327" y="532"/>
      <point x="316" y="542"/>
      <point x="297" y="542" type="curve" smooth="yes"/>
      <point x="278" y="542"/>
      <point x="268" y="532"/>
      <point x="268" y="514" type="curve" smooth="yes"/>
      <point x="268" y="495"/>
      <point x="278" y="485"/>
    </contour>
    <contour>
      <point x="521" y="264" type="curve" smooth="yes"/>
      <point x="540" y="264"/>
      <point x="549" y="273"/>
      <point x="549" y="291" type="curve" smooth="yes"/>
      <point x="549" y="309"/>
      <point x="540" y="318"/>
      <point x="521" y="318" type="curve" smooth="yes"/>
      <point x="501" y="318"/>
      <point x="491" y="309"/>
      <point x="491" y="291" type="curve" smooth="yes"/>
      <point x="491" y="273"/>
      <point x="501" y="264"/>
    </contour>
    <contour>
      <point x="502" y="348" type="curve" smooth="yes"/>
      <point x="522" y="348"/>
      <point x="532" y="357"/>
      <point x="532" y="376" type="curve" smooth="yes"/>
      <point x="532" y="394"/>
      <point x="522" y="403"/>
      <point x="503" y="403" type="curve" smooth="yes"/>
      <point x="483" y="403"/>
      <point x="473" y="394"/>
      <point x="473" y="376" type="curve" smooth="yes"/>
      <point x="473" y="357"/>
      <point x="483" y="348"/>
    </contour>
    <contour>
      <point x="455" y="420" type="curve" smooth="yes"/>
      <point x="474" y="420"/>
      <point x="483" y="430"/>
      <point x="483" y="448" type="curve" smooth="yes"/>
      <point x="483" y="467"/>
      <point x="474" y="477"/>
      <point x="455" y="477" type="curve" smooth="yes"/>
      <point x="435" y="477"/>
      <point x="425" y="467"/>
      <point x="425" y="448" type="curve" smooth="yes"/>
      <point x="425" y="430"/>
      <point x="435" y="420"/>
    </contour>
  </outline>
</glyph>
<glyph name="candrabinduhalant-deva" format="2">
  <advance width="431"/>
  <unicode hex="A8F3"/>
  <note>
uniA8F3
</note>
  <outline>
    <contour>
      <point x="212" y="303" type="curve" smooth="yes"/>
      <point x="318" y="303"/>
      <point x="390" y="386"/>
      <point x="402" y="525" type="curve"/>
      <point x="303" y="544" type="line"/>
      <point x="299" y="457"/>
      <point x="263" y="403"/>
      <point x="200" y="403" type="curve" smooth="yes"/>
      <point x="147" y="403"/>
      <point x="109" y="439"/>
      <point x="99" y="542" type="curve"/>
      <point x="30" y="524" type="line"/>
      <point x="45" y="386"/>
      <point x="96" y="303"/>
    </contour>
    <contour>
      <point x="203" y="478" type="curve" smooth="yes"/>
      <point x="232" y="478"/>
      <point x="259" y="491"/>
      <point x="259" y="532" type="curve" smooth="yes"/>
      <point x="259" y="573"/>
      <point x="232" y="586"/>
      <point x="203" y="586" type="curve" smooth="yes"/>
      <point x="171" y="586"/>
      <point x="146" y="573"/>
      <point x="146" y="532" type="curve" smooth="yes"/>
      <point x="146" y="491"/>
      <point x="171" y="478"/>
    </contour>
    <contour>
      <point x="337" y="1" type="curve"/>
      <point x="397" y="36" type="line"/>
      <point x="307" y="201"/>
      <point x="273" y="250"/>
      <point x="172" y="250" type="curve" smooth="yes"/>
      <point x="146" y="250"/>
      <point x="125" y="241"/>
      <point x="110" y="235" type="curve"/>
      <point x="148" y="121" type="line"/>
      <point x="168" y="130"/>
      <point x="183" y="136"/>
      <point x="205" y="136" type="curve" smooth="yes"/>
      <point x="261" y="136"/>
      <point x="279" y="103"/>
    </contour>
  </outline>
</glyph>
<glyph name="u11301" format="2">
  <unicode hex="11301"/>
  <anchor x="0" y="576" name="_vedic"/>
  <outline>
    <contour>
      <point x="13" y="953" type="curve" smooth="yes"/>
      <point x="126" y="953"/>
      <point x="189" y="1007"/>
      <point x="189" y="1083" type="curve" smooth="yes"/>
      <point x="189" y="1115"/>
      <point x="177" y="1161"/>
      <point x="131" y="1161" type="curve" smooth="yes"/>
      <point x="125" y="1161"/>
      <point x="110" y="1159"/>
      <point x="104" y="1156" type="curve"/>
      <point x="111" y="1142"/>
      <point x="114" y="1118"/>
      <point x="114" y="1102" type="curve" smooth="yes"/>
      <point x="114" y="1046"/>
      <point x="78" y="1026"/>
      <point x="24" y="1026" type="curve" smooth="yes"/>
      <point x="-41" y="1026"/>
      <point x="-78" y="1046"/>
      <point x="-78" y="1106" type="curve" smooth="yes"/>
      <point x="-78" y="1123"/>
      <point x="-74" y="1143"/>
      <point x="-69" y="1157" type="curve"/>
      <point x="-77" y="1160"/>
      <point x="-90" y="1163"/>
      <point x="-105" y="1163" type="curve" smooth="yes"/>
      <point x="-159" y="1163"/>
      <point x="-189" y="1123"/>
      <point x="-189" y="1076" type="curve" smooth="yes"/>
      <point x="-189" y="1017"/>
      <point x="-135" y="953"/>
    </contour>
    <contour>
      <point x="18" y="1054" type="curve" smooth="yes"/>
      <point x="62" y="1054"/>
      <point x="79" y="1076"/>
      <point x="79" y="1107" type="curve" smooth="yes"/>
      <point x="79" y="1139"/>
      <point x="63" y="1163"/>
      <point x="18" y="1163" type="curve" smooth="yes"/>
      <point x="-25" y="1163"/>
      <point x="-42" y="1139"/>
      <point x="-42" y="1110" type="curve" smooth="yes"/>
      <point x="-42" y="1076"/>
      <point x="-23" y="1054"/>
    </contour>
  </outline>
</glyph>
<glyph name="visarga-grantha" format="2">
  <advance width="282"/>
  <unicode hex="11303"/>
  <outline>
    <contour>
      <point x="143" y="-4" type="curve" smooth="yes"/>
      <point x="217" y="-4"/>
      <point x="277" y="44"/>
      <point x="277" y="124" type="curve" smooth="yes"/>
      <point x="277" y="204"/>
      <point x="217" y="252"/>
      <point x="143" y="252" type="curve" smooth="yes"/>
      <point x="70" y="252"/>
      <point x="10" y="204"/>
      <point x="10" y="124" type="curve" smooth="yes"/>
      <point x="10" y="44"/>
      <point x="70" y="-4"/>
    </contour>
    <contour>
      <point x="143" y="77" type="curve" smooth="yes"/>
      <point x="114" y="77"/>
      <point x="97" y="96"/>
      <point x="97" y="124" type="curve" smooth="yes"/>
      <point x="97" y="151"/>
      <point x="114" y="171"/>
      <point x="143" y="171" type="curve" smooth="yes"/>
      <point x="173" y="171"/>
      <point x="189" y="151"/>
      <point x="189" y="124" type="curve" smooth="yes"/>
      <point x="189" y="96"/>
      <point x="173" y="77"/>
    </contour>
    <contour>
      <point x="143" y="333" type="curve" smooth="yes"/>
      <point x="217" y="333"/>
      <point x="277" y="381"/>
      <point x="277" y="461" type="curve" smooth="yes"/>
      <point x="277" y="541"/>
      <point x="217" y="589"/>
      <point x="143" y="589" type="curve" smooth="yes"/>
      <point x="70" y="589"/>
      <point x="10" y="541"/>
      <point x="10" y="461" type="curve" smooth="yes"/>
      <point x="10" y="381"/>
      <point x="70" y="333"/>
    </contour>
    <contour>
      <point x="143" y="413" type="curve" smooth="yes"/>
      <point x="114" y="413"/>
      <point x="97" y="433"/>
      <point x="97" y="460" type="curve" smooth="yes"/>
      <point x="97" y="488"/>
      <point x="114" y="508"/>
      <point x="143" y="508" type="curve" smooth="yes"/>
      <point x="173" y="508"/>
      <point x="189" y="488"/>
      <point x="189" y="460" type="curve" smooth="yes"/>
      <point x="189" y="433"/>
      <point x="173" y="413"/>
    </contour>
  </outline>
</glyph>
<glyph name="u1133B" format="2">
  <unicode hex="1133B"/>
  <anchor x="0" y="0" name="_nukta"/>
  <outline>
    <contour>
      <point x="0" y="-220" type="curve" smooth="yes"/>
      <point x="49" y="-220"/>
      <point x="90" y="-180"/>
      <point x="90" y="-133" type="curve" smooth="yes"/>
      <point x="90" y="-85"/>
      <point x="49" y="-45"/>
      <point x="1" y="-45" type="curve" smooth="yes"/>
      <point x="-49" y="-45"/>
      <point x="-89" y="-85"/>
      <point x="-89" y="-133" type="curve" smooth="yes"/>
      <point x="-89" y="-180"/>
      <point x="-49" y="-220"/>
    </contour>
  </outline>
</glyph>
<glyph name="nukta-grantha" format="2">
  <unicode hex="1133C"/>
  <anchor x="0" y="0" name="_nukta"/>
  <outline>
    <contour>
      <point x="-125" y="-220" type="curve" smooth="yes"/>
      <point x="-76" y="-220"/>
      <point x="-35" y="-180"/>
      <point x="-35" y="-133" type="curve" smooth="yes"/>
      <point x="-35" y="-85"/>
      <point x="-76" y="-45"/>
      <point x="-124" y="-45" type="curve" smooth="yes"/>
      <point x="-174" y="-45"/>
      <point x="-214" y="-85"/>
      <point x="-214" y="-133" type="curve" smooth="yes"/>
      <point x="-214" y="-180"/>
      <point x="-174" y="-220"/>
    </contour>
    <contour>
      <point x="125" y="-220" type="curve" smooth="yes"/>
      <point x="174" y="-220"/>
      <point x="215" y="-180"/>
      <point x="215" y="-133" type="curve" smooth="yes"/>
      <point x="215" y="-85"/>
      <point x="174" y="-45"/>
      <point x="126" y="-45" type="curve" smooth="yes"/>
      <point x="76" y="-45"/>
      <point x="36" y="-85"/>
      <point x="36" y="-133" type="curve" smooth="yes"/>
      <point x="36" y="-180"/>
      <point x="76" y="-220"/>
    </contour>
  </outline>
</glyph>
<glyph name="anusvara-tamil.alt" format="2">
  <note>
uni0B82
</note>
  <anchor x="0" y="446" name="_top"/>
  <outline>
    <contour>
      <point x="0" y="624" type="curve" smooth="yes"/>
      <point x="79" y="624"/>
      <point x="143" y="686"/>
      <point x="143" y="768" type="curve" smooth="yes"/>
      <point x="143" y="849"/>
      <point x="79" y="910"/>
      <point x="0" y="910" type="curve" smooth="yes"/>
      <point x="-79" y="910"/>
      <point x="-143" y="849"/>
      <point x="-143" y="768" type="curve" smooth="yes"/>
      <point x="-143" y="686"/>
      <point x="-79" y="624"/>
    </contour>
    <contour>
      <point x="0" y="709" type="curve" smooth="yes"/>
      <point x="-30" y="709"/>
      <point x="-57" y="735"/>
      <point x="-57" y="767" type="curve" smooth="yes"/>
      <point x="-57" y="799"/>
      <point x="-30" y="825"/>
      <point x="0" y="825" type="curve" smooth="yes"/>
      <point x="30" y="825"/>
      <point x="57" y="799"/>
      <point x="57" y="767" type="curve" smooth="yes"/>
      <point x="57" y="735"/>
      <point x="30" y="709"/>
    </contour>
  </outline>
</glyph>
<glyph name="cii-tamil" format="2">
  <advance width="638"/>
  <note>
uni0B9A
</note>
  <anchor x="316" y="0" name="bottom"/>
  <anchor x="311" y="0" name="nukta"/>
  <anchor x="479" y="929" name="top"/>
  <anchor x="373" y="576" name="vedic"/>
  <outline>
    <contour>
      <point x="244" y="-4" type="curve" smooth="yes"/>
      <point x="383" y="-4"/>
      <point x="476" y="65"/>
      <point x="476" y="203" type="curve" smooth="yes"/>
      <point x="476" y="273" type="line"/>
      <point x="597" y="273" type="line"/>
      <point x="597" y="340" type="line"/>
      <point x="476" y="340" type="line"/>
      <point x="476" y="509" type="line"/>
      <point x="597" y="509" type="line"/>
      <point x="597" y="576" type="line"/>
      <point x="128" y="576" type="line"/>
      <point x="128" y="303" type="line"/>
      <point x="198" y="303" type="line"/>
      <point x="198" y="509" type="line"/>
      <point x="298" y="509" type="line"/>
      <point x="298" y="340" type="line"/>
      <point x="192" y="340" type="line" smooth="yes"/>
      <point x="117" y="340"/>
      <point x="41" y="274"/>
      <point x="41" y="178" type="curve" smooth="yes"/>
      <point x="41" y="72"/>
      <point x="106" y="-4"/>
    </contour>
    <contour>
      <point x="198" y="78" type="curve" smooth="yes"/>
      <point x="152" y="78"/>
      <point x="111" y="113"/>
      <point x="111" y="176" type="curve" smooth="yes"/>
      <point x="111" y="231"/>
      <point x="137" y="273"/>
      <point x="194" y="273" type="curve" smooth="yes"/>
      <point x="298" y="273" type="line"/>
      <point x="298" y="191" type="line" smooth="yes"/>
      <point x="298" y="111"/>
      <point x="258" y="78"/>
    </contour>
    <component base="iiMatra-tamil" xOffset="482"/>
  </outline>
</glyph>
<glyph name="cu-tamil" format="2">
  <advance width="792"/>
  <note>
g106
</note>
  <anchor x="404" y="0" name="bottom"/>
  <anchor x="404" y="0" name="nukta"/>
  <anchor x="410" y="576" name="top"/>
  <anchor x="441" y="576" name="vedic"/>
  <outline>
    <contour>
      <point x="244" y="-4" type="curve" smooth="yes"/>
      <point x="383" y="-4"/>
      <point x="476" y="65"/>
      <point x="476" y="203" type="curve" smooth="yes"/>
      <point x="476" y="273" type="line"/>
      <point x="560" y="273" type="line"/>
      <point x="560" y="0" type="line"/>
      <point x="710" y="0" type="line"/>
      <point x="710" y="273" type="line"/>
      <point x="784" y="273" type="line"/>
      <point x="784" y="340" type="line"/>
      <point x="476" y="340" type="line"/>
      <point x="476" y="509" type="line"/>
      <point x="597" y="509" type="line"/>
      <point x="597" y="576" type="line"/>
      <point x="128" y="576" type="line"/>
      <point x="128" y="303" type="line"/>
      <point x="198" y="303" type="line"/>
      <point x="198" y="509" type="line"/>
      <point x="298" y="509" type="line"/>
      <point x="298" y="340" type="line"/>
      <point x="192" y="340" type="line" smooth="yes"/>
      <point x="117" y="340"/>
      <point x="41" y="274"/>
      <point x="41" y="178" type="curve" smooth="yes"/>
      <point x="41" y="72"/>
      <point x="106" y="-4"/>
    </contour>
    <contour>
      <point x="198" y="78" type="curve" smooth="yes"/>
      <point x="152" y="78"/>
      <point x="111" y="113"/>
      <point x="111" y="176" type="curve" smooth="yes"/>
      <point x="111" y="231"/>
      <point x="137" y="273"/>
      <point x="194" y="273" type="curve" smooth="yes"/>
      <point x="298" y="273" type="line"/>
      <point x="298" y="191" type="line" smooth="yes"/>
      <point x="298" y="111"/>
      <point x="258" y="78"/>
    </contour>
  </outline>
</glyph>
<glyph name="cuu-tamil" format="2">
  <advance width="1112"/>
  <note>
g107
</note>
  <anchor x="592" y="0" name="bottom"/>
  <anchor x="570" y="-275" name="nukta"/>
  <anchor x="600" y="576" name="top"/>
  <anchor x="631" y="576" name="vedic"/>
  <outline>
    <contour>
      <point x="570" y="-275" type="curve" smooth="yes"/>
      <point x="832" y="-275"/>
      <point x="1071" y="-160"/>
      <point x="1071" y="50" type="curve" smooth="yes"/>
      <point x="1071" y="139"/>
      <point x="1034" y="196"/>
      <point x="967" y="196" type="curve" smooth="yes"/>
      <point x="899" y="196"/>
      <point x="876" y="138"/>
      <point x="876" y="81" type="curve" smooth="yes"/>
      <point x="876" y="50" type="line"/>
      <point x="889" y="50" type="line"/>
      <point x="889" y="81" type="line" smooth="yes"/>
      <point x="889" y="99"/>
      <point x="899" y="117"/>
      <point x="918" y="117" type="curve" smooth="yes"/>
      <point x="945" y="117"/>
      <point x="957" y="90"/>
      <point x="957" y="42" type="curve" smooth="yes"/>
      <point x="957" y="-123"/>
      <point x="771" y="-203"/>
      <point x="563" y="-203" type="curve" smooth="yes"/>
      <point x="335" y="-203"/>
      <point x="119" y="-82"/>
      <point x="119" y="175" type="curve" smooth="yes"/>
      <point x="119" y="294"/>
      <point x="154" y="391"/>
      <point x="210" y="488" type="curve"/>
      <point x="147" y="523" type="line"/>
      <point x="81" y="405"/>
      <point x="46" y="304"/>
      <point x="46" y="168" type="curve" smooth="yes"/>
      <point x="46" y="-104"/>
      <point x="283" y="-275"/>
    </contour>
    <contour>
      <point x="422" y="-4" type="curve" smooth="yes"/>
      <point x="562" y="-4"/>
      <point x="654" y="65"/>
      <point x="654" y="203" type="curve" smooth="yes"/>
      <point x="654" y="273" type="line"/>
      <point x="738" y="273" type="line"/>
      <point x="738" y="0" type="line"/>
      <point x="889" y="0" type="line"/>
      <point x="889" y="273" type="line"/>
      <point x="963" y="273" type="line"/>
      <point x="963" y="340" type="line"/>
      <point x="654" y="340" type="line"/>
      <point x="654" y="509" type="line"/>
      <point x="775" y="509" type="line"/>
      <point x="775" y="576" type="line"/>
      <point x="307" y="576" type="line"/>
      <point x="307" y="303" type="line"/>
      <point x="377" y="303" type="line"/>
      <point x="377" y="509" type="line"/>
      <point x="477" y="509" type="line"/>
      <point x="477" y="340" type="line"/>
      <point x="371" y="340" type="line" smooth="yes"/>
      <point x="296" y="340"/>
      <point x="220" y="274"/>
      <point x="220" y="178" type="curve" smooth="yes"/>
      <point x="220" y="72"/>
      <point x="285" y="-4"/>
    </contour>
    <contour>
      <point x="377" y="78" type="curve" smooth="yes"/>
      <point x="331" y="78"/>
      <point x="290" y="113"/>
      <point x="290" y="176" type="curve" smooth="yes"/>
      <point x="290" y="231"/>
      <point x="315" y="273"/>
      <point x="373" y="273" type="curve" smooth="yes"/>
      <point x="477" y="273" type="line"/>
      <point x="477" y="191" type="line" smooth="yes"/>
      <point x="477" y="111"/>
      <point x="437" y="78"/>
    </contour>
  </outline>
</glyph>
<glyph name="iMatra-tamil.alt01" format="2">
  <advance width="194"/>
  <note>
uni0BBF
</note>
  <outline>
    <contour>
      <point x="63" y="0" type="line"/>
      <point x="136" y="0" type="line"/>
      <point x="136" y="563" type="line" smooth="yes"/>
      <point x="136" y="757"/>
      <point x="23" y="846"/>
      <point x="-115" y="846" type="curve" smooth="yes"/>
      <point x="-233" y="846"/>
      <point x="-305" y="766"/>
      <point x="-305" y="669" type="curve" smooth="yes"/>
      <point x="-305" y="593"/>
      <point x="-263" y="553"/>
      <point x="-184" y="513" type="curve"/>
      <point x="-159" y="546" type="line"/>
      <point x="-193" y="572"/>
      <point x="-209" y="594"/>
      <point x="-209" y="626" type="curve" smooth="yes"/>
      <point x="-209" y="661"/>
      <point x="-182" y="705"/>
      <point x="-108" y="705" type="curve" smooth="yes"/>
      <point x="-17" y="705"/>
      <point x="63" y="648"/>
      <point x="63" y="522" type="curve" smooth="yes"/>
    </contour>
  </outline>
</glyph>
<glyph name="iMatra-tamil.alt02" format="2">
  <advance width="204"/>
  <note>
uni0BBF
</note>
  <outline>
    <contour>
      <point x="74" y="0" type="line"/>
      <point x="146" y="0" type="line"/>
      <point x="146" y="528" type="line" smooth="yes"/>
      <point x="146" y="734"/>
      <point x="-10" y="846"/>
      <point x="-203" y="846" type="curve" smooth="yes"/>
      <point x="-370" y="846"/>
      <point x="-458" y="744"/>
      <point x="-458" y="634" type="curve" smooth="yes"/>
      <point x="-458" y="575"/>
      <point x="-424" y="534"/>
      <point x="-381" y="499" type="curve"/>
      <point x="-342" y="529" type="line"/>
      <point x="-357" y="546"/>
      <point x="-366" y="565"/>
      <point x="-366" y="597" type="curve" smooth="yes"/>
      <point x="-366" y="650"/>
      <point x="-315" y="705"/>
      <point x="-198" y="705" type="curve" smooth="yes"/>
      <point x="-63" y="705"/>
      <point x="74" y="629"/>
      <point x="74" y="488" type="curve" smooth="yes"/>
    </contour>
  </outline>
</glyph>
<glyph name="iiMatra-tamil.alt01" format="2">
  <note>
uni0BC0
</note>
  <anchor x="-104" y="929" name="top"/>
  <outline>
    <contour>
      <point x="-191" y="514" type="curve"/>
      <point x="-163" y="551" type="line"/>
      <point x="-206" y="584"/>
      <point x="-240" y="637"/>
      <point x="-240" y="708" type="curve" smooth="yes"/>
      <point x="-240" y="796"/>
      <point x="-197" y="858"/>
      <point x="-124" y="858" type="curve" smooth="yes"/>
      <point x="-69" y="858"/>
      <point x="-44" y="817"/>
      <point x="-44" y="765" type="curve" smooth="yes"/>
      <point x="-44" y="729"/>
      <point x="-61" y="704"/>
      <point x="-89" y="704" type="curve" smooth="yes"/>
      <point x="-137" y="704"/>
      <point x="-150" y="794"/>
      <point x="-116" y="880" type="curve"/>
      <point x="-162" y="885" type="line"/>
      <point x="-219" y="761"/>
      <point x="-188" y="612"/>
      <point x="-49" y="612" type="curve" smooth="yes"/>
      <point x="27" y="612"/>
      <point x="88" y="662"/>
      <point x="88" y="756" type="curve" smooth="yes"/>
      <point x="88" y="856"/>
      <point x="15" y="929"/>
      <point x="-104" y="929" type="curve" smooth="yes"/>
      <point x="-234" y="929"/>
      <point x="-309" y="827"/>
      <point x="-309" y="716" type="curve" smooth="yes"/>
      <point x="-309" y="629"/>
      <point x="-272" y="571"/>
    </contour>
  </outline>
</glyph>
<glyph name="iiMatra-tamil.alt02" format="2">
  <note>
uni0BC0
</note>
  <outline>
    <contour>
      <point x="-390" y="513" type="curve"/>
      <point x="-364" y="552" type="line"/>
      <point x="-410" y="582"/>
      <point x="-445" y="632"/>
      <point x="-445" y="708" type="curve" smooth="yes"/>
      <point x="-445" y="796"/>
      <point x="-402" y="858"/>
      <point x="-329" y="858" type="curve" smooth="yes"/>
      <point x="-274" y="858"/>
      <point x="-249" y="817"/>
      <point x="-249" y="765" type="curve" smooth="yes"/>
      <point x="-249" y="729"/>
      <point x="-266" y="704"/>
      <point x="-294" y="704" type="curve" smooth="yes"/>
      <point x="-324" y="704"/>
      <point x="-340" y="739"/>
      <point x="-340" y="785" type="curve" smooth="yes"/>
      <point x="-340" y="814"/>
      <point x="-334" y="847"/>
      <point x="-321" y="880" type="curve"/>
      <point x="-367" y="885" type="line"/>
      <point x="-385" y="846"/>
      <point x="-394" y="805"/>
      <point x="-394" y="767" type="curve" smooth="yes"/>
      <point x="-394" y="682"/>
      <point x="-350" y="612"/>
      <point x="-254" y="612" type="curve" smooth="yes"/>
      <point x="-178" y="612"/>
      <point x="-117" y="662"/>
      <point x="-117" y="756" type="curve" smooth="yes"/>
      <point x="-117" y="856"/>
      <point x="-190" y="929"/>
      <point x="-309" y="929" type="curve" smooth="yes"/>
      <point x="-439" y="929"/>
      <point x="-514" y="827"/>
      <point x="-514" y="716" type="curve" smooth="yes"/>
      <point x="-514" y="625"/>
      <point x="-475" y="564"/>
    </contour>
  </outline>
</glyph>
<glyph name="kii-tamil" format="2">
  <advance width="759"/>
  <note>
uni0B95
</note>
  <anchor x="376" y="0" name="bottom"/>
  <anchor x="376" y="0" name="nukta"/>
  <anchor x="539" y="929" name="top"/>
  <anchor x="391" y="576" name="vedic"/>
  <outline>
    <contour>
      <point x="244" y="-4" type="curve" smooth="yes"/>
      <point x="383" y="-4"/>
      <point x="477" y="65"/>
      <point x="477" y="203" type="curve" smooth="yes"/>
      <point x="477" y="273" type="line"/>
      <point x="492" y="273" type="line" smooth="yes"/>
      <point x="531" y="273"/>
      <point x="551" y="233"/>
      <point x="551" y="164" type="curve" smooth="yes"/>
      <point x="551" y="97"/>
      <point x="519" y="63"/>
      <point x="483" y="63" type="curve" smooth="yes"/>
      <point x="472" y="63" type="line"/>
      <point x="472" y="-4" type="line"/>
      <point x="535" y="-4" type="line" smooth="yes"/>
      <point x="637" y="-4"/>
      <point x="720" y="42"/>
      <point x="720" y="167" type="curve" smooth="yes"/>
      <point x="720" y="292"/>
      <point x="633" y="340"/>
      <point x="506" y="340" type="curve" smooth="yes"/>
      <point x="477" y="340" type="line"/>
      <point x="477" y="509" type="line"/>
      <point x="597" y="509" type="line"/>
      <point x="597" y="576" type="line"/>
      <point x="128" y="576" type="line"/>
      <point x="128" y="303" type="line"/>
      <point x="198" y="303" type="line"/>
      <point x="198" y="509" type="line"/>
      <point x="296" y="509" type="line"/>
      <point x="296" y="340" type="line"/>
      <point x="192" y="340" type="line" smooth="yes"/>
      <point x="117" y="340"/>
      <point x="41" y="274"/>
      <point x="41" y="178" type="curve" smooth="yes"/>
      <point x="41" y="72"/>
      <point x="106" y="-4"/>
    </contour>
    <contour>
      <point x="198" y="78" type="curve" smooth="yes"/>
      <point x="152" y="78"/>
      <point x="111" y="113"/>
      <point x="111" y="176" type="curve" smooth="yes"/>
      <point x="111" y="231"/>
      <point x="137" y="273"/>
      <point x="194" y="273" type="curve" smooth="yes"/>
      <point x="296" y="273" type="line"/>
      <point x="296" y="191" type="line" smooth="yes"/>
      <point x="296" y="111"/>
      <point x="258" y="78"/>
    </contour>
    <component base="iiMatra-tamil" xOffset="542"/>
  </outline>
</glyph>
<glyph name="kssa-tamil" format="2">
  <advance width="1674"/>
  <note>
g76
</note>
  <anchor x="850" y="0" name="bottom"/>
  <anchor x="679" y="0" name="nukta"/>
  <anchor x="860" y="576" name="top"/>
  <anchor x="855" y="576" name="vedic"/>
  <outline>
    <contour>
      <point x="674" y="-5" type="curve" smooth="yes"/>
      <point x="755" y="-5"/>
      <point x="827" y="47"/>
      <point x="827" y="153" type="curve" smooth="yes"/>
      <point x="827" y="271"/>
      <point x="736" y="340"/>
      <point x="619" y="340" type="curve" smooth="yes"/>
      <point x="476" y="340" type="line"/>
      <point x="476" y="509" type="line"/>
      <point x="597" y="509" type="line"/>
      <point x="597" y="576" type="line"/>
      <point x="128" y="576" type="line"/>
      <point x="128" y="303" type="line"/>
      <point x="198" y="303" type="line"/>
      <point x="198" y="509" type="line"/>
      <point x="298" y="509" type="line"/>
      <point x="298" y="340" type="line"/>
      <point x="192" y="340" type="line" smooth="yes"/>
      <point x="117" y="340"/>
      <point x="41" y="274"/>
      <point x="41" y="178" type="curve" smooth="yes"/>
      <point x="41" y="72"/>
      <point x="106" y="-4"/>
      <point x="244" y="-4" type="curve" smooth="yes"/>
      <point x="383" y="-4"/>
      <point x="476" y="65"/>
      <point x="476" y="203" type="curve" smooth="yes"/>
      <point x="476" y="273" type="line"/>
      <point x="592" y="273" type="line" smooth="yes"/>
      <point x="649" y="273"/>
      <point x="678" y="221"/>
      <point x="678" y="149" type="curve" smooth="yes"/>
      <point x="678" y="97"/>
      <point x="661" y="76"/>
      <point x="639" y="76" type="curve" smooth="yes"/>
      <point x="610" y="76"/>
      <point x="588" y="114"/>
      <point x="588" y="181" type="curve" smooth="yes"/>
      <point x="588" y="294"/>
      <point x="652" y="365"/>
      <point x="742" y="365" type="curve" smooth="yes"/>
      <point x="833" y="365"/>
      <point x="899" y="300"/>
      <point x="899" y="195" type="curve" smooth="yes"/>
      <point x="899" y="132"/>
      <point x="886" y="92"/>
      <point x="866" y="46" type="curve"/>
      <point x="888" y="0" type="line"/>
      <point x="1627" y="0" type="line"/>
      <point x="1627" y="342" type="line"/>
      <point x="1453" y="292" type="line"/>
      <point x="1453" y="67" type="line"/>
      <point x="909" y="67" type="line"/>
      <point x="940" y="35" type="line"/>
      <point x="986" y="71"/>
      <point x="1034" y="133"/>
      <point x="1034" y="216" type="curve" smooth="yes"/>
      <point x="1034" y="357"/>
      <point x="921" y="439"/>
      <point x="780" y="439" type="curve" smooth="yes"/>
      <point x="610" y="439"/>
      <point x="527" y="329"/>
      <point x="527" y="183" type="curve" smooth="yes"/>
      <point x="527" y="68"/>
      <point x="576" y="-5"/>
    </contour>
    <contour>
      <point x="198" y="78" type="curve" smooth="yes"/>
      <point x="152" y="78"/>
      <point x="111" y="113"/>
      <point x="111" y="176" type="curve" smooth="yes"/>
      <point x="111" y="231"/>
      <point x="137" y="273"/>
      <point x="194" y="273" type="curve" smooth="yes"/>
      <point x="298" y="273" type="line"/>
      <point x="298" y="191" type="line" smooth="yes"/>
      <point x="298" y="111"/>
      <point x="258" y="78"/>
    </contour>
    <contour>
      <point x="1199" y="-275" type="line"/>
      <point x="1370" y="-275" type="line"/>
      <point x="1370" y="411" type="line" smooth="yes"/>
      <point x="1370" y="522"/>
      <point x="1313" y="582"/>
      <point x="1210" y="582" type="curve" smooth="yes"/>
      <point x="1104" y="582"/>
      <point x="1050" y="503"/>
      <point x="1050" y="412" type="curve" smooth="yes"/>
      <point x="1050" y="287"/>
      <point x="1125" y="202"/>
      <point x="1274" y="202" type="curve" smooth="yes"/>
      <point x="1410" y="202"/>
      <point x="1508" y="247"/>
      <point x="1627" y="335" type="curve"/>
      <point x="1627" y="347" type="line"/>
      <point x="1591" y="394" type="line"/>
      <point x="1478" y="312"/>
      <point x="1383" y="267"/>
      <point x="1266" y="267" type="curve" smooth="yes"/>
      <point x="1166" y="267"/>
      <point x="1116" y="318"/>
      <point x="1116" y="415" type="curve" smooth="yes"/>
      <point x="1116" y="454"/>
      <point x="1136" y="475"/>
      <point x="1157" y="475" type="curve" smooth="yes"/>
      <point x="1183" y="475"/>
      <point x="1199" y="459"/>
      <point x="1199" y="420" type="curve" smooth="yes"/>
    </contour>
  </outline>
</glyph>
<glyph name="ku-tamil" format="2">
  <advance width="982"/>
  <note>
g101
</note>
  <anchor x="521" y="0" name="bottom"/>
  <anchor x="501" y="-275" name="nukta"/>
  <anchor x="567" y="576" name="top"/>
  <anchor x="568" y="576" name="vedic"/>
  <outline>
    <contour>
      <point x="501" y="-275" type="curve" smooth="yes"/>
      <point x="731" y="-275"/>
      <point x="941" y="-175"/>
      <point x="941" y="68" type="curve" smooth="yes"/>
      <point x="941" y="270"/>
      <point x="810" y="340"/>
      <point x="630" y="340" type="curve" smooth="yes"/>
      <point x="372" y="340" type="line" smooth="yes"/>
      <point x="297" y="340"/>
      <point x="221" y="274"/>
      <point x="221" y="178" type="curve" smooth="yes"/>
      <point x="221" y="72"/>
      <point x="286" y="-4"/>
      <point x="423" y="-4" type="curve" smooth="yes"/>
      <point x="563" y="-4"/>
      <point x="655" y="65"/>
      <point x="655" y="203" type="curve" smooth="yes"/>
      <point x="655" y="509" type="line"/>
      <point x="776" y="509" type="line"/>
      <point x="776" y="576" type="line"/>
      <point x="308" y="576" type="line"/>
      <point x="308" y="303" type="line"/>
      <point x="378" y="303" type="line"/>
      <point x="378" y="509" type="line"/>
      <point x="478" y="509" type="line"/>
      <point x="478" y="191" type="line" smooth="yes"/>
      <point x="478" y="112"/>
      <point x="438" y="78"/>
      <point x="378" y="78" type="curve" smooth="yes"/>
      <point x="332" y="78"/>
      <point x="291" y="113"/>
      <point x="291" y="176" type="curve" smooth="yes"/>
      <point x="291" y="231"/>
      <point x="316" y="273"/>
      <point x="374" y="273" type="curve" smooth="yes"/>
      <point x="616" y="273" type="line" smooth="yes"/>
      <point x="728" y="273"/>
      <point x="774" y="213"/>
      <point x="774" y="67" type="curve" smooth="yes"/>
      <point x="774" y="-119"/>
      <point x="650" y="-202"/>
      <point x="495" y="-202" type="curve" smooth="yes"/>
      <point x="283" y="-202"/>
      <point x="119" y="-73"/>
      <point x="119" y="175" type="curve" smooth="yes"/>
      <point x="119" y="289"/>
      <point x="154" y="384"/>
      <point x="232" y="482" type="curve"/>
      <point x="175" y="525" type="line"/>
      <point x="86" y="409"/>
      <point x="46" y="305"/>
      <point x="46" y="169" type="curve" smooth="yes"/>
      <point x="46" y="-104"/>
      <point x="247" y="-275"/>
    </contour>
  </outline>
</glyph>
<glyph name="kuu-tamil" format="2">
  <advance width="1123"/>
  <note>
g102
</note>
  <anchor x="558" y="0" name="bottom"/>
  <anchor x="558" y="0" name="nukta"/>
  <anchor x="387" y="576" name="top"/>
  <anchor x="583" y="576" name="vedic"/>
  <outline>
    <contour>
      <point x="674" y="-5" type="curve" smooth="yes"/>
      <point x="755" y="-5"/>
      <point x="817" y="47"/>
      <point x="817" y="153" type="curve" smooth="yes"/>
      <point x="817" y="271"/>
      <point x="736" y="340"/>
      <point x="619" y="340" type="curve" smooth="yes"/>
      <point x="476" y="340" type="line"/>
      <point x="476" y="509" type="line"/>
      <point x="597" y="509" type="line"/>
      <point x="597" y="576" type="line"/>
      <point x="128" y="576" type="line"/>
      <point x="128" y="303" type="line"/>
      <point x="198" y="303" type="line"/>
      <point x="198" y="509" type="line"/>
      <point x="298" y="509" type="line"/>
      <point x="298" y="340" type="line"/>
      <point x="192" y="340" type="line" smooth="yes"/>
      <point x="117" y="340"/>
      <point x="41" y="274"/>
      <point x="41" y="178" type="curve" smooth="yes"/>
      <point x="41" y="72"/>
      <point x="106" y="-4"/>
      <point x="244" y="-4" type="curve" smooth="yes"/>
      <point x="383" y="-4"/>
      <point x="476" y="65"/>
      <point x="476" y="203" type="curve" smooth="yes"/>
      <point x="476" y="273" type="line"/>
      <point x="592" y="273" type="line" smooth="yes"/>
      <point x="649" y="273"/>
      <point x="678" y="221"/>
      <point x="678" y="149" type="curve" smooth="yes"/>
      <point x="678" y="97"/>
      <point x="661" y="76"/>
      <point x="639" y="76" type="curve" smooth="yes"/>
      <point x="610" y="76"/>
      <point x="588" y="114"/>
      <point x="588" y="181" type="curve" smooth="yes"/>
      <point x="588" y="294"/>
      <point x="652" y="365"/>
      <point x="742" y="365" type="curve" smooth="yes"/>
      <point x="831" y="365"/>
      <point x="892" y="305"/>
      <point x="892" y="199" type="curve" smooth="yes"/>
      <point x="892" y="136"/>
      <point x="876" y="92"/>
      <point x="856" y="46" type="curve"/>
      <point x="878" y="0" type="line"/>
      <point x="1109" y="0" type="line"/>
      <point x="1109" y="67" type="line"/>
      <point x="899" y="67" type="line"/>
      <point x="918" y="41" type="line"/>
      <point x="967" y="77"/>
      <point x="1017" y="132"/>
      <point x="1017" y="219" type="curve" smooth="yes"/>
      <point x="1017" y="360"/>
      <point x="914" y="439"/>
      <point x="772" y="439" type="curve" smooth="yes"/>
      <point x="605" y="439"/>
      <point x="527" y="329"/>
      <point x="527" y="183" type="curve" smooth="yes"/>
      <point x="527" y="68"/>
      <point x="576" y="-5"/>
    </contour>
    <contour>
      <point x="198" y="78" type="curve" smooth="yes"/>
      <point x="152" y="78"/>
      <point x="111" y="113"/>
      <point x="111" y="176" type="curve" smooth="yes"/>
      <point x="111" y="231"/>
      <point x="137" y="273"/>
      <point x="194" y="273" type="curve" smooth="yes"/>
      <point x="298" y="273" type="line"/>
      <point x="298" y="191" type="line" smooth="yes"/>
      <point x="298" y="111"/>
      <point x="258" y="78"/>
    </contour>
  </outline>
</glyph>
<glyph name="li-tamil" format="2">
  <advance width="1127"/>
  <note>
g134
</note>
  <anchor x="582" y="0" name="bottom"/>
  <anchor x="582" y="0" name="nukta"/>
  <anchor x="880" y="846" name="top"/>
  <anchor x="576" y="576" name="vedic"/>
  <outline>
    <contour>
      <point x="244" y="-5" type="curve" smooth="yes"/>
      <point x="350" y="-5"/>
      <point x="424" y="62"/>
      <point x="424" y="175" type="curve" smooth="yes"/>
      <point x="424" y="267"/>
      <point x="372" y="342"/>
      <point x="278" y="342" type="curve" smooth="yes"/>
      <point x="172" y="342"/>
      <point x="117" y="241"/>
      <point x="113" y="117" type="curve"/>
      <point x="155" y="90" type="line"/>
      <point x="159" y="179"/>
      <point x="179" y="235"/>
      <point x="220" y="235" type="curve" smooth="yes"/>
      <point x="248" y="235"/>
      <point x="267" y="205"/>
      <point x="267" y="160" type="curve" smooth="yes"/>
      <point x="267" y="106"/>
      <point x="249" y="77"/>
      <point x="211" y="77" type="curve" smooth="yes"/>
      <point x="161" y="77"/>
      <point x="114" y="150"/>
      <point x="114" y="261" type="curve" smooth="yes"/>
      <point x="114" y="415"/>
      <point x="195" y="504"/>
      <point x="308" y="504" type="curve" smooth="yes"/>
      <point x="443" y="504"/>
      <point x="490" y="413"/>
      <point x="490" y="282" type="curve" smooth="yes"/>
      <point x="490" y="172" type="line" smooth="yes"/>
      <point x="490" y="63"/>
      <point x="538" y="-5"/>
      <point x="662" y="-5" type="curve" smooth="yes"/>
      <point x="791" y="-5"/>
      <point x="886" y="79"/>
      <point x="886" y="233" type="curve" smooth="yes"/>
      <point x="886" y="393"/>
      <point x="794" y="478"/>
      <point x="794" y="601" type="curve" smooth="yes"/>
      <point x="794" y="660"/>
      <point x="820" y="705"/>
      <point x="886" y="705" type="curve" smooth="yes"/>
      <point x="958" y="705"/>
      <point x="997" y="659"/>
      <point x="997" y="553" type="curve" smooth="yes"/>
      <point x="997" y="0" type="line"/>
      <point x="1069" y="0" type="line"/>
      <point x="1069" y="596" type="line" smooth="yes"/>
      <point x="1069" y="755"/>
      <point x="1006" y="846"/>
      <point x="880" y="846" type="curve" smooth="yes"/>
      <point x="762" y="846"/>
      <point x="705" y="756"/>
      <point x="705" y="633" type="curve" smooth="yes"/>
      <point x="705" y="467"/>
      <point x="815" y="379"/>
      <point x="815" y="229" type="curve" smooth="yes"/>
      <point x="815" y="135"/>
      <point x="766" y="83"/>
      <point x="716" y="83" type="curve" smooth="yes"/>
      <point x="685" y="83"/>
      <point x="669" y="104"/>
      <point x="669" y="161" type="curve" smooth="yes"/>
      <point x="669" y="295" type="line" smooth="yes"/>
      <point x="669" y="478"/>
      <point x="564" y="581"/>
      <point x="359" y="581" type="curve" smooth="yes"/>
      <point x="145" y="581"/>
      <point x="42" y="447"/>
      <point x="42" y="262" type="curve" smooth="yes"/>
      <point x="42" y="109"/>
      <point x="119" y="-5"/>
    </contour>
  </outline>
</glyph>
